<svg xmlns="http://www.w3.org/2000/svg" xmlns:xlink="http://www.w3.org/1999/xlink" width="2000" zoomAndPan="magnify" viewBox="0 0 900 900" height="2000" preserveAspectRatio="xMidYMid meet" version="1.0"><defs><g/><clipPath id="fad69e61d2"><path d="M 79 619 L 899.5 619 L 899.5 899 L 79 899 Z M 79 619 " clip-rule="nonzero"/></clipPath><clipPath id="82beb8259a"><path d="M 711 9 L 820.5 9 L 820.5 241 L 711 241 Z M 711 9 " clip-rule="nonzero"/></clipPath><clipPath id="84c491f8b8"><path d="M 715 12 L 820.5 12 L 820.5 238 L 715 238 Z M 715 12 " clip-rule="nonzero"/></clipPath><clipPath id="124162f5ea"><rect x="0" width="821" y="0" height="280"/></clipPath><clipPath id="538ff485a4"><rect x="0" width="217" y="0" height="144"/></clipPath></defs><g clip-path="url(#fad69e61d2)"><g transform="matrix(1, 0, 0, 1, 79, 619)"><g clip-path="url(#124162f5ea)"><g fill="#8ab49c" fill-opacity="1"><g transform="translate(1.438448, 234.127534)"><g><path d="M 223.382812 -221.015625 L 255.8125 -221.015625 L 255.8125 -212.394531 L 252.898438 -212.394531 C 253.25 -212.394531 253.523438 -212.453125 253.71875 -212.578125 C 253.625 -212.519531 253.484375 -212.390625 253.289062 -212.199219 C 252.707031 -211.617188 251.972656 -210.695312 251.085938 -209.433594 C 249.472656 -207.140625 248.664062 -201.125 248.664062 -191.382812 L 248.664062 -26.71875 C 248.664062 -17.167969 249.480469 -11.1875 251.113281 -8.78125 C 252.003906 -7.46875 252.742188 -6.511719 253.324219 -5.90625 C 253.523438 -5.703125 253.667969 -5.570312 253.761719 -5.507812 C 253.554688 -5.640625 253.269531 -5.707031 252.898438 -5.707031 L 255.8125 -5.707031 L 255.8125 2.914062 L 213.324219 2.914062 L 213.324219 -5.707031 L 216.238281 -5.707031 C 215.972656 -5.707031 215.765625 -5.667969 215.625 -5.585938 C 215.71875 -5.636719 215.855469 -5.757812 216.042969 -5.941406 C 216.621094 -6.519531 217.316406 -7.445312 218.136719 -8.722656 C 219.691406 -11.140625 220.472656 -17.140625 220.472656 -26.71875 L 220.472656 -211.578125 L 223.382812 -211.578125 L 226.007812 -210.3125 L 132.800781 -17.066406 L 130.175781 -18.332031 L 132.808594 -19.578125 L 143.484375 2.914062 L 112.5 2.914062 L 21.296875 -186.703125 L 23.921875 -187.964844 L 26.835938 -187.964844 L 26.835938 -50.953125 C 26.835938 -36.753906 28.1875 -25.398438 30.894531 -16.882812 C 32.226562 -12.679688 33.476562 -9.570312 34.640625 -7.550781 C 35.125 -6.710938 35.558594 -6.117188 35.9375 -5.769531 C 36.019531 -5.695312 36.074219 -5.652344 36.101562 -5.640625 C 36 -5.6875 35.878906 -5.707031 35.730469 -5.707031 L 38.640625 -5.707031 L 38.640625 2.914062 L 6.40625 2.914062 L 6.40625 -5.707031 L 9.320312 -5.707031 C 9.171875 -5.707031 9.046875 -5.6875 8.949219 -5.640625 C 8.976562 -5.652344 9.03125 -5.695312 9.113281 -5.769531 C 9.492188 -6.117188 9.925781 -6.710938 10.410156 -7.550781 C 11.574219 -9.570312 12.820312 -12.679688 14.15625 -16.882812 C 16.863281 -25.398438 18.214844 -36.753906 18.214844 -50.953125 L 18.214844 -193.558594 L 21.125 -193.558594 L 18.5 -192.296875 L 4.6875 -221.015625 L 35.695312 -221.015625 L 131.25 -22.703125 L 128.625 -21.4375 L 126 -22.703125 L 221.554688 -221.015625 Z M 223.382812 -215.1875 L 223.382812 -218.101562 L 226.007812 -216.835938 L 128.625 -14.726562 L 31.242188 -216.835938 L 33.863281 -218.101562 L 33.863281 -215.1875 L 9.320312 -215.1875 L 9.320312 -218.101562 L 11.945312 -219.363281 L 24.039062 -194.222656 L 24.039062 -50.953125 C 24.039062 -36.152344 22.597656 -24.207031 19.707031 -15.117188 C 18.246094 -10.515625 16.828125 -7.023438 15.457031 -4.640625 C 13.625 -1.46875 11.582031 0.117188 9.320312 0.117188 L 9.320312 -2.796875 L 12.234375 -2.796875 L 12.234375 0 L 9.320312 0 L 9.320312 -2.914062 L 35.730469 -2.914062 L 35.730469 0 L 32.816406 0 L 32.816406 -2.796875 L 35.730469 -2.796875 L 35.730469 0.117188 C 33.46875 0.117188 31.421875 -1.46875 29.59375 -4.640625 C 28.21875 -7.023438 26.800781 -10.515625 25.339844 -15.117188 C 22.453125 -24.207031 21.011719 -36.152344 21.011719 -50.953125 L 21.011719 -187.964844 L 26.546875 -189.226562 L 116.957031 -1.261719 L 114.332031 0 L 114.332031 -2.914062 L 138.875 -2.914062 L 138.875 0 L 136.246094 1.25 L 126.949219 -18.339844 L 220.761719 -212.84375 L 226.296875 -211.578125 L 226.296875 -26.71875 C 226.296875 -16 225.210938 -8.949219 223.039062 -5.570312 C 220.601562 -1.777344 218.332031 0.117188 216.238281 0.117188 L 216.238281 -2.796875 L 219.152344 -2.796875 L 219.152344 0 L 216.238281 0 L 216.238281 -2.914062 L 252.898438 -2.914062 L 252.898438 0 L 249.984375 0 L 249.984375 -2.796875 L 252.898438 -2.796875 L 252.898438 0.117188 C 251.660156 0.117188 250.402344 -0.542969 249.132812 -1.863281 C 248.316406 -2.707031 247.371094 -3.921875 246.292969 -5.511719 C 243.992188 -8.902344 242.839844 -15.972656 242.839844 -26.71875 L 242.839844 -191.382812 C 242.839844 -202.355469 244 -209.488281 246.324219 -212.789062 C 247.402344 -214.324219 248.351562 -215.5 249.167969 -216.316406 C 250.4375 -217.585938 251.679688 -218.21875 252.898438 -218.21875 L 252.898438 -215.304688 L 249.984375 -215.304688 L 249.984375 -218.101562 L 252.898438 -218.101562 L 252.898438 -215.1875 Z M 223.382812 -215.1875 "/></g></g></g><g fill="#8ab49c" fill-opacity="1"><g transform="translate(263.657315, 234.127534)"><g><path d="M 142.636719 -32.324219 L 140.152344 -39.777344 C 137.136719 -48.625 132.855469 -57.082031 127.3125 -65.148438 C 121.816406 -73.140625 115.179688 -79.828125 107.394531 -85.21875 C 99.726562 -90.527344 91.066406 -93.671875 81.414062 -94.65625 L 81.710938 -97.554688 L 81.496094 -94.652344 C 76.25 -95.039062 70.585938 -94.351562 64.503906 -92.582031 C 59.011719 -90.988281 55.300781 -87.640625 53.367188 -82.542969 L 50.640625 -83.574219 L 53.402344 -82.648438 L 38.179688 -37.289062 C 34.140625 -25.777344 32.144531 -17.238281 32.195312 -11.675781 C 32.214844 -9.347656 32.578125 -7.695312 33.289062 -6.722656 C 33.78125 -6.046875 34.59375 -5.707031 35.730469 -5.707031 L 38.640625 -5.707031 L 38.640625 2.914062 L 6.40625 2.914062 L 6.40625 -5.707031 L 9.320312 -5.707031 C 9.78125 -5.707031 10.5625 -6.144531 11.664062 -7.019531 C 13.132812 -8.183594 14.863281 -9.980469 16.855469 -12.410156 C 20.878906 -17.316406 25.214844 -26.546875 29.867188 -40.09375 L 85.167969 -201.957031 L 87.925781 -201.015625 L 85.171875 -200.0625 L 77.933594 -221.015625 L 107.714844 -221.015625 L 167.730469 -45.996094 C 171.839844 -34.480469 175.695312 -24.613281 179.292969 -16.390625 C 181.023438 -12.433594 182.570312 -9.5 183.929688 -7.59375 C 184.507812 -6.78125 185.015625 -6.203125 185.453125 -5.855469 C 185.574219 -5.761719 185.664062 -5.699219 185.730469 -5.671875 C 185.671875 -5.695312 185.589844 -5.707031 185.480469 -5.707031 L 188.390625 -5.707031 L 188.390625 2.914062 L 146.214844 2.914062 L 146.214844 -5.707031 L 149.128906 -5.707031 C 148.167969 -5.707031 147.511719 -5.339844 147.15625 -4.605469 C 147.191406 -4.679688 147.238281 -4.921875 147.289062 -5.332031 C 147.449219 -6.609375 147.453125 -8.613281 147.308594 -11.339844 C 147.011719 -16.878906 145.453125 -23.871094 142.636719 -32.324219 Z M 148.164062 -34.164062 C 151.148438 -25.214844 152.800781 -17.710938 153.125 -11.652344 C 153.289062 -8.578125 153.269531 -6.230469 153.066406 -4.609375 C 152.675781 -1.457031 151.363281 0.117188 149.128906 0.117188 L 149.128906 -2.796875 L 152.042969 -2.796875 L 152.042969 0 L 149.128906 0 L 149.128906 -2.914062 L 185.480469 -2.914062 L 185.480469 0 L 182.566406 0 L 182.566406 -2.796875 L 185.480469 -2.796875 L 185.480469 0.117188 C 183.339844 0.117188 181.242188 -1.328125 179.183594 -4.210938 C 177.59375 -6.449219 175.851562 -9.730469 173.957031 -14.054688 C 170.304688 -22.402344 166.390625 -32.417969 162.21875 -44.105469 L 102.878906 -217.15625 L 105.632812 -218.101562 L 105.632812 -215.1875 L 82.019531 -215.1875 L 82.019531 -218.101562 L 84.773438 -219.054688 L 91.003906 -201.019531 L 35.378906 -38.199219 C 30.5 -23.992188 25.828125 -14.164062 21.359375 -8.714844 C 16.53125 -2.828125 12.519531 0.117188 9.320312 0.117188 L 9.320312 -2.796875 L 12.234375 -2.796875 L 12.234375 0 L 9.320312 0 L 9.320312 -2.914062 L 35.730469 -2.914062 L 35.730469 0 L 32.816406 0 L 32.816406 -2.796875 L 35.730469 -2.796875 L 35.730469 0.117188 C 32.617188 0.117188 30.234375 -1.019531 28.578125 -3.296875 C 27.136719 -5.273438 26.402344 -8.050781 26.371094 -11.625 C 26.316406 -17.867188 28.410156 -27.039062 32.65625 -39.140625 L 47.898438 -84.554688 L 47.917969 -84.609375 C 50.539062 -91.519531 55.527344 -96.042969 62.878906 -98.179688 C 69.636719 -100.140625 75.984375 -100.898438 81.925781 -100.460938 L 81.964844 -100.457031 L 82.007812 -100.453125 C 92.652344 -99.367188 102.21875 -95.886719 110.707031 -90.007812 C 119.078125 -84.214844 126.214844 -77.027344 132.113281 -68.449219 C 137.960938 -59.941406 142.480469 -51 145.679688 -41.621094 Z M 92.234375 -195.722656 L 56.816406 -91.953125 L 54.058594 -92.894531 L 52.0625 -95.015625 C 56.003906 -98.726562 60.847656 -101.097656 66.59375 -102.132812 C 72.027344 -103.109375 77.15625 -103.378906 81.972656 -102.941406 C 94.121094 -101.855469 104.972656 -97.730469 114.527344 -90.566406 C 123.9375 -83.503906 131.644531 -75.050781 137.636719 -65.207031 L 135.148438 -63.691406 L 132.394531 -62.746094 L 86.722656 -195.71875 L 89.476562 -196.664062 Z M 89.46875 -205.65625 L 137.902344 -64.636719 L 132.660156 -62.175781 C 127.054688 -71.382812 119.847656 -79.292969 111.03125 -85.90625 C 102.359375 -92.410156 92.5 -96.152344 81.445312 -97.140625 C 77.152344 -97.53125 72.542969 -97.28125 67.625 -96.398438 C 63.011719 -95.566406 59.15625 -93.691406 56.054688 -90.773438 L 51.304688 -93.835938 L 86.722656 -197.605469 Z M 89.46875 -205.65625 "/></g></g></g><g fill="#8ab49c" fill-opacity="1"><g transform="translate(458.457304, 234.127534)"><g><path d="M 172.859375 -218.101562 L 172.859375 -212.394531 L 169.945312 -212.394531 C 170.296875 -212.394531 170.570312 -212.453125 170.765625 -212.578125 C 170.671875 -212.519531 170.53125 -212.390625 170.335938 -212.199219 C 169.753906 -211.617188 169.019531 -210.695312 168.132812 -209.433594 C 166.519531 -207.140625 165.710938 -201.125 165.710938 -191.382812 L 165.710938 -26.71875 C 165.710938 -17.167969 166.527344 -11.1875 168.160156 -8.78125 C 169.050781 -7.46875 169.789062 -6.511719 170.371094 -5.90625 C 170.570312 -5.703125 170.714844 -5.570312 170.808594 -5.507812 C 170.601562 -5.640625 170.316406 -5.707031 169.945312 -5.707031 L 172.859375 -5.707031 L 172.859375 2.914062 L 130.371094 2.914062 L 130.371094 -5.707031 L 133.285156 -5.707031 C 133.019531 -5.707031 132.8125 -5.667969 132.671875 -5.585938 C 132.765625 -5.636719 132.902344 -5.757812 133.089844 -5.941406 C 133.667969 -6.519531 134.363281 -7.445312 135.183594 -8.722656 C 136.738281 -11.140625 137.515625 -17.140625 137.515625 -26.71875 L 137.515625 -128.003906 L 140.429688 -128.003906 L 140.429688 -125.089844 L 38.523438 -125.089844 L 38.523438 -128.003906 L 41.4375 -128.003906 L 41.4375 -26.71875 C 41.4375 -17.167969 42.253906 -11.1875 43.886719 -8.78125 C 44.777344 -7.46875 45.515625 -6.511719 46.097656 -5.90625 C 46.292969 -5.703125 46.4375 -5.570312 46.53125 -5.507812 C 46.328125 -5.640625 46.039062 -5.707031 45.671875 -5.707031 L 48.582031 -5.707031 L 48.582031 2.914062 L 6.40625 2.914062 L 6.40625 -5.707031 L 9.320312 -5.707031 C 9.054688 -5.707031 8.851562 -5.667969 8.707031 -5.585938 C 8.800781 -5.636719 8.941406 -5.757812 9.125 -5.941406 C 9.703125 -6.519531 10.402344 -7.445312 11.21875 -8.722656 C 12.777344 -11.140625 13.554688 -17.140625 13.554688 -26.71875 L 13.554688 -191.382812 C 13.554688 -201.152344 12.785156 -207.1875 11.246094 -209.496094 C 10.429688 -210.71875 9.738281 -211.605469 9.164062 -212.160156 C 8.980469 -212.335938 8.839844 -212.453125 8.746094 -212.503906 C 8.878906 -212.429688 9.070312 -212.394531 9.320312 -212.394531 L 6.40625 -212.394531 L 6.40625 -221.015625 L 48.582031 -221.015625 L 48.582031 -212.394531 L 45.671875 -212.394531 C 46.023438 -212.394531 46.296875 -212.453125 46.492188 -212.578125 C 46.398438 -212.519531 46.253906 -212.390625 46.0625 -212.199219 C 45.480469 -211.617188 44.746094 -210.695312 43.859375 -209.433594 C 42.246094 -207.140625 41.4375 -201.125 41.4375 -191.382812 L 41.4375 -130.800781 L 38.523438 -130.800781 L 38.523438 -133.710938 L 140.429688 -133.710938 L 140.429688 -130.800781 L 137.515625 -130.800781 L 137.515625 -191.382812 C 137.515625 -201.152344 136.75 -207.1875 135.210938 -209.496094 C 134.394531 -210.71875 133.699219 -211.605469 133.125 -212.160156 C 132.941406 -212.335938 132.804688 -212.453125 132.710938 -212.503906 C 132.84375 -212.429688 133.035156 -212.394531 133.285156 -212.394531 L 130.371094 -212.394531 L 130.371094 -221.015625 L 172.859375 -221.015625 Z M 167.03125 -218.101562 L 169.945312 -218.101562 L 169.945312 -215.1875 L 133.285156 -215.1875 L 133.285156 -218.101562 L 136.195312 -218.101562 L 136.195312 -215.304688 L 133.285156 -215.304688 L 133.285156 -218.21875 C 135.359375 -218.21875 137.617188 -216.386719 140.058594 -212.726562 C 142.246094 -209.441406 143.34375 -202.328125 143.34375 -191.382812 L 143.34375 -127.886719 L 35.613281 -127.886719 L 35.613281 -191.382812 C 35.613281 -202.355469 36.773438 -209.488281 39.09375 -212.789062 C 40.175781 -214.324219 41.125 -215.5 41.941406 -216.316406 C 43.210938 -217.585938 44.453125 -218.21875 45.671875 -218.21875 L 45.671875 -215.304688 L 42.757812 -215.304688 L 42.757812 -218.101562 L 45.671875 -218.101562 L 45.671875 -215.1875 L 9.320312 -215.1875 L 9.320312 -218.101562 L 12.234375 -218.101562 L 12.234375 -215.304688 L 9.320312 -215.304688 L 9.320312 -218.21875 C 11.394531 -218.21875 13.652344 -216.386719 16.09375 -212.726562 C 18.285156 -209.441406 19.378906 -202.328125 19.378906 -191.382812 L 19.378906 -26.71875 C 19.378906 -16 18.292969 -8.949219 16.121094 -5.570312 C 13.683594 -1.777344 11.417969 0.117188 9.320312 0.117188 L 9.320312 -2.796875 L 12.234375 -2.796875 L 12.234375 0 L 9.320312 0 L 9.320312 -2.914062 L 45.671875 -2.914062 L 45.671875 0 L 42.757812 0 L 42.757812 -2.796875 L 45.671875 -2.796875 L 45.671875 0.117188 C 44.429688 0.117188 43.175781 -0.542969 41.902344 -1.863281 C 41.089844 -2.707031 40.144531 -3.921875 39.066406 -5.511719 C 36.765625 -8.902344 35.613281 -15.972656 35.613281 -26.71875 L 35.613281 -130.914062 L 143.34375 -130.914062 L 143.34375 -26.71875 C 143.34375 -16 142.257812 -8.949219 140.085938 -5.570312 C 137.648438 -1.777344 135.378906 0.117188 133.285156 0.117188 L 133.285156 -2.796875 L 136.195312 -2.796875 L 136.195312 0 L 133.285156 0 L 133.285156 -2.914062 L 169.945312 -2.914062 L 169.945312 0 L 167.03125 0 L 167.03125 -2.796875 L 169.945312 -2.796875 L 169.945312 0.117188 C 168.707031 0.117188 167.449219 -0.542969 166.179688 -1.863281 C 165.363281 -2.707031 164.417969 -3.921875 163.339844 -5.511719 C 161.039062 -8.902344 159.886719 -15.972656 159.886719 -26.71875 L 159.886719 -191.382812 C 159.886719 -202.355469 161.046875 -209.488281 163.367188 -212.789062 C 164.449219 -214.324219 165.398438 -215.5 166.214844 -216.316406 C 167.484375 -217.585938 168.726562 -218.21875 169.945312 -218.21875 L 169.945312 -215.304688 L 167.03125 -215.304688 Z M 167.03125 -218.101562 "/></g></g></g><g fill="#8ab49c" fill-opacity="1"><g transform="translate(614.421548, 234.127534)"><g><path d="M 79.964844 -191.382812 L 79.964844 -39.144531 C 79.964844 -26.339844 78.183594 -15.5625 74.621094 -6.824219 C 71.046875 1.945312 66.371094 9.113281 60.585938 14.679688 C 54.851562 20.195312 48.726562 24.421875 42.207031 27.355469 C 35.761719 30.253906 29.621094 32.191406 23.78125 33.164062 C 18.03125 34.125 13.210938 34.601562 9.320312 34.601562 L 6.40625 34.601562 L 6.40625 25.980469 L 9.320312 25.980469 C 17.761719 25.980469 24.617188 23.910156 29.890625 19.769531 C 35.332031 15.492188 39.5625 10.195312 42.574219 3.871094 C 45.679688 -2.636719 47.882812 -9.191406 49.183594 -15.785156 C 50.503906 -22.5 51.316406 -28.074219 51.621094 -32.507812 L 52.085938 -39.34375 L 54.992188 -39.144531 L 52.078125 -39.144531 L 52.078125 -191.382812 C 52.078125 -201.152344 51.308594 -207.1875 49.773438 -209.496094 C 48.957031 -210.71875 48.261719 -211.605469 47.6875 -212.160156 C 47.503906 -212.335938 47.367188 -212.453125 47.273438 -212.503906 C 47.40625 -212.429688 47.597656 -212.394531 47.84375 -212.394531 L 44.933594 -212.394531 L 44.933594 -221.015625 L 87.109375 -221.015625 L 87.109375 -212.394531 L 84.195312 -212.394531 C 84.546875 -212.394531 84.820312 -212.453125 85.015625 -212.578125 C 84.925781 -212.519531 84.78125 -212.390625 84.585938 -212.199219 C 84.003906 -211.617188 83.269531 -210.695312 82.382812 -209.433594 C 80.769531 -207.140625 79.964844 -201.125 79.964844 -191.382812 Z M 74.136719 -191.382812 C 74.136719 -202.355469 75.296875 -209.488281 77.621094 -212.789062 C 78.699219 -214.324219 79.648438 -215.5 80.464844 -216.316406 C 81.734375 -217.585938 82.976562 -218.21875 84.195312 -218.21875 L 84.195312 -215.304688 L 81.285156 -215.304688 L 81.285156 -218.101562 L 84.195312 -218.101562 L 84.195312 -215.1875 L 47.84375 -215.1875 L 47.84375 -218.101562 L 50.757812 -218.101562 L 50.757812 -215.304688 L 47.84375 -215.304688 L 47.84375 -218.21875 C 49.921875 -218.21875 52.179688 -216.386719 54.617188 -212.726562 C 56.808594 -209.441406 57.902344 -202.328125 57.902344 -191.382812 L 57.902344 -39.046875 L 57.429688 -32.113281 C 57.113281 -27.433594 56.269531 -21.617188 54.898438 -14.660156 C 53.503906 -7.585938 51.148438 -0.570312 47.832031 6.378906 C 44.429688 13.523438 39.644531 19.511719 33.488281 24.347656 C 27.160156 29.320312 19.105469 31.804688 9.320312 31.804688 L 9.320312 28.894531 L 12.234375 28.894531 L 12.234375 31.691406 L 9.320312 31.691406 L 9.320312 28.777344 C 12.886719 28.777344 17.390625 28.324219 22.824219 27.417969 C 28.167969 26.527344 33.832031 24.734375 39.816406 22.042969 C 45.722656 19.386719 51.296875 15.53125 56.542969 10.484375 C 61.738281 5.488281 65.964844 -1.015625 69.226562 -9.019531 C 72.5 -17.058594 74.136719 -27.097656 74.136719 -39.144531 Z M 74.136719 -191.382812 "/></g></g></g><g clip-path="url(#82beb8259a)"><g fill="#8ab49c" fill-opacity="1"><g transform="translate(707.937886, 234.127534)"><g><path d="M 10.234375 -80.027344 C 6.195312 -95.117188 5.242188 -110.054688 7.371094 -124.84375 C 9.492188 -139.609375 14.222656 -153.367188 21.554688 -166.117188 C 28.886719 -178.871094 38.398438 -189.820312 50.089844 -198.960938 C 61.792969 -208.109375 75.191406 -214.703125 90.277344 -218.742188 C 105.367188 -222.777344 120.308594 -223.734375 135.097656 -221.605469 C 149.859375 -219.480469 163.617188 -214.753906 176.367188 -207.421875 C 189.125 -200.089844 200.070312 -190.574219 209.210938 -178.886719 C 218.363281 -167.179688 224.957031 -153.785156 228.992188 -138.699219 C 233.03125 -123.605469 233.988281 -108.71875 231.859375 -94.03125 C 229.734375 -79.371094 225.007812 -65.667969 217.675781 -52.917969 C 210.34375 -40.167969 200.835938 -29.171875 189.152344 -19.929688 C 177.445312 -10.671875 164.042969 -4.023438 148.949219 0.015625 C 133.859375 4.054688 118.96875 5.011719 104.285156 2.882812 C 89.625 0.757812 75.921875 -3.96875 63.171875 -11.300781 C 50.417969 -18.632812 39.421875 -28.140625 30.183594 -39.824219 C 20.921875 -51.53125 14.273438 -64.933594 10.234375 -80.027344 Z M 15.863281 -81.53125 C 19.695312 -67.214844 25.992188 -54.515625 34.75 -43.4375 C 43.53125 -32.339844 53.972656 -23.308594 66.074219 -16.351562 C 78.179688 -9.390625 91.195312 -4.902344 105.117188 -2.882812 C 119.015625 -0.867188 133.125 -1.777344 147.445312 -5.609375 C 161.761719 -9.441406 174.460938 -15.738281 185.535156 -24.5 C 196.636719 -33.277344 205.664062 -43.71875 212.625 -55.820312 C 219.585938 -67.925781 224.074219 -80.941406 226.09375 -94.867188 C 228.105469 -108.761719 227.199219 -122.871094 223.367188 -137.191406 C 219.53125 -151.515625 213.285156 -164.21875 204.621094 -175.296875 C 195.949219 -186.390625 185.5625 -195.414062 173.464844 -202.371094 C 161.359375 -209.332031 148.292969 -213.820312 134.269531 -215.839844 C 120.265625 -217.855469 106.105469 -216.945312 91.785156 -213.113281 C 77.460938 -209.28125 64.757812 -203.03125 53.679688 -194.371094 C 42.585938 -185.695312 33.558594 -175.3125 26.601562 -163.210938 C 19.644531 -151.105469 15.152344 -138.042969 13.136719 -124.015625 C 11.121094 -110.015625 12.03125 -95.851562 15.863281 -81.53125 Z M 201.296875 -131.324219 C 198.265625 -143.246094 193.3125 -154.671875 186.433594 -165.597656 C 179.558594 -176.515625 171.214844 -186.019531 161.414062 -194.105469 C 151.6875 -202.128906 141.015625 -207.742188 129.402344 -210.945312 C 117.894531 -214.121094 105.660156 -214.011719 92.699219 -210.625 C 79.757812 -207.238281 69.074219 -201.234375 60.648438 -192.609375 C 52.128906 -183.890625 45.664062 -173.664062 41.25 -161.929688 C 36.808594 -150.113281 34.382812 -137.738281 33.980469 -124.804688 C 33.574219 -111.824219 34.890625 -99.355469 37.929688 -87.398438 C 41.160156 -75.699219 46.21875 -64.378906 53.105469 -53.4375 C 59.984375 -42.511719 68.277344 -33.003906 77.984375 -24.917969 C 87.605469 -16.898438 98.328125 -11.238281 110.144531 -7.929688 C 121.84375 -4.660156 134.054688 -4.816406 146.789062 -8.394531 C 159.757812 -11.789062 170.402344 -17.792969 178.722656 -26.410156 C 187.144531 -35.132812 193.5625 -45.363281 197.976562 -57.105469 C 202.421875 -68.925781 204.898438 -81.308594 205.40625 -94.25 C 205.910156 -107.207031 204.546875 -119.542969 201.3125 -131.265625 Z M 206.929688 -132.816406 C 210.324219 -120.511719 211.753906 -107.582031 211.226562 -94.023438 C 210.695312 -80.453125 208.097656 -67.464844 203.429688 -55.054688 C 198.730469 -42.5625 191.894531 -31.664062 182.914062 -22.367188 C 173.835938 -12.964844 162.320312 -6.4375 148.363281 -2.789062 C 134.585938 1.085938 121.320312 1.242188 108.578125 -2.320312 C 95.957031 -5.851562 84.515625 -11.890625 74.253906 -20.441406 C 64.074219 -28.925781 55.382812 -38.886719 48.175781 -50.332031 C 40.980469 -61.757812 35.683594 -73.636719 32.285156 -85.964844 C 29.109375 -98.449219 27.734375 -111.457031 28.15625 -124.988281 C 28.582031 -138.566406 31.128906 -151.5625 35.796875 -163.980469 C 40.5 -176.480469 47.394531 -187.378906 56.480469 -196.679688 C 65.660156 -206.074219 77.242188 -212.601562 91.226562 -216.257812 C 105.195312 -219.914062 118.4375 -220.011719 130.953125 -216.558594 C 143.363281 -213.136719 154.753906 -207.148438 165.117188 -198.601562 C 175.40625 -190.117188 184.152344 -180.152344 191.363281 -168.703125 C 198.566406 -157.257812 203.761719 -145.277344 206.945312 -132.757812 Z M 206.929688 -132.816406 "/></g></g></g></g><g fill="#8ab49c" fill-opacity="1"><g transform="translate(1.438448, 234.127534)"><g><path d="M 223.390625 -218.109375 L 252.90625 -218.109375 L 252.90625 -215.3125 C 252.070312 -215.3125 250.671875 -213.910156 248.703125 -211.109375 C 246.734375 -208.316406 245.75 -201.742188 245.75 -191.390625 L 245.75 -26.71875 C 245.75 -16.570312 246.734375 -10.046875 248.703125 -7.140625 C 250.671875 -4.242188 252.070312 -2.796875 252.90625 -2.796875 L 252.90625 0 L 216.234375 0 L 216.234375 -2.796875 C 217.273438 -2.796875 218.726562 -4.242188 220.59375 -7.140625 C 222.457031 -10.046875 223.390625 -16.570312 223.390625 -26.71875 L 223.390625 -211.578125 L 130.171875 -18.328125 L 138.875 0 L 114.328125 0 L 23.921875 -187.96875 L 23.921875 -50.953125 C 23.921875 -36.453125 25.316406 -24.800781 28.109375 -16 C 30.910156 -7.195312 33.453125 -2.796875 35.734375 -2.796875 L 35.734375 0 L 9.328125 0 L 9.328125 -2.796875 C 11.597656 -2.796875 14.128906 -7.195312 16.921875 -16 C 19.722656 -24.800781 21.125 -36.453125 21.125 -50.953125 L 21.125 -193.5625 L 9.328125 -218.109375 L 33.859375 -218.109375 L 128.625 -21.4375 Z M 223.390625 -218.109375 "/></g></g></g><g fill="#8ab49c" fill-opacity="1"><g transform="translate(263.657315, 234.127534)"><g><path d="M 145.40625 -33.25 L 142.921875 -40.703125 C 139.804688 -49.816406 135.398438 -58.515625 129.703125 -66.796875 C 124.015625 -75.078125 117.128906 -82.015625 109.046875 -87.609375 C 100.972656 -93.203125 91.859375 -96.519531 81.703125 -97.5625 C 76.117188 -97.96875 70.113281 -97.238281 63.6875 -95.375 C 57.269531 -93.507812 52.921875 -89.578125 50.640625 -83.578125 L 35.421875 -38.21875 C 27.128906 -14.601562 27.234375 -2.796875 35.734375 -2.796875 L 35.734375 0 L 9.328125 0 L 9.328125 -2.796875 C 11.597656 -2.796875 14.851562 -5.382812 19.09375 -10.5625 C 23.34375 -15.738281 27.851562 -25.265625 32.625 -39.140625 L 87.921875 -201.015625 L 82.015625 -218.109375 L 105.640625 -218.109375 L 164.96875 -45.046875 C 169.113281 -33.453125 173 -23.507812 176.625 -15.21875 C 180.25 -6.9375 183.203125 -2.796875 185.484375 -2.796875 L 185.484375 0 L 149.125 0 L 149.125 -2.796875 C 150.164062 -2.796875 150.53125 -5.691406 150.21875 -11.484375 C 149.90625 -17.285156 148.300781 -24.539062 145.40625 -33.25 Z M 89.484375 -196.671875 L 54.0625 -92.890625 C 57.582031 -96.203125 61.929688 -98.320312 67.109375 -99.25 C 72.285156 -100.1875 77.148438 -100.453125 81.703125 -100.046875 C 93.304688 -99.003906 103.664062 -95.066406 112.78125 -88.234375 C 121.894531 -81.398438 129.351562 -73.21875 135.15625 -63.6875 Z M 89.484375 -196.671875 "/></g></g></g><g fill="#8ab49c" fill-opacity="1"><g transform="translate(458.457304, 234.127534)"><g><path d="M 169.953125 -218.109375 L 169.953125 -215.3125 C 169.117188 -215.3125 167.71875 -213.910156 165.75 -211.109375 C 163.78125 -208.316406 162.796875 -201.742188 162.796875 -191.390625 L 162.796875 -26.71875 C 162.796875 -16.570312 163.78125 -10.046875 165.75 -7.140625 C 167.71875 -4.242188 169.117188 -2.796875 169.953125 -2.796875 L 169.953125 0 L 133.28125 0 L 133.28125 -2.796875 C 134.320312 -2.796875 135.773438 -4.242188 137.640625 -7.140625 C 139.503906 -10.046875 140.4375 -16.570312 140.4375 -26.71875 L 140.4375 -128 L 38.53125 -128 L 38.53125 -26.71875 C 38.53125 -16.570312 39.507812 -10.046875 41.46875 -7.140625 C 43.4375 -4.242188 44.835938 -2.796875 45.671875 -2.796875 L 45.671875 0 L 9.328125 0 L 9.328125 -2.796875 C 10.359375 -2.796875 11.804688 -4.242188 13.671875 -7.140625 C 15.535156 -10.046875 16.46875 -16.570312 16.46875 -26.71875 L 16.46875 -191.390625 C 16.46875 -201.742188 15.535156 -208.316406 13.671875 -211.109375 C 11.804688 -213.910156 10.359375 -215.3125 9.328125 -215.3125 L 9.328125 -218.109375 L 45.671875 -218.109375 L 45.671875 -215.3125 C 44.835938 -215.3125 43.4375 -213.910156 41.46875 -211.109375 C 39.507812 -208.316406 38.53125 -201.742188 38.53125 -191.390625 L 38.53125 -130.796875 L 140.4375 -130.796875 L 140.4375 -191.390625 C 140.4375 -201.742188 139.503906 -208.316406 137.640625 -211.109375 C 135.773438 -213.910156 134.320312 -215.3125 133.28125 -215.3125 L 133.28125 -218.109375 Z M 169.953125 -218.109375 "/></g></g></g><g fill="#8ab49c" fill-opacity="1"><g transform="translate(614.421548, 234.127534)"><g><path d="M 77.046875 -191.390625 L 77.046875 -39.140625 C 77.046875 -26.710938 75.335938 -16.304688 71.921875 -7.921875 C 68.503906 0.460938 64.050781 7.296875 58.5625 12.578125 C 53.070312 17.859375 47.21875 21.894531 41 24.6875 C 34.789062 27.488281 28.890625 29.351562 23.296875 30.28125 C 17.703125 31.21875 13.046875 31.6875 9.328125 31.6875 L 9.328125 28.890625 C 18.429688 28.890625 25.882812 26.609375 31.6875 22.046875 C 37.488281 17.492188 41.992188 11.851562 45.203125 5.125 C 48.410156 -1.601562 50.6875 -8.382812 52.03125 -15.21875 C 53.382812 -22.050781 54.210938 -27.742188 54.515625 -32.296875 C 54.828125 -36.859375 54.984375 -39.140625 54.984375 -39.140625 L 54.984375 -191.390625 C 54.984375 -201.742188 54.050781 -208.316406 52.1875 -211.109375 C 50.332031 -213.910156 48.882812 -215.3125 47.84375 -215.3125 L 47.84375 -218.109375 L 84.203125 -218.109375 L 84.203125 -215.3125 C 83.367188 -215.3125 81.96875 -213.910156 80 -211.109375 C 78.03125 -208.316406 77.046875 -201.742188 77.046875 -191.390625 Z M 77.046875 -191.390625 "/></g></g></g><g clip-path="url(#84c491f8b8)"><g fill="#8ab49c" fill-opacity="1"><g transform="translate(707.937886, 234.127534)"><g><path d="M 13.046875 -80.78125 C 9.109375 -95.488281 8.175781 -110.035156 10.25 -124.421875 C 12.320312 -138.816406 16.929688 -152.226562 24.078125 -164.65625 C 31.222656 -177.09375 40.488281 -187.765625 51.875 -196.671875 C 63.269531 -205.578125 76.320312 -211.992188 91.03125 -215.921875 C 105.738281 -219.859375 120.289062 -220.789062 134.6875 -218.71875 C 149.082031 -216.644531 162.492188 -212.035156 174.921875 -204.890625 C 187.347656 -197.753906 198.015625 -188.488281 206.921875 -177.09375 C 215.828125 -165.695312 222.25 -152.644531 226.1875 -137.9375 C 230.113281 -123.238281 231.039062 -108.742188 228.96875 -94.453125 C 226.90625 -80.160156 222.300781 -66.800781 215.15625 -54.375 C 208.007812 -41.945312 198.738281 -31.226562 187.34375 -22.21875 C 175.945312 -13.207031 162.898438 -6.734375 148.203125 -2.796875 C 133.492188 1.136719 118.992188 2.070312 104.703125 0 C 90.410156 -2.070312 77.050781 -6.679688 64.625 -13.828125 C 52.195312 -20.972656 41.476562 -30.238281 32.46875 -41.625 C 23.457031 -53.019531 16.984375 -66.070312 13.046875 -80.78125 Z M 204.125 -132.046875 C 201.019531 -144.265625 195.941406 -155.960938 188.890625 -167.140625 C 181.847656 -178.328125 173.304688 -188.0625 163.265625 -196.34375 C 153.222656 -204.632812 142.191406 -210.4375 130.171875 -213.75 C 118.160156 -217.0625 105.425781 -216.957031 91.96875 -213.4375 C 78.5 -209.914062 67.363281 -203.648438 58.5625 -194.640625 C 49.757812 -185.628906 43.078125 -175.066406 38.515625 -162.953125 C 33.960938 -150.835938 31.476562 -138.148438 31.0625 -124.890625 C 30.65625 -111.640625 32.003906 -98.90625 35.109375 -86.6875 C 38.421875 -74.664062 43.597656 -63.0625 50.640625 -51.875 C 57.679688 -40.695312 66.171875 -30.960938 76.109375 -22.671875 C 86.054688 -14.390625 97.140625 -8.539062 109.359375 -5.125 C 121.578125 -1.707031 134.316406 -1.863281 147.578125 -5.59375 C 161.035156 -9.113281 172.113281 -15.378906 180.8125 -24.390625 C 189.519531 -33.398438 196.148438 -43.960938 200.703125 -56.078125 C 205.265625 -68.191406 207.800781 -80.875 208.3125 -94.125 C 208.832031 -107.382812 207.4375 -120.023438 204.125 -132.046875 Z M 204.125 -132.046875 "/></g></g></g></g></g></g></g><g transform="matrix(1, 0, 0, 1, 76, 501)"><g clip-path="url(#538ff485a4)"><g fill="#d64466" fill-opacity="1"><g transform="translate(0.813172, 114.222047)"><g><path d="M 34.109375 0 C 33.054688 0 32.207031 -0.335938 31.5625 -1.015625 C 30.925781 -1.691406 30.609375 -2.484375 30.609375 -3.390625 L 30.609375 -75.328125 L 37.609375 -75.328125 L 37.609375 -3.390625 C 37.609375 -2.484375 37.269531 -1.691406 36.59375 -1.015625 C 35.914062 -0.335938 35.085938 0 34.109375 0 Z M 7.234375 -72.625 C 6.328125 -72.625 5.535156 -72.921875 4.859375 -73.515625 C 4.179688 -74.117188 3.84375 -74.910156 3.84375 -75.890625 C 3.84375 -76.796875 4.179688 -77.550781 4.859375 -78.15625 C 5.535156 -78.757812 6.328125 -79.0625 7.234375 -79.0625 L 60.984375 -79.0625 C 61.890625 -79.0625 62.679688 -78.757812 63.359375 -78.15625 C 64.035156 -77.550781 64.375 -76.757812 64.375 -75.78125 C 64.375 -74.800781 64.035156 -74.03125 63.359375 -73.46875 C 62.679688 -72.90625 61.890625 -72.625 60.984375 -72.625 Z M 7.234375 -72.625 "/></g></g></g><g fill="#d64466" fill-opacity="1"><g transform="translate(69.021561, 114.222047)"><g><path d="M 14.234375 -79.0625 C 15.128906 -79.0625 15.9375 -78.71875 16.65625 -78.03125 C 17.375 -77.351562 17.734375 -76.53125 17.734375 -75.5625 L 17.734375 -3.5 C 17.660156 -2.519531 17.265625 -1.691406 16.546875 -1.015625 C 15.828125 -0.335938 15.015625 0 14.109375 0 C 13.054688 0 12.207031 -0.335938 11.5625 -1.015625 C 10.925781 -1.691406 10.609375 -2.519531 10.609375 -3.5 L 10.609375 -75.5625 C 10.609375 -76.53125 10.945312 -77.351562 11.625 -78.03125 C 12.3125 -78.71875 13.179688 -79.0625 14.234375 -79.0625 Z M 67.203125 -79.0625 C 68.253906 -79.0625 69.097656 -78.71875 69.734375 -78.03125 C 70.378906 -77.351562 70.703125 -76.53125 70.703125 -75.5625 L 70.703125 -3.5 C 70.617188 -2.519531 70.257812 -1.691406 69.625 -1.015625 C 68.988281 -0.335938 68.140625 0 67.078125 0 C 66.097656 0 65.269531 -0.335938 64.59375 -1.015625 C 63.914062 -1.691406 63.578125 -2.519531 63.578125 -3.5 L 63.578125 -75.5625 C 63.578125 -76.53125 63.9375 -77.351562 64.65625 -78.03125 C 65.375 -78.71875 66.222656 -79.0625 67.203125 -79.0625 Z M 13.671875 -43.703125 L 67.3125 -43.703125 L 67.203125 -37.15625 L 13.21875 -37.15625 Z M 13.671875 -43.703125 "/></g></g></g><g fill="#d64466" fill-opacity="1"><g transform="translate(150.329583, 114.222047)"><g><path d="M 14 -79.0625 L 55.453125 -79.0625 C 56.359375 -79.0625 57.148438 -78.738281 57.828125 -78.09375 C 58.503906 -77.457031 58.84375 -76.648438 58.84375 -75.671875 C 58.84375 -74.691406 58.503906 -73.898438 57.828125 -73.296875 C 57.148438 -72.691406 56.359375 -72.390625 55.453125 -72.390625 L 16.609375 -72.390625 L 17.734375 -74.3125 L 17.734375 -42.578125 L 16.484375 -44.046875 L 50.375 -44.046875 C 51.269531 -44.046875 52.054688 -43.707031 52.734375 -43.03125 C 53.421875 -42.351562 53.765625 -41.5625 53.765625 -40.65625 C 53.765625 -39.675781 53.421875 -38.882812 52.734375 -38.28125 C 52.054688 -37.675781 51.269531 -37.375 50.375 -37.375 L 16.71875 -37.375 L 17.734375 -38.515625 L 17.734375 -5.984375 L 17.171875 -6.65625 L 55.453125 -6.65625 C 56.359375 -6.65625 57.148438 -6.316406 57.828125 -5.640625 C 58.503906 -4.960938 58.84375 -4.175781 58.84375 -3.28125 C 58.84375 -2.300781 58.503906 -1.507812 57.828125 -0.90625 C 57.148438 -0.300781 56.359375 0 55.453125 0 L 14 0 C 13.101562 0 12.3125 -0.335938 11.625 -1.015625 C 10.945312 -1.691406 10.609375 -2.484375 10.609375 -3.390625 L 10.609375 -75.671875 C 10.609375 -76.566406 10.945312 -77.351562 11.625 -78.03125 C 12.3125 -78.71875 13.101562 -79.0625 14 -79.0625 Z M 14 -79.0625 "/></g></g></g></g></g></svg>