<svg xmlns="http://www.w3.org/2000/svg" xmlns:xlink="http://www.w3.org/1999/xlink" width="1375" zoomAndPan="magnify" viewBox="72 529 1375 449" height="449" preserveAspectRatio="xMidYMid meet" version="1.0"><defs><g/><clipPath id="c1346a2301"><rect x="0" width="1368" y="0" height="313"/></clipPath><clipPath id="116f8a0540"><rect x="0" width="216" y="0" height="143"/></clipPath><clipPath id="1cb5598acf"><rect x="0" width="303" y="0" height="143"/></clipPath></defs><g transform="matrix(1, 0, 0, 1, 79, 620)"><g clip-path="url(#c1346a2301)"><g fill="#ffffff" fill-opacity="1"><g transform="translate(1.027854, 234.075298)"><g><path d="M 223.632812 -221.261719 L 256.09375 -221.261719 L 256.09375 -212.628906 L 253.179688 -212.628906 C 253.53125 -212.628906 253.804688 -212.691406 254 -212.8125 C 253.910156 -212.753906 253.765625 -212.628906 253.570312 -212.433594 C 252.988281 -211.851562 252.253906 -210.929688 251.367188 -209.667969 C 249.75 -207.371094 248.941406 -201.347656 248.941406 -191.59375 L 248.941406 -26.75 C 248.941406 -17.1875 249.757812 -11.199219 251.394531 -8.792969 C 252.285156 -7.476562 253.023438 -6.519531 253.605469 -5.910156 C 253.804688 -5.707031 253.949219 -5.574219 254.042969 -5.515625 C 253.835938 -5.648438 253.550781 -5.714844 253.179688 -5.714844 L 256.09375 -5.714844 L 256.09375 2.914062 L 213.5625 2.914062 L 213.5625 -5.714844 L 216.476562 -5.714844 C 216.210938 -5.714844 216.007812 -5.671875 215.863281 -5.589844 C 215.957031 -5.644531 216.097656 -5.765625 216.28125 -5.949219 C 216.859375 -6.527344 217.558594 -7.453125 218.378906 -8.730469 C 219.9375 -11.152344 220.714844 -17.160156 220.714844 -26.75 L 220.714844 -211.8125 L 223.632812 -211.8125 L 226.257812 -210.546875 L 132.949219 -17.085938 L 130.320312 -18.351562 L 132.957031 -19.601562 L 143.644531 2.914062 L 112.625 2.914062 L 21.320312 -186.910156 L 23.949219 -188.175781 L 26.867188 -188.175781 L 26.867188 -51.007812 C 26.867188 -36.796875 28.21875 -25.425781 30.925781 -16.902344 C 32.261719 -12.695312 33.515625 -9.582031 34.679688 -7.558594 C 35.164062 -6.71875 35.597656 -6.125 35.976562 -5.777344 C 36.058594 -5.703125 36.113281 -5.65625 36.140625 -5.644531 C 36.042969 -5.691406 35.917969 -5.714844 35.769531 -5.714844 L 38.683594 -5.714844 L 38.683594 2.914062 L 6.414062 2.914062 L 6.414062 -5.714844 L 9.332031 -5.714844 C 9.183594 -5.714844 9.058594 -5.691406 8.957031 -5.644531 C 8.984375 -5.65625 9.039062 -5.703125 9.121094 -5.777344 C 9.503906 -6.125 9.9375 -6.71875 10.421875 -7.558594 C 11.585938 -9.582031 12.835938 -12.695312 14.171875 -16.902344 C 16.878906 -25.425781 18.234375 -36.796875 18.234375 -51.007812 L 18.234375 -193.773438 L 21.148438 -193.773438 L 18.523438 -192.507812 L 4.691406 -221.261719 L 35.734375 -221.261719 L 131.394531 -22.726562 L 128.765625 -21.460938 L 126.140625 -22.726562 L 221.800781 -221.261719 Z M 223.632812 -215.429688 L 223.632812 -218.34375 L 226.257812 -217.078125 L 128.765625 -14.742188 L 31.277344 -217.078125 L 33.902344 -218.34375 L 33.902344 -215.429688 L 9.332031 -215.429688 L 9.332031 -218.34375 L 11.957031 -219.609375 L 24.066406 -194.4375 L 24.066406 -51.007812 C 24.066406 -36.191406 22.621094 -24.234375 19.730469 -15.136719 C 18.265625 -10.527344 16.847656 -7.03125 15.472656 -4.648438 C 13.640625 -1.472656 11.59375 0.117188 9.332031 0.117188 L 9.332031 -2.800781 L 12.246094 -2.800781 L 12.246094 0 L 9.332031 0 L 9.332031 -2.914062 L 35.769531 -2.914062 L 35.769531 0 L 32.851562 0 L 32.851562 -2.800781 L 35.769531 -2.800781 L 35.769531 0.117188 C 33.503906 0.117188 31.457031 -1.472656 29.625 -4.648438 C 28.25 -7.03125 26.832031 -10.527344 25.371094 -15.136719 C 22.480469 -24.234375 21.035156 -36.191406 21.035156 -51.007812 L 21.035156 -188.175781 L 26.578125 -189.4375 L 117.085938 -1.265625 L 114.460938 0 L 114.460938 -2.914062 L 139.03125 -2.914062 L 139.03125 0 L 136.398438 1.25 L 127.089844 -18.359375 L 221.003906 -213.078125 L 226.546875 -211.8125 L 226.546875 -26.75 C 226.546875 -16.015625 225.460938 -8.960938 223.285156 -5.578125 C 220.84375 -1.78125 218.574219 0.117188 216.476562 0.117188 L 216.476562 -2.800781 L 219.394531 -2.800781 L 219.394531 0 L 216.476562 0 L 216.476562 -2.914062 L 253.179688 -2.914062 L 253.179688 0 L 250.265625 0 L 250.265625 -2.800781 L 253.179688 -2.800781 L 253.179688 0.117188 C 251.9375 0.117188 250.683594 -0.542969 249.410156 -1.863281 C 248.59375 -2.710938 247.644531 -3.925781 246.566406 -5.515625 C 244.261719 -8.914062 243.109375 -15.992188 243.109375 -26.75 L 243.109375 -191.59375 C 243.109375 -202.578125 244.273438 -209.722656 246.597656 -213.023438 C 247.675781 -214.5625 248.628906 -215.738281 249.445312 -216.558594 C 250.714844 -217.828125 251.960938 -218.460938 253.179688 -218.460938 L 253.179688 -215.542969 L 250.265625 -215.542969 L 250.265625 -218.34375 L 253.179688 -218.34375 L 253.179688 -215.429688 Z M 223.632812 -215.429688 "/></g></g></g><g fill="#ffffff" fill-opacity="1"><g transform="translate(263.538063, 234.075298)"><g><path d="M 142.796875 -32.359375 L 140.308594 -39.824219 C 137.289062 -48.679688 133.003906 -57.144531 127.453125 -65.21875 C 121.953125 -73.21875 115.304688 -79.917969 107.511719 -85.3125 C 99.835938 -90.628906 91.167969 -93.777344 81.503906 -94.761719 L 81.800781 -97.664062 L 81.585938 -94.757812 C 76.335938 -95.144531 70.667969 -94.453125 64.574219 -92.6875 C 59.078125 -91.089844 55.363281 -87.738281 53.425781 -82.632812 L 50.699219 -83.667969 L 53.460938 -82.738281 L 38.222656 -37.328125 C 34.179688 -25.804688 32.183594 -17.257812 32.230469 -11.6875 C 32.25 -9.359375 32.617188 -7.707031 33.324219 -6.730469 C 33.816406 -6.054688 34.632812 -5.714844 35.769531 -5.714844 L 38.683594 -5.714844 L 38.683594 2.914062 L 6.414062 2.914062 L 6.414062 -5.714844 L 9.332031 -5.714844 C 9.792969 -5.714844 10.574219 -6.152344 11.679688 -7.027344 C 13.148438 -8.195312 14.878906 -9.992188 16.875 -12.425781 C 20.902344 -17.335938 25.246094 -26.574219 29.898438 -40.136719 L 85.261719 -202.179688 L 88.023438 -201.238281 L 85.265625 -200.285156 L 78.019531 -221.261719 L 107.832031 -221.261719 L 167.917969 -46.046875 C 172.03125 -34.519531 175.890625 -24.640625 179.492188 -16.410156 C 181.226562 -12.445312 182.773438 -9.511719 184.132812 -7.601562 C 184.710938 -6.789062 185.222656 -6.210938 185.660156 -5.863281 C 185.78125 -5.765625 185.871094 -5.707031 185.933594 -5.679688 C 185.878906 -5.703125 185.796875 -5.714844 185.6875 -5.714844 L 188.601562 -5.714844 L 188.601562 2.914062 L 146.378906 2.914062 L 146.378906 -5.714844 L 149.296875 -5.714844 C 148.332031 -5.714844 147.675781 -5.347656 147.320312 -4.609375 C 147.355469 -4.6875 147.398438 -4.929688 147.453125 -5.339844 C 147.613281 -6.617188 147.617188 -8.621094 147.472656 -11.351562 C 147.175781 -16.894531 145.617188 -23.898438 142.796875 -32.359375 Z M 148.328125 -34.203125 C 151.316406 -25.246094 152.96875 -17.730469 153.296875 -11.664062 C 153.460938 -8.589844 153.441406 -6.238281 153.238281 -4.613281 C 152.84375 -1.460938 151.53125 0.117188 149.296875 0.117188 L 149.296875 -2.800781 L 152.210938 -2.800781 L 152.210938 0 L 149.296875 0 L 149.296875 -2.914062 L 185.6875 -2.914062 L 185.6875 0 L 182.769531 0 L 182.769531 -2.800781 L 185.6875 -2.800781 L 185.6875 0.117188 C 183.542969 0.117188 181.441406 -1.328125 179.382812 -4.21875 C 177.789062 -6.457031 176.046875 -9.738281 174.148438 -14.070312 C 170.496094 -22.429688 166.578125 -32.457031 162.398438 -44.152344 L 102.992188 -217.398438 L 105.75 -218.34375 L 105.75 -215.429688 L 82.113281 -215.429688 L 82.113281 -218.34375 L 84.867188 -219.296875 L 91.105469 -201.242188 L 35.417969 -38.242188 C 30.535156 -24.019531 25.855469 -14.179688 21.382812 -8.726562 C 16.550781 -2.832031 12.53125 0.117188 9.332031 0.117188 L 9.332031 -2.800781 L 12.246094 -2.800781 L 12.246094 0 L 9.332031 0 L 9.332031 -2.914062 L 35.769531 -2.914062 L 35.769531 0 L 32.851562 0 L 32.851562 -2.800781 L 35.769531 -2.800781 L 35.769531 0.117188 C 32.652344 0.117188 30.269531 -1.023438 28.609375 -3.300781 C 27.167969 -5.28125 26.429688 -8.058594 26.398438 -11.636719 C 26.34375 -17.886719 28.441406 -27.070312 32.691406 -39.183594 L 47.953125 -84.648438 L 47.972656 -84.703125 C 50.597656 -91.621094 55.589844 -96.148438 62.949219 -98.285156 C 69.710938 -100.25 76.070312 -101.011719 82.015625 -100.570312 L 82.058594 -100.570312 L 82.097656 -100.566406 C 92.753906 -99.476562 102.332031 -95.992188 110.832031 -90.109375 C 119.210938 -84.308594 126.355469 -77.113281 132.257812 -68.523438 C 138.113281 -60.007812 142.640625 -51.058594 145.839844 -41.667969 Z M 92.335938 -195.941406 L 56.878906 -92.054688 L 54.121094 -93 L 52.121094 -95.121094 C 56.066406 -98.835938 60.914062 -101.210938 66.667969 -102.246094 C 72.109375 -103.222656 77.242188 -103.496094 82.066406 -103.054688 C 94.226562 -101.96875 105.089844 -97.839844 114.652344 -90.664062 C 124.078125 -83.597656 131.789062 -75.136719 137.789062 -65.277344 L 135.296875 -63.761719 L 132.539062 -62.8125 L 86.820312 -195.9375 L 89.578125 -196.882812 Z M 89.570312 -205.886719 L 138.054688 -64.707031 L 132.808594 -62.246094 C 127.195312 -71.464844 119.980469 -79.382812 111.15625 -86 C 102.472656 -92.511719 92.601562 -96.261719 81.539062 -97.25 C 77.238281 -97.640625 72.625 -97.390625 67.699219 -96.503906 C 63.082031 -95.675781 59.222656 -93.796875 56.117188 -90.875 L 51.359375 -93.941406 L 86.816406 -197.824219 Z M 89.570312 -205.886719 "/></g></g></g><g fill="#ffffff" fill-opacity="1"><g transform="translate(458.554489, 234.075298)"><g><path d="M 173.050781 -218.34375 L 173.050781 -212.628906 L 170.132812 -212.628906 C 170.488281 -212.628906 170.761719 -212.691406 170.957031 -212.8125 C 170.863281 -212.753906 170.71875 -212.628906 170.523438 -212.433594 C 169.941406 -211.851562 169.207031 -210.929688 168.320312 -209.667969 C 166.703125 -207.371094 165.898438 -201.347656 165.898438 -191.59375 L 165.898438 -26.75 C 165.898438 -17.1875 166.714844 -11.199219 168.347656 -8.792969 C 169.238281 -7.476562 169.976562 -6.519531 170.5625 -5.910156 C 170.757812 -5.707031 170.902344 -5.574219 170.996094 -5.515625 C 170.792969 -5.648438 170.503906 -5.714844 170.132812 -5.714844 L 173.050781 -5.714844 L 173.050781 2.914062 L 130.515625 2.914062 L 130.515625 -5.714844 L 133.433594 -5.714844 C 133.167969 -5.714844 132.960938 -5.671875 132.820312 -5.589844 C 132.914062 -5.644531 133.050781 -5.765625 133.238281 -5.949219 C 133.816406 -6.527344 134.515625 -7.453125 135.335938 -8.730469 C 136.890625 -11.152344 137.671875 -17.160156 137.671875 -26.75 L 137.671875 -128.144531 L 140.585938 -128.144531 L 140.585938 -125.230469 L 38.566406 -125.230469 L 38.566406 -128.144531 L 41.484375 -128.144531 L 41.484375 -26.75 C 41.484375 -17.1875 42.300781 -11.199219 43.9375 -8.792969 C 44.828125 -7.476562 45.566406 -6.519531 46.148438 -5.910156 C 46.34375 -5.707031 46.492188 -5.574219 46.582031 -5.515625 C 46.378906 -5.648438 46.089844 -5.714844 45.722656 -5.714844 L 48.636719 -5.714844 L 48.636719 2.914062 L 6.414062 2.914062 L 6.414062 -5.714844 L 9.332031 -5.714844 C 9.066406 -5.714844 8.859375 -5.671875 8.71875 -5.589844 C 8.8125 -5.644531 8.949219 -5.765625 9.136719 -5.949219 C 9.714844 -6.527344 10.414062 -7.453125 11.234375 -8.730469 C 12.789062 -11.152344 13.570312 -17.160156 13.570312 -26.75 L 13.570312 -191.59375 C 13.570312 -201.375 12.800781 -207.417969 11.257812 -209.726562 C 10.441406 -210.953125 9.746094 -211.84375 9.171875 -212.394531 C 8.988281 -212.574219 8.851562 -212.6875 8.757812 -212.742188 C 8.890625 -212.667969 9.082031 -212.628906 9.332031 -212.628906 L 6.414062 -212.628906 L 6.414062 -221.261719 L 48.636719 -221.261719 L 48.636719 -212.628906 L 45.722656 -212.628906 C 46.074219 -212.628906 46.347656 -212.691406 46.542969 -212.8125 C 46.449219 -212.753906 46.304688 -212.628906 46.113281 -212.433594 C 45.53125 -211.851562 44.796875 -210.929688 43.90625 -209.667969 C 42.292969 -207.371094 41.484375 -201.347656 41.484375 -191.59375 L 41.484375 -130.945312 L 38.566406 -130.945312 L 38.566406 -133.859375 L 140.585938 -133.859375 L 140.585938 -130.945312 L 137.671875 -130.945312 L 137.671875 -191.59375 C 137.671875 -201.375 136.902344 -207.417969 135.359375 -209.726562 C 134.542969 -210.953125 133.847656 -211.84375 133.273438 -212.394531 C 133.089844 -212.574219 132.953125 -212.6875 132.859375 -212.742188 C 132.992188 -212.667969 133.183594 -212.628906 133.433594 -212.628906 L 130.515625 -212.628906 L 130.515625 -221.261719 L 173.050781 -221.261719 Z M 167.21875 -218.34375 L 170.132812 -218.34375 L 170.132812 -215.429688 L 133.433594 -215.429688 L 133.433594 -218.34375 L 136.347656 -218.34375 L 136.347656 -215.542969 L 133.433594 -215.542969 L 133.433594 -218.460938 C 135.507812 -218.460938 137.769531 -216.628906 140.214844 -212.964844 C 142.40625 -209.675781 143.503906 -202.550781 143.503906 -191.59375 L 143.503906 -128.027344 L 35.652344 -128.027344 L 35.652344 -191.59375 C 35.652344 -202.578125 36.8125 -209.722656 39.136719 -213.023438 C 40.21875 -214.5625 41.167969 -215.738281 41.988281 -216.558594 C 43.257812 -217.828125 44.5 -218.460938 45.722656 -218.460938 L 45.722656 -215.542969 L 42.804688 -215.542969 L 42.804688 -218.34375 L 45.722656 -218.34375 L 45.722656 -215.429688 L 9.332031 -215.429688 L 9.332031 -218.34375 L 12.246094 -218.34375 L 12.246094 -215.542969 L 9.332031 -215.542969 L 9.332031 -218.460938 C 11.40625 -218.460938 13.667969 -216.628906 16.113281 -212.964844 C 18.304688 -209.675781 19.402344 -202.550781 19.402344 -191.59375 L 19.402344 -26.75 C 19.402344 -16.015625 18.3125 -8.960938 16.136719 -5.578125 C 13.699219 -1.78125 11.429688 0.117188 9.332031 0.117188 L 9.332031 -2.800781 L 12.246094 -2.800781 L 12.246094 0 L 9.332031 0 L 9.332031 -2.914062 L 45.722656 -2.914062 L 45.722656 0 L 42.804688 0 L 42.804688 -2.800781 L 45.722656 -2.800781 L 45.722656 0.117188 C 44.480469 0.117188 43.222656 -0.542969 41.949219 -1.863281 C 41.136719 -2.710938 40.1875 -3.925781 39.109375 -5.515625 C 36.804688 -8.914062 35.652344 -15.992188 35.652344 -26.75 L 35.652344 -131.0625 L 143.503906 -131.0625 L 143.503906 -26.75 C 143.503906 -16.015625 142.414062 -8.960938 140.238281 -5.578125 C 137.800781 -1.78125 135.53125 0.117188 133.433594 0.117188 L 133.433594 -2.800781 L 136.347656 -2.800781 L 136.347656 0 L 133.433594 0 L 133.433594 -2.914062 L 170.132812 -2.914062 L 170.132812 0 L 167.21875 0 L 167.21875 -2.800781 L 170.132812 -2.800781 L 170.132812 0.117188 C 168.894531 0.117188 167.636719 -0.542969 166.363281 -1.863281 C 165.546875 -2.710938 164.601562 -3.925781 163.523438 -5.515625 C 161.21875 -8.914062 160.066406 -15.992188 160.066406 -26.75 L 160.066406 -191.59375 C 160.066406 -202.578125 161.226562 -209.722656 163.550781 -213.023438 C 164.632812 -214.5625 165.582031 -215.738281 166.402344 -216.558594 C 167.667969 -217.828125 168.914062 -218.460938 170.132812 -218.460938 L 170.132812 -215.542969 L 167.21875 -215.542969 Z M 167.21875 -218.34375 "/></g></g></g><g fill="#ffffff" fill-opacity="1"><g transform="translate(614.692019, 234.075298)"><g><path d="M 80.050781 -191.59375 L 80.050781 -39.191406 C 80.050781 -26.367188 78.269531 -15.582031 74.703125 -6.832031 C 71.128906 1.949219 66.441406 9.125 60.652344 14.699219 C 54.914062 20.21875 48.78125 24.449219 42.253906 27.386719 C 35.800781 30.289062 29.652344 32.226562 23.808594 33.203125 C 18.050781 34.160156 13.222656 34.640625 9.332031 34.640625 L 6.414062 34.640625 L 6.414062 26.011719 L 9.332031 26.011719 C 17.78125 26.011719 24.644531 23.9375 29.921875 19.789062 C 35.371094 15.507812 39.605469 10.207031 42.625 3.875 C 45.730469 -2.640625 47.9375 -9.203125 49.238281 -15.804688 C 50.5625 -22.527344 51.375 -28.105469 51.675781 -32.546875 L 52.144531 -39.386719 L 55.050781 -39.191406 L 52.136719 -39.191406 L 52.136719 -191.59375 C 52.136719 -201.375 51.367188 -207.417969 49.828125 -209.726562 C 49.011719 -210.953125 48.316406 -211.84375 47.742188 -212.394531 C 47.558594 -212.574219 47.417969 -212.6875 47.324219 -212.742188 C 47.457031 -212.667969 47.648438 -212.628906 47.898438 -212.628906 L 44.984375 -212.628906 L 44.984375 -221.261719 L 87.207031 -221.261719 L 87.207031 -212.628906 L 84.289062 -212.628906 C 84.640625 -212.628906 84.914062 -212.691406 85.109375 -212.8125 C 85.019531 -212.753906 84.875 -212.628906 84.679688 -212.433594 C 84.097656 -211.851562 83.363281 -210.929688 82.476562 -209.667969 C 80.859375 -207.371094 80.050781 -201.347656 80.050781 -191.59375 Z M 74.21875 -191.59375 C 74.21875 -202.578125 75.382812 -209.722656 77.707031 -213.023438 C 78.789062 -214.5625 79.738281 -215.738281 80.554688 -216.558594 C 81.824219 -217.828125 83.070312 -218.460938 84.289062 -218.460938 L 84.289062 -215.542969 L 81.375 -215.542969 L 81.375 -218.34375 L 84.289062 -218.34375 L 84.289062 -215.429688 L 47.898438 -215.429688 L 47.898438 -218.34375 L 50.816406 -218.34375 L 50.816406 -215.542969 L 47.898438 -215.542969 L 47.898438 -218.460938 C 49.976562 -218.460938 52.234375 -216.628906 54.679688 -212.964844 C 56.871094 -209.675781 57.96875 -202.550781 57.96875 -191.59375 L 57.96875 -39.089844 L 57.496094 -32.148438 C 57.175781 -27.464844 56.332031 -21.640625 54.957031 -14.675781 C 53.5625 -7.59375 51.207031 -0.574219 47.886719 6.386719 C 44.476562 13.535156 39.691406 19.535156 33.527344 24.375 C 27.191406 29.351562 19.125 31.84375 9.332031 31.84375 L 9.332031 28.925781 L 12.246094 28.925781 L 12.246094 31.726562 L 9.332031 31.726562 L 9.332031 28.808594 C 12.902344 28.808594 17.40625 28.355469 22.847656 27.449219 C 28.199219 26.558594 33.867188 24.765625 39.859375 22.066406 C 45.773438 19.40625 51.355469 15.550781 56.609375 10.496094 C 61.804688 5.492188 66.039062 -1.015625 69.304688 -9.03125 C 72.582031 -17.078125 74.21875 -27.128906 74.21875 -39.191406 Z M 74.21875 -191.59375 "/></g></g></g><g fill="#ffffff" fill-opacity="1"><g transform="translate(708.31226, 234.075298)"><g><path d="M 10.246094 -80.113281 C 6.203125 -95.222656 5.246094 -110.179688 7.378906 -124.984375 C 9.503906 -139.761719 14.238281 -153.535156 21.578125 -166.300781 C 28.917969 -179.070312 38.441406 -190.03125 50.144531 -199.179688 C 61.863281 -208.339844 75.273438 -214.941406 90.378906 -218.984375 C 105.484375 -223.027344 120.441406 -223.984375 135.246094 -221.851562 C 150.027344 -219.726562 163.800781 -214.992188 176.5625 -207.652344 C 189.335938 -200.308594 200.292969 -190.789062 209.445312 -179.082031 C 218.605469 -167.367188 225.207031 -153.957031 229.246094 -138.851562 C 233.289062 -123.742188 234.246094 -108.839844 232.117188 -94.136719 C 229.988281 -79.460938 225.257812 -65.742188 217.917969 -52.976562 C 210.578125 -40.210938 201.058594 -29.203125 189.359375 -19.953125 C 177.640625 -10.683594 164.226562 -4.027344 149.117188 0.015625 C 134.007812 4.0625 119.101562 5.015625 104.398438 2.886719 C 89.722656 0.757812 76.003906 -3.972656 63.242188 -11.3125 C 50.476562 -18.652344 39.46875 -28.171875 30.214844 -39.871094 C 20.945312 -51.589844 14.289062 -65.003906 10.246094 -80.113281 Z M 15.878906 -81.621094 C 19.714844 -67.289062 26.019531 -54.578125 34.789062 -43.488281 C 43.578125 -32.375 54.03125 -23.335938 66.148438 -16.367188 C 78.265625 -9.398438 91.296875 -4.90625 105.234375 -2.886719 C 119.148438 -0.871094 133.273438 -1.78125 147.609375 -5.617188 C 161.941406 -9.453125 174.652344 -15.753906 185.742188 -24.527344 C 196.855469 -33.3125 205.894531 -43.765625 212.863281 -55.882812 C 219.828125 -68.003906 224.324219 -81.03125 226.34375 -94.972656 C 228.359375 -108.882812 227.449219 -123.007812 223.613281 -137.34375 C 219.777344 -151.683594 213.523438 -164.398438 204.851562 -175.492188 C 196.167969 -186.597656 185.769531 -195.632812 173.65625 -202.597656 C 161.539062 -209.566406 148.460938 -214.058594 134.417969 -216.078125 C 120.398438 -218.097656 106.222656 -217.1875 91.886719 -213.351562 C 77.546875 -209.511719 64.832031 -203.257812 53.738281 -194.585938 C 42.632812 -185.902344 33.597656 -175.503906 26.632812 -163.394531 C 19.664062 -151.273438 15.171875 -138.195312 13.148438 -124.152344 C 11.132812 -110.136719 12.042969 -95.960938 15.878906 -81.621094 Z M 201.523438 -131.46875 C 198.488281 -143.40625 193.527344 -154.84375 186.640625 -165.78125 C 179.757812 -176.714844 171.40625 -186.226562 161.589844 -194.324219 C 151.855469 -202.351562 141.171875 -207.972656 129.546875 -211.179688 C 118.023438 -214.359375 105.777344 -214.25 92.804688 -210.859375 C 79.847656 -207.46875 69.152344 -201.457031 60.714844 -192.824219 C 52.1875 -184.09375 45.714844 -173.859375 41.296875 -162.109375 C 36.847656 -150.28125 34.421875 -137.890625 34.019531 -124.945312 C 33.613281 -111.945312 34.929688 -99.464844 37.972656 -87.496094 C 41.203125 -75.785156 46.269531 -64.449219 53.164062 -53.496094 C 60.050781 -42.558594 68.351562 -33.042969 78.070312 -24.945312 C 87.703125 -16.917969 98.4375 -11.25 110.269531 -7.941406 C 121.976562 -4.664062 134.203125 -4.820312 146.949219 -8.40625 C 159.933594 -11.800781 170.59375 -17.8125 178.921875 -26.441406 C 187.351562 -35.171875 193.777344 -45.414062 198.195312 -57.167969 C 202.648438 -69.003906 205.125 -81.398438 205.632812 -94.355469 C 206.140625 -107.324219 204.773438 -119.675781 201.535156 -131.414062 Z M 207.160156 -132.964844 C 210.558594 -120.644531 211.992188 -107.699219 211.460938 -94.128906 C 210.929688 -80.542969 208.328125 -67.539062 203.65625 -55.113281 C 198.953125 -42.609375 192.105469 -31.699219 183.117188 -22.390625 C 174.03125 -12.976562 162.5 -6.445312 148.53125 -2.792969 C 134.734375 1.089844 121.457031 1.246094 108.699219 -2.324219 C 96.0625 -5.855469 84.609375 -11.90625 74.335938 -20.464844 C 64.144531 -28.957031 55.445312 -38.929688 48.230469 -50.386719 C 41.027344 -61.828125 35.722656 -73.71875 32.320312 -86.058594 C 29.144531 -98.558594 27.765625 -111.582031 28.1875 -125.125 C 28.613281 -138.71875 31.164062 -151.730469 35.839844 -164.164062 C 40.542969 -176.675781 47.445312 -187.585938 56.542969 -196.898438 C 65.734375 -206.304688 77.328125 -212.839844 91.328125 -216.5 C 105.3125 -220.15625 118.566406 -220.257812 131.097656 -216.800781 C 143.523438 -213.371094 154.925781 -207.378906 165.300781 -198.820312 C 175.601562 -190.328125 184.359375 -180.351562 191.574219 -168.886719 C 198.789062 -157.433594 203.988281 -145.4375 207.171875 -132.90625 Z M 207.160156 -132.964844 "/></g></g></g><g fill="#ffffff" fill-opacity="1"><g transform="translate(932.565592, 234.075298)"><g><path d="M 188.289062 -167.644531 L 188.289062 -30.792969 L 185.375 -30.792969 L 187.664062 -32.597656 L 215.644531 2.914062 L 179.917969 2.914062 L 30.367188 -186.992188 L 32.660156 -188.796875 L 35.574219 -188.796875 L 35.574219 -51.007812 C 35.574219 -36.796875 36.929688 -25.425781 39.636719 -16.902344 C 40.972656 -12.695312 42.222656 -9.582031 43.386719 -7.558594 C 43.871094 -6.71875 44.304688 -6.125 44.683594 -5.777344 C 44.769531 -5.703125 44.824219 -5.65625 44.847656 -5.644531 C 44.75 -5.691406 44.625 -5.714844 44.476562 -5.714844 L 47.394531 -5.714844 L 47.394531 2.914062 L 15.125 2.914062 L 15.125 -5.714844 L 18.039062 -5.714844 C 17.890625 -5.714844 17.765625 -5.691406 17.667969 -5.644531 C 17.695312 -5.65625 17.75 -5.703125 17.832031 -5.777344 C 18.210938 -6.125 18.644531 -6.71875 19.128906 -7.558594 C 20.292969 -9.582031 21.546875 -12.695312 22.882812 -16.902344 C 25.589844 -25.425781 26.941406 -36.796875 26.941406 -51.007812 L 26.941406 -192.21875 L 29.859375 -192.21875 L 27.566406 -190.414062 L 3.332031 -221.261719 L 39.050781 -221.261719 L 184.867188 -36.015625 L 182.574219 -34.214844 L 179.660156 -34.214844 L 179.660156 -167.644531 C 179.660156 -181.855469 178.304688 -193.171875 175.601562 -201.589844 C 174.265625 -205.742188 173.015625 -208.816406 171.851562 -210.808594 C 171.371094 -211.636719 170.941406 -212.222656 170.5625 -212.5625 C 170.476562 -212.640625 170.421875 -212.683594 170.394531 -212.695312 C 170.492188 -212.652344 170.613281 -212.628906 170.757812 -212.628906 L 167.839844 -212.628906 L 167.839844 -221.261719 L 200.109375 -221.261719 L 200.109375 -212.628906 L 197.195312 -212.628906 C 197.339844 -212.628906 197.457031 -212.652344 197.554688 -212.695312 C 197.527344 -212.683594 197.472656 -212.640625 197.390625 -212.5625 C 197.011719 -212.222656 196.578125 -211.636719 196.097656 -210.808594 C 194.933594 -208.816406 193.683594 -205.742188 192.351562 -201.589844 C 189.644531 -193.171875 188.289062 -181.855469 188.289062 -167.644531 Z M 182.457031 -167.644531 C 182.457031 -182.464844 183.90625 -194.375 186.796875 -203.375 C 188.261719 -207.929688 189.683594 -211.386719 191.058594 -213.75 C 192.890625 -216.890625 194.9375 -218.460938 197.195312 -218.460938 L 197.195312 -215.542969 L 194.277344 -215.542969 L 194.277344 -218.34375 L 197.195312 -218.34375 L 197.195312 -215.429688 L 170.757812 -215.429688 L 170.757812 -218.34375 L 173.671875 -218.34375 L 173.671875 -215.542969 L 170.757812 -215.542969 L 170.757812 -218.460938 C 173.011719 -218.460938 175.058594 -216.890625 176.890625 -213.75 C 178.269531 -211.386719 179.6875 -207.929688 181.152344 -203.375 C 184.046875 -194.375 185.492188 -182.464844 185.492188 -167.644531 L 185.492188 -25.792969 L 35.34375 -216.539062 L 37.636719 -218.34375 L 37.636719 -215.429688 L 9.332031 -215.429688 L 9.332031 -218.34375 L 11.625 -220.144531 L 32.773438 -193.226562 L 32.773438 -51.007812 C 32.773438 -36.191406 31.328125 -24.234375 28.4375 -15.136719 C 26.976562 -10.527344 25.558594 -7.03125 24.183594 -4.648438 C 22.351562 -1.472656 20.304688 0.117188 18.039062 0.117188 L 18.039062 -2.800781 L 20.957031 -2.800781 L 20.957031 0 L 18.039062 0 L 18.039062 -2.914062 L 44.476562 -2.914062 L 44.476562 0 L 41.5625 0 L 41.5625 -2.800781 L 44.476562 -2.800781 L 44.476562 0.117188 C 42.214844 0.117188 40.167969 -1.472656 38.335938 -4.648438 C 36.960938 -7.03125 35.542969 -10.527344 34.078125 -15.136719 C 31.1875 -24.234375 29.742188 -36.191406 29.742188 -51.007812 L 29.742188 -197.210938 L 183.621094 -1.804688 L 181.332031 0 L 181.332031 -2.914062 L 209.636719 -2.914062 L 209.636719 0 L 207.34375 1.804688 L 182.457031 -29.78125 Z M 182.457031 -167.644531 "/></g></g></g><g fill="#ffffff" fill-opacity="1"><g transform="translate(1131.625475, 234.075298)"><g><path d="M 193.34375 -71.226562 C 193.34375 -79.652344 191.855469 -85.667969 188.878906 -89.277344 C 185.867188 -92.929688 182.179688 -95.300781 177.824219 -96.390625 C 173.082031 -97.578125 168.132812 -98.167969 162.980469 -98.167969 L 140.160156 -98.167969 L 140.160156 -106.800781 L 228.414062 -106.800781 L 228.414062 -98.167969 L 225.496094 -98.167969 C 224.96875 -98.167969 224.515625 -97.367188 224.136719 -95.757812 C 223.453125 -92.816406 223.011719 -89.3125 222.8125 -85.234375 C 222.59375 -80.792969 222.050781 -76.820312 221.171875 -73.316406 L 218.34375 -74.027344 L 221.191406 -73.394531 C 217.347656 -56.097656 210.226562 -41.664062 199.828125 -30.085938 C 189.472656 -18.558594 177.191406 -9.90625 162.988281 -4.140625 C 148.828125 1.609375 133.929688 4.324219 118.289062 4.003906 C 102.671875 3.683594 87.59375 0.445312 73.042969 -5.710938 C 58.441406 -11.894531 45.601562 -21.160156 34.53125 -33.511719 C 23.4375 -45.886719 15.445312 -61.320312 10.554688 -79.8125 C 6.515625 -94.914062 5.558594 -109.867188 7.6875 -124.671875 C 9.816406 -139.457031 14.550781 -153.179688 21.894531 -165.84375 C 29.234375 -178.5 38.75 -189.453125 50.445312 -198.703125 C 62.164062 -207.972656 75.578125 -214.628906 90.691406 -218.671875 C 105.15625 -222.714844 119.53125 -223.777344 133.820312 -221.855469 C 148.066406 -219.941406 161.40625 -215.636719 173.847656 -208.9375 C 186.304688 -202.230469 197.109375 -193.445312 206.265625 -182.589844 L 207.253906 -181.417969 L 198.800781 -150.421875 L 191.953125 -150.421875 L 191.152344 -152.058594 C 186.488281 -161.589844 180.707031 -170.464844 173.808594 -178.679688 C 166.929688 -186.875 159.242188 -193.90625 150.75 -199.769531 C 142.359375 -205.5625 133.273438 -209.507812 123.492188 -211.605469 C 113.78125 -213.6875 103.550781 -213.332031 92.796875 -210.546875 C 80.054688 -207.160156 69.464844 -201.148438 61.027344 -192.511719 C 52.5 -183.785156 46.027344 -173.546875 41.609375 -161.796875 C 37.15625 -149.960938 34.679688 -137.566406 34.171875 -124.609375 C 33.664062 -111.621094 34.933594 -99.144531 37.972656 -87.183594 C 42.015625 -72.433594 47.96875 -59.765625 55.839844 -49.171875 C 63.703125 -38.585938 72.765625 -30.121094 83.023438 -23.785156 C 93.289062 -17.445312 104.050781 -13.21875 115.308594 -11.109375 C 126.5625 -8.996094 137.613281 -8.945312 148.453125 -10.953125 L 148.984375 -8.085938 L 148.371094 -10.9375 C 158.546875 -13.132812 166.632812 -16.390625 172.628906 -20.714844 C 178.574219 -25.007812 182.996094 -29.953125 185.894531 -35.554688 C 188.863281 -41.289062 190.839844 -47.21875 191.828125 -53.339844 C 192.839844 -59.613281 193.34375 -65.574219 193.34375 -71.226562 Z M 199.175781 -71.226562 C 199.175781 -65.265625 198.644531 -58.992188 197.585938 -52.410156 C 196.5 -45.675781 194.328125 -39.164062 191.074219 -32.875 C 187.75 -26.449219 182.738281 -20.820312 176.039062 -15.984375 C 169.386719 -11.1875 160.570312 -7.601562 149.597656 -5.238281 L 149.558594 -5.226562 L 149.515625 -5.21875 C 137.960938 -3.082031 126.199219 -3.132812 114.234375 -5.375 C 102.265625 -7.621094 90.839844 -12.101562 79.957031 -18.824219 C 69.066406 -25.550781 59.464844 -34.507812 51.15625 -45.695312 C 42.851562 -56.871094 36.574219 -70.222656 32.320312 -85.75 C 29.140625 -98.253906 27.816406 -111.285156 28.34375 -124.835938 C 28.875 -138.421875 31.476562 -151.425781 36.148438 -163.851562 C 40.855469 -176.363281 47.757812 -187.277344 56.855469 -196.589844 C 66.042969 -205.992188 77.535156 -212.523438 91.332031 -216.191406 C 102.976562 -219.207031 114.101562 -219.582031 124.710938 -217.308594 C 135.25 -215.050781 145.035156 -210.804688 154.0625 -204.570312 C 162.988281 -198.40625 171.058594 -191.027344 178.277344 -182.429688 C 185.480469 -173.847656 191.519531 -164.578125 196.390625 -154.621094 L 193.773438 -153.339844 L 193.773438 -156.253906 L 196.570312 -156.253906 L 196.570312 -153.339844 L 193.757812 -154.105469 L 201.222656 -181.476562 L 204.035156 -180.710938 L 201.808594 -178.828125 C 193.128906 -189.121094 182.890625 -197.445312 171.085938 -203.800781 C 159.265625 -210.164062 146.585938 -214.257812 133.042969 -216.078125 C 119.546875 -217.890625 105.933594 -216.875 92.195312 -213.039062 C 77.863281 -209.203125 65.152344 -202.898438 54.0625 -194.128906 C 42.949219 -185.339844 33.90625 -174.933594 26.9375 -162.917969 C 19.972656 -150.90625 15.480469 -137.878906 13.460938 -123.84375 C 11.445312 -109.824219 12.355469 -95.644531 16.195312 -81.300781 C 20.84375 -63.714844 28.402344 -49.082031 38.871094 -37.402344 C 49.367188 -25.699219 61.515625 -16.925781 75.316406 -11.082031 C 89.175781 -5.214844 103.539062 -2.128906 118.40625 -1.828125 C 133.246094 -1.523438 147.375 -4.097656 160.796875 -9.542969 C 174.167969 -14.972656 185.734375 -23.121094 195.492188 -33.984375 C 205.207031 -44.800781 211.875 -58.359375 215.496094 -74.65625 L 215.507812 -74.695312 L 215.515625 -74.734375 C 216.296875 -77.863281 216.789062 -81.460938 216.988281 -85.519531 C 217.203125 -89.945312 217.695312 -93.800781 218.460938 -97.082031 C 219.535156 -101.695312 221.882812 -104 225.496094 -104 L 225.496094 -101.085938 L 222.582031 -101.085938 L 222.582031 -103.882812 L 225.496094 -103.882812 L 225.496094 -100.96875 L 143.074219 -100.96875 L 143.074219 -103.882812 L 145.992188 -103.882812 L 145.992188 -101.085938 L 143.074219 -101.085938 L 143.074219 -104 L 162.980469 -104 C 168.609375 -104 174.03125 -103.351562 179.238281 -102.046875 C 184.835938 -100.648438 189.550781 -97.628906 193.378906 -92.988281 C 197.242188 -88.300781 199.175781 -81.046875 199.175781 -71.226562 Z M 199.175781 -71.226562 "/></g></g></g><g fill="#ffffff" fill-opacity="1"><g transform="translate(1.027854, 234.075298)"><g><path d="M 223.625 -218.34375 L 253.171875 -218.34375 L 253.171875 -215.546875 C 252.347656 -215.546875 250.953125 -214.144531 248.984375 -211.34375 C 247.015625 -208.539062 246.03125 -201.957031 246.03125 -191.59375 L 246.03125 -26.75 C 246.03125 -16.59375 247.015625 -10.0625 248.984375 -7.15625 C 250.953125 -4.25 252.347656 -2.796875 253.171875 -2.796875 L 253.171875 0 L 216.484375 0 L 216.484375 -2.796875 C 217.515625 -2.796875 218.960938 -4.25 220.828125 -7.15625 C 222.691406 -10.0625 223.625 -16.59375 223.625 -26.75 L 223.625 -211.8125 L 130.328125 -18.34375 L 139.03125 0 L 114.453125 0 L 23.953125 -188.171875 L 23.953125 -51.015625 C 23.953125 -36.492188 25.347656 -24.828125 28.140625 -16.015625 C 30.941406 -7.203125 33.484375 -2.796875 35.765625 -2.796875 L 35.765625 0 L 9.328125 0 L 9.328125 -2.796875 C 11.609375 -2.796875 14.148438 -7.203125 16.953125 -16.015625 C 19.753906 -24.828125 21.15625 -36.492188 21.15625 -51.015625 L 21.15625 -193.765625 L 9.328125 -218.34375 L 33.90625 -218.34375 L 128.765625 -21.46875 Z M 223.625 -218.34375 "/></g></g></g><g fill="#ffffff" fill-opacity="1"><g transform="translate(263.538063, 234.075298)"><g><path d="M 145.5625 -33.28125 L 143.078125 -40.75 C 139.960938 -49.875 135.550781 -58.582031 129.84375 -66.875 C 124.144531 -75.164062 117.253906 -82.109375 109.171875 -87.703125 C 101.085938 -93.304688 91.960938 -96.625 81.796875 -97.65625 C 76.203125 -98.070312 70.191406 -97.347656 63.765625 -95.484375 C 57.335938 -93.617188 52.984375 -89.679688 50.703125 -83.671875 L 35.453125 -38.25 C 27.160156 -14.613281 27.265625 -2.796875 35.765625 -2.796875 L 35.765625 0 L 9.328125 0 L 9.328125 -2.796875 C 11.609375 -2.796875 14.875 -5.382812 19.125 -10.5625 C 23.375 -15.75 27.882812 -25.289062 32.65625 -39.1875 L 88.015625 -201.234375 L 82.109375 -218.34375 L 105.75 -218.34375 L 165.15625 -45.09375 C 169.300781 -33.488281 173.1875 -23.535156 176.8125 -15.234375 C 180.445312 -6.941406 183.40625 -2.796875 185.6875 -2.796875 L 185.6875 0 L 149.296875 0 L 149.296875 -2.796875 C 150.328125 -2.796875 150.6875 -5.695312 150.375 -11.5 C 150.070312 -17.3125 148.46875 -24.570312 145.5625 -33.28125 Z M 89.578125 -196.890625 L 54.125 -93 C 57.644531 -96.3125 61.992188 -98.4375 67.171875 -99.375 C 72.359375 -100.3125 77.234375 -100.570312 81.796875 -100.15625 C 93.410156 -99.113281 103.78125 -95.171875 112.90625 -88.328125 C 122.03125 -81.484375 129.492188 -73.296875 135.296875 -63.765625 Z M 89.578125 -196.890625 "/></g></g></g><g fill="#ffffff" fill-opacity="1"><g transform="translate(458.554489, 234.075298)"><g><path d="M 170.140625 -218.34375 L 170.140625 -215.546875 C 169.304688 -215.546875 167.90625 -214.144531 165.9375 -211.34375 C 163.96875 -208.539062 162.984375 -201.957031 162.984375 -191.59375 L 162.984375 -26.75 C 162.984375 -16.59375 163.96875 -10.0625 165.9375 -7.15625 C 167.90625 -4.25 169.304688 -2.796875 170.140625 -2.796875 L 170.140625 0 L 133.4375 0 L 133.4375 -2.796875 C 134.46875 -2.796875 135.914062 -4.25 137.78125 -7.15625 C 139.65625 -10.0625 140.59375 -16.59375 140.59375 -26.75 L 140.59375 -128.140625 L 38.5625 -128.140625 L 38.5625 -26.75 C 38.5625 -16.59375 39.546875 -10.0625 41.515625 -7.15625 C 43.492188 -4.25 44.894531 -2.796875 45.71875 -2.796875 L 45.71875 0 L 9.328125 0 L 9.328125 -2.796875 C 10.367188 -2.796875 11.820312 -4.25 13.6875 -7.15625 C 15.550781 -10.0625 16.484375 -16.59375 16.484375 -26.75 L 16.484375 -191.59375 C 16.484375 -201.957031 15.550781 -208.539062 13.6875 -211.34375 C 11.820312 -214.144531 10.367188 -215.546875 9.328125 -215.546875 L 9.328125 -218.34375 L 45.71875 -218.34375 L 45.71875 -215.546875 C 44.894531 -215.546875 43.492188 -214.144531 41.515625 -211.34375 C 39.546875 -208.539062 38.5625 -201.957031 38.5625 -191.59375 L 38.5625 -130.9375 L 140.59375 -130.9375 L 140.59375 -191.59375 C 140.59375 -201.957031 139.65625 -208.539062 137.78125 -211.34375 C 135.914062 -214.144531 134.46875 -215.546875 133.4375 -215.546875 L 133.4375 -218.34375 Z M 170.140625 -218.34375 "/></g></g></g><g fill="#ffffff" fill-opacity="1"><g transform="translate(614.692019, 234.075298)"><g><path d="M 77.140625 -191.59375 L 77.140625 -39.1875 C 77.140625 -26.75 75.425781 -16.328125 72 -7.921875 C 68.582031 0.472656 64.125 7.3125 58.625 12.59375 C 53.132812 17.882812 47.273438 21.925781 41.046875 24.71875 C 34.828125 27.519531 28.914062 29.382812 23.3125 30.3125 C 17.71875 31.25 13.054688 31.71875 9.328125 31.71875 L 9.328125 28.921875 C 18.453125 28.921875 25.914062 26.640625 31.71875 22.078125 C 37.53125 17.515625 42.039062 11.863281 45.25 5.125 C 48.46875 -1.601562 50.75 -8.390625 52.09375 -15.234375 C 53.445312 -22.078125 54.273438 -27.78125 54.578125 -32.34375 C 54.890625 -36.90625 55.046875 -39.1875 55.046875 -39.1875 L 55.046875 -191.59375 C 55.046875 -201.957031 54.113281 -208.539062 52.25 -211.34375 C 50.382812 -214.144531 48.9375 -215.546875 47.90625 -215.546875 L 47.90625 -218.34375 L 84.296875 -218.34375 L 84.296875 -215.546875 C 83.460938 -215.546875 82.0625 -214.144531 80.09375 -211.34375 C 78.125 -208.539062 77.140625 -201.957031 77.140625 -191.59375 Z M 77.140625 -191.59375 "/></g></g></g><g fill="#ffffff" fill-opacity="1"><g transform="translate(708.31226, 234.075298)"><g><path d="M 13.0625 -80.875 C 9.125 -95.59375 8.191406 -110.15625 10.265625 -124.5625 C 12.335938 -138.976562 16.945312 -152.40625 24.09375 -164.84375 C 31.25 -177.289062 40.53125 -187.96875 51.9375 -196.875 C 63.34375 -205.789062 76.40625 -212.222656 91.125 -216.171875 C 105.851562 -220.109375 120.421875 -221.039062 134.828125 -218.96875 C 149.242188 -216.894531 162.671875 -212.28125 175.109375 -205.125 C 187.546875 -197.96875 198.222656 -188.6875 207.140625 -177.28125 C 216.054688 -165.882812 222.488281 -152.820312 226.4375 -138.09375 C 230.375 -123.375 231.304688 -108.859375 229.234375 -94.546875 C 227.160156 -80.242188 222.546875 -66.867188 215.390625 -54.421875 C 208.234375 -41.984375 198.953125 -31.253906 187.546875 -22.234375 C 176.140625 -13.210938 163.078125 -6.734375 148.359375 -2.796875 C 133.640625 1.136719 119.125 2.070312 104.8125 0 C 90.507812 -2.070312 77.132812 -6.6875 64.6875 -13.84375 C 52.25 -21 41.519531 -30.273438 32.5 -41.671875 C 23.476562 -53.078125 17 -66.144531 13.0625 -80.875 Z M 204.34375 -132.1875 C 201.238281 -144.425781 196.160156 -156.140625 189.109375 -167.328125 C 182.054688 -178.523438 173.5 -188.269531 163.4375 -196.5625 C 153.382812 -204.863281 142.34375 -210.671875 130.3125 -213.984375 C 118.289062 -217.304688 105.539062 -217.203125 92.0625 -213.671875 C 78.582031 -210.148438 67.4375 -203.878906 58.625 -194.859375 C 49.8125 -185.835938 43.125 -175.257812 38.5625 -163.125 C 34 -151 31.507812 -138.300781 31.09375 -125.03125 C 30.6875 -111.757812 32.035156 -99.007812 35.140625 -86.78125 C 38.460938 -74.75 43.644531 -63.132812 50.6875 -51.9375 C 57.738281 -40.738281 66.238281 -30.992188 76.1875 -22.703125 C 86.144531 -14.410156 97.238281 -8.550781 109.46875 -5.125 C 121.707031 -1.707031 134.460938 -1.863281 147.734375 -5.59375 C 161.210938 -9.125 172.304688 -15.398438 181.015625 -24.421875 C 189.722656 -33.441406 196.359375 -44.015625 200.921875 -56.140625 C 205.484375 -68.273438 208.023438 -80.976562 208.546875 -94.25 C 209.066406 -107.519531 207.664062 -120.164062 204.34375 -132.1875 Z M 204.34375 -132.1875 "/></g></g></g><g fill="#ffffff" fill-opacity="1"><g transform="translate(932.565592, 234.075298)"><g><path d="M 185.375 -167.640625 L 185.375 -30.796875 L 209.640625 0 L 181.328125 0 L 32.65625 -188.796875 L 32.65625 -51.015625 C 32.65625 -36.492188 34.054688 -24.828125 36.859375 -16.015625 C 39.660156 -7.203125 42.203125 -2.796875 44.484375 -2.796875 L 44.484375 0 L 18.046875 0 L 18.046875 -2.796875 C 20.328125 -2.796875 22.863281 -7.203125 25.65625 -16.015625 C 28.457031 -24.828125 29.859375 -36.492188 29.859375 -51.015625 L 29.859375 -192.21875 L 9.328125 -218.34375 L 37.640625 -218.34375 L 182.578125 -34.21875 L 182.578125 -167.640625 C 182.578125 -182.160156 181.175781 -193.773438 178.375 -202.484375 C 175.570312 -211.191406 173.03125 -215.546875 170.75 -215.546875 L 170.75 -218.34375 L 197.1875 -218.34375 L 197.1875 -215.546875 C 194.90625 -215.546875 192.363281 -211.191406 189.5625 -202.484375 C 186.769531 -193.773438 185.375 -182.160156 185.375 -167.640625 Z M 185.375 -167.640625 "/></g></g></g><g fill="#ffffff" fill-opacity="1"><g transform="translate(1131.625475, 234.075298)"><g><path d="M 196.265625 -71.21875 C 196.265625 -80.34375 194.550781 -86.976562 191.125 -91.125 C 187.707031 -95.28125 183.507812 -97.976562 178.53125 -99.21875 C 173.550781 -100.457031 168.367188 -101.078125 162.984375 -101.078125 L 143.078125 -101.078125 L 143.078125 -103.890625 L 225.5 -103.890625 L 225.5 -101.078125 C 223.425781 -101.078125 222.023438 -99.519531 221.296875 -96.40625 C 220.566406 -93.300781 220.097656 -89.625 219.890625 -85.375 C 219.691406 -81.125 219.175781 -77.34375 218.34375 -74.03125 C 214.613281 -57.226562 207.71875 -43.226562 197.65625 -32.03125 C 187.601562 -20.832031 175.679688 -12.429688 161.890625 -6.828125 C 148.097656 -1.234375 133.582031 1.40625 118.34375 1.09375 C 103.101562 0.78125 88.378906 -2.378906 74.171875 -8.390625 C 59.972656 -14.410156 47.484375 -23.429688 36.703125 -35.453125 C 25.921875 -47.484375 18.144531 -62.519531 13.375 -80.5625 C 9.4375 -95.28125 8.503906 -109.84375 10.578125 -124.25 C 12.648438 -138.664062 17.257812 -152.039062 24.40625 -164.375 C 31.5625 -176.71875 40.84375 -187.398438 52.25 -196.421875 C 63.65625 -205.441406 76.71875 -211.921875 91.4375 -215.859375 C 105.539062 -219.796875 119.535156 -220.832031 133.421875 -218.96875 C 147.316406 -217.101562 160.328125 -212.90625 172.453125 -206.375 C 184.585938 -199.84375 195.113281 -191.285156 204.03125 -180.703125 L 196.578125 -153.34375 L 193.765625 -153.34375 C 189.003906 -163.082031 183.097656 -172.148438 176.046875 -180.546875 C 168.992188 -188.953125 161.113281 -196.160156 152.40625 -202.171875 C 143.695312 -208.179688 134.257812 -212.273438 124.09375 -214.453125 C 113.9375 -216.628906 103.257812 -216.269531 92.0625 -213.375 C 78.789062 -209.84375 67.75 -203.566406 58.9375 -194.546875 C 50.125 -185.523438 43.4375 -174.945312 38.875 -162.8125 C 34.3125 -150.6875 31.769531 -137.988281 31.25 -124.71875 C 30.738281 -111.445312 32.035156 -98.695312 35.140625 -86.46875 C 39.285156 -71.332031 45.398438 -58.320312 53.484375 -47.4375 C 61.578125 -36.550781 70.910156 -27.84375 81.484375 -21.3125 C 92.066406 -14.78125 103.160156 -10.421875 114.765625 -8.234375 C 126.378906 -6.054688 137.785156 -6.007812 148.984375 -8.09375 C 159.554688 -10.375 168.003906 -13.789062 174.328125 -18.34375 C 180.648438 -22.90625 185.367188 -28.191406 188.484375 -34.203125 C 191.597656 -40.222656 193.671875 -46.445312 194.703125 -52.875 C 195.742188 -59.300781 196.265625 -65.414062 196.265625 -71.21875 Z M 196.265625 -71.21875 "/></g></g></g></g></g><g transform="matrix(1, 0, 0, 1, 76, 502)"><g clip-path="url(#116f8a0540)"><g fill="#ffffff" fill-opacity="1"><g transform="translate(0.39855, 113.905483)"><g><path d="M 34.140625 0 C 33.085938 0 32.238281 -0.335938 31.59375 -1.015625 C 30.957031 -1.691406 30.640625 -2.484375 30.640625 -3.390625 L 30.640625 -75.40625 L 37.65625 -75.40625 L 37.65625 -3.390625 C 37.65625 -2.484375 37.3125 -1.691406 36.625 -1.015625 C 35.945312 -0.335938 35.117188 0 34.140625 0 Z M 7.234375 -72.703125 C 6.328125 -72.703125 5.535156 -73.003906 4.859375 -73.609375 C 4.179688 -74.210938 3.84375 -75.003906 3.84375 -75.984375 C 3.84375 -76.878906 4.179688 -77.628906 4.859375 -78.234375 C 5.535156 -78.835938 6.328125 -79.140625 7.234375 -79.140625 L 61.046875 -79.140625 C 61.953125 -79.140625 62.742188 -78.835938 63.421875 -78.234375 C 64.109375 -77.628906 64.453125 -76.835938 64.453125 -75.859375 C 64.453125 -74.878906 64.109375 -74.109375 63.421875 -73.546875 C 62.742188 -72.984375 61.953125 -72.703125 61.046875 -72.703125 Z M 7.234375 -72.703125 "/></g></g></g><g fill="#ffffff" fill-opacity="1"><g transform="translate(68.682723, 113.905483)"><g><path d="M 14.25 -79.140625 C 15.15625 -79.140625 15.960938 -78.800781 16.671875 -78.125 C 17.390625 -77.445312 17.75 -76.617188 17.75 -75.640625 L 17.75 -3.5 C 17.675781 -2.519531 17.28125 -1.691406 16.5625 -1.015625 C 15.84375 -0.335938 15.03125 0 14.125 0 C 13.070312 0 12.222656 -0.335938 11.578125 -1.015625 C 10.941406 -1.691406 10.625 -2.519531 10.625 -3.5 L 10.625 -75.640625 C 10.625 -76.617188 10.960938 -77.445312 11.640625 -78.125 C 12.316406 -78.800781 13.1875 -79.140625 14.25 -79.140625 Z M 67.265625 -79.140625 C 68.328125 -79.140625 69.175781 -78.800781 69.8125 -78.125 C 70.457031 -77.445312 70.78125 -76.617188 70.78125 -75.640625 L 70.78125 -3.5 C 70.695312 -2.519531 70.332031 -1.691406 69.6875 -1.015625 C 69.050781 -0.335938 68.207031 0 67.15625 0 C 66.175781 0 65.347656 -0.335938 64.671875 -1.015625 C 63.992188 -1.691406 63.65625 -2.519531 63.65625 -3.5 L 63.65625 -75.640625 C 63.65625 -76.617188 64.007812 -77.445312 64.71875 -78.125 C 65.4375 -78.800781 66.285156 -79.140625 67.265625 -79.140625 Z M 13.6875 -43.75 L 67.390625 -43.75 L 67.265625 -37.203125 L 13.234375 -37.203125 Z M 13.6875 -43.75 "/></g></g></g><g fill="#ffffff" fill-opacity="1"><g transform="translate(150.081083, 113.905483)"><g><path d="M 14.015625 -79.140625 L 55.515625 -79.140625 C 56.421875 -79.140625 57.210938 -78.816406 57.890625 -78.171875 C 58.566406 -77.535156 58.90625 -76.726562 58.90625 -75.75 C 58.90625 -74.769531 58.566406 -73.976562 57.890625 -73.375 C 57.210938 -72.769531 56.421875 -72.46875 55.515625 -72.46875 L 16.625 -72.46875 L 17.75 -74.390625 L 17.75 -42.625 L 16.5 -44.09375 L 50.421875 -44.09375 C 51.328125 -44.09375 52.117188 -43.753906 52.796875 -43.078125 C 53.472656 -42.398438 53.8125 -41.609375 53.8125 -40.703125 C 53.8125 -39.722656 53.472656 -38.929688 52.796875 -38.328125 C 52.117188 -37.722656 51.328125 -37.421875 50.421875 -37.421875 L 16.734375 -37.421875 L 17.75 -38.546875 L 17.75 -6 L 17.1875 -6.671875 L 55.515625 -6.671875 C 56.421875 -6.671875 57.210938 -6.332031 57.890625 -5.65625 C 58.566406 -4.976562 58.90625 -4.1875 58.90625 -3.28125 C 58.90625 -2.300781 58.566406 -1.507812 57.890625 -0.90625 C 57.210938 -0.300781 56.421875 0 55.515625 0 L 14.015625 0 C 13.109375 0 12.316406 -0.335938 11.640625 -1.015625 C 10.960938 -1.691406 10.625 -2.484375 10.625 -3.390625 L 10.625 -75.75 C 10.625 -76.65625 10.960938 -77.445312 11.640625 -78.125 C 12.316406 -78.800781 13.109375 -79.140625 14.015625 -79.140625 Z M 14.015625 -79.140625 "/></g></g></g></g></g><g transform="matrix(1, 0, 0, 1, 1126, 855)"><g clip-path="url(#1cb5598acf)"><g fill="#ffffff" fill-opacity="1"><g transform="translate(0.608152, 113.719222)"><g><path d="M 81.171875 -39.578125 C 81.171875 -33.617188 80.25 -28.171875 78.40625 -23.234375 C 76.5625 -18.296875 73.941406 -14 70.546875 -10.34375 C 67.160156 -6.6875 63.148438 -3.859375 58.515625 -1.859375 C 53.878906 0.128906 48.804688 1.125 43.296875 1.125 C 37.796875 1.125 32.726562 0.128906 28.09375 -1.859375 C 23.457031 -3.859375 19.441406 -6.6875 16.046875 -10.34375 C 12.660156 -14 10.039062 -18.296875 8.1875 -23.234375 C 6.34375 -28.171875 5.421875 -33.617188 5.421875 -39.578125 C 5.421875 -45.523438 6.34375 -50.96875 8.1875 -55.90625 C 10.039062 -60.84375 12.660156 -65.140625 16.046875 -68.796875 C 19.441406 -72.453125 23.457031 -75.28125 28.09375 -77.28125 C 32.726562 -79.28125 37.796875 -80.28125 43.296875 -80.28125 C 48.804688 -80.28125 53.878906 -79.28125 58.515625 -77.28125 C 63.148438 -75.28125 67.160156 -72.453125 70.546875 -68.796875 C 73.941406 -65.140625 76.5625 -60.84375 78.40625 -55.90625 C 80.25 -50.96875 81.171875 -45.523438 81.171875 -39.578125 Z M 73.9375 -39.578125 C 73.9375 -46.285156 72.632812 -52.179688 70.03125 -57.265625 C 67.4375 -62.347656 63.835938 -66.320312 59.234375 -69.1875 C 54.640625 -72.050781 49.328125 -73.484375 43.296875 -73.484375 C 37.347656 -73.484375 32.054688 -72.050781 27.421875 -69.1875 C 22.785156 -66.320312 19.164062 -62.347656 16.5625 -57.265625 C 13.957031 -52.179688 12.65625 -46.285156 12.65625 -39.578125 C 12.65625 -32.867188 13.957031 -26.96875 16.5625 -21.875 C 19.164062 -16.789062 22.785156 -12.816406 27.421875 -9.953125 C 32.054688 -7.085938 37.347656 -5.65625 43.296875 -5.65625 C 49.328125 -5.65625 54.640625 -7.085938 59.234375 -9.953125 C 63.835938 -12.816406 67.4375 -16.789062 70.03125 -21.875 C 72.632812 -26.96875 73.9375 -32.867188 73.9375 -39.578125 Z M 73.9375 -39.578125 "/></g></g></g><g fill="#ffffff" fill-opacity="1"><g transform="translate(87.206936, 113.719222)"><g><path d="M 40.8125 -79.140625 C 45.03125 -79.140625 48.757812 -78.175781 52 -76.25 C 55.25 -74.332031 57.816406 -71.675781 59.703125 -68.28125 C 61.585938 -64.894531 62.53125 -61.015625 62.53125 -56.640625 C 62.53125 -52.273438 61.585938 -48.335938 59.703125 -44.828125 C 57.816406 -41.328125 55.25 -38.554688 52 -36.515625 C 48.757812 -34.484375 45.03125 -33.46875 40.8125 -33.46875 L 16.84375 -33.46875 L 17.40625 -34.59375 L 17.40625 -3.390625 C 17.40625 -2.484375 17.066406 -1.691406 16.390625 -1.015625 C 15.710938 -0.335938 14.921875 0 14.015625 0 C 12.960938 0 12.132812 -0.335938 11.53125 -1.015625 C 10.925781 -1.691406 10.625 -2.484375 10.625 -3.390625 L 10.625 -75.75 C 10.625 -76.65625 10.960938 -77.445312 11.640625 -78.125 C 12.316406 -78.800781 13.109375 -79.140625 14.015625 -79.140625 Z M 40.8125 -40.03125 C 43.75 -40.03125 46.3125 -40.765625 48.5 -42.234375 C 50.6875 -43.703125 52.398438 -45.695312 53.640625 -48.21875 C 54.890625 -50.75 55.515625 -53.554688 55.515625 -56.640625 C 55.515625 -59.734375 54.890625 -62.46875 53.640625 -64.84375 C 52.398438 -67.21875 50.6875 -69.082031 48.5 -70.4375 C 46.3125 -71.789062 43.75 -72.46875 40.8125 -72.46875 L 16.84375 -72.46875 L 17.40625 -73.484375 L 17.40625 -39.34375 L 16.734375 -40.03125 Z M 40.8125 -40.03125 "/></g></g></g><g fill="#ffffff" fill-opacity="1"><g transform="translate(154.586689, 113.719222)"><g><path d="M 14.015625 -79.140625 L 55.515625 -79.140625 C 56.421875 -79.140625 57.210938 -78.816406 57.890625 -78.171875 C 58.566406 -77.535156 58.90625 -76.726562 58.90625 -75.75 C 58.90625 -74.769531 58.566406 -73.976562 57.890625 -73.375 C 57.210938 -72.769531 56.421875 -72.46875 55.515625 -72.46875 L 16.625 -72.46875 L 17.75 -74.390625 L 17.75 -42.625 L 16.5 -44.09375 L 50.421875 -44.09375 C 51.328125 -44.09375 52.117188 -43.753906 52.796875 -43.078125 C 53.472656 -42.398438 53.8125 -41.609375 53.8125 -40.703125 C 53.8125 -39.722656 53.472656 -38.929688 52.796875 -38.328125 C 52.117188 -37.722656 51.328125 -37.421875 50.421875 -37.421875 L 16.734375 -37.421875 L 17.75 -38.546875 L 17.75 -6 L 17.1875 -6.671875 L 55.515625 -6.671875 C 56.421875 -6.671875 57.210938 -6.332031 57.890625 -5.65625 C 58.566406 -4.976562 58.90625 -4.1875 58.90625 -3.28125 C 58.90625 -2.300781 58.566406 -1.507812 57.890625 -0.90625 C 57.210938 -0.300781 56.421875 0 55.515625 0 L 14.015625 0 C 13.109375 0 12.316406 -0.335938 11.640625 -1.015625 C 10.960938 -1.691406 10.625 -2.484375 10.625 -3.390625 L 10.625 -75.75 C 10.625 -76.65625 10.960938 -77.445312 11.640625 -78.125 C 12.316406 -78.800781 13.109375 -79.140625 14.015625 -79.140625 Z M 14.015625 -79.140625 "/></g></g></g><g fill="#ffffff" fill-opacity="1"><g transform="translate(218.800947, 113.719222)"><g><path d="M 68.515625 -79.140625 C 69.492188 -79.140625 70.265625 -78.835938 70.828125 -78.234375 C 71.398438 -77.628906 71.6875 -76.878906 71.6875 -75.984375 L 71.6875 -3.625 C 71.6875 -2.488281 71.328125 -1.597656 70.609375 -0.953125 C 69.890625 -0.316406 69.078125 0 68.171875 0 C 67.722656 0 67.234375 -0.09375 66.703125 -0.28125 C 66.179688 -0.46875 65.769531 -0.75 65.46875 -1.125 L 15.03125 -69.078125 L 16.953125 -70.09375 L 16.953125 -3.046875 C 16.953125 -2.222656 16.648438 -1.507812 16.046875 -0.90625 C 15.453125 -0.300781 14.703125 0 13.796875 0 C 12.816406 0 12.039062 -0.300781 11.46875 -0.90625 C 10.90625 -1.507812 10.625 -2.222656 10.625 -3.046875 L 10.625 -75.75 C 10.625 -76.882812 10.960938 -77.734375 11.640625 -78.296875 C 12.316406 -78.859375 13.070312 -79.140625 13.90625 -79.140625 C 14.351562 -79.140625 14.84375 -79.046875 15.375 -78.859375 C 15.90625 -78.671875 16.320312 -78.351562 16.625 -77.90625 L 66.484375 -10.734375 L 65.34375 -8.703125 L 65.34375 -75.984375 C 65.34375 -76.878906 65.660156 -77.628906 66.296875 -78.234375 C 66.941406 -78.835938 67.679688 -79.140625 68.515625 -79.140625 Z M 68.515625 -79.140625 "/></g></g></g></g></g></svg>