<svg xmlns="http://www.w3.org/2000/svg" xmlns:xlink="http://www.w3.org/1999/xlink" width="1200" zoomAndPan="magnify" viewBox="0 0 900 899.99999" height="1200" preserveAspectRatio="xMidYMid meet" version="1.0"><defs><g/><clipPath id="c5b0a0fa57"><path d="M 60.046875 39.792969 L 608.179688 39.792969 L 608.179688 784 L 60.046875 784 Z M 60.046875 39.792969 " clip-rule="nonzero"/></clipPath><clipPath id="19551eb805"><path d="M 102.046875 39.792969 L 566.179688 39.792969 C 589.378906 39.792969 608.179688 58.597656 608.179688 81.792969 L 608.179688 741.949219 C 608.179688 765.144531 589.378906 783.949219 566.179688 783.949219 L 102.046875 783.949219 C 78.851562 783.949219 60.046875 765.144531 60.046875 741.949219 L 60.046875 81.792969 C 60.046875 58.597656 78.851562 39.792969 102.046875 39.792969 Z M 102.046875 39.792969 " clip-rule="nonzero"/></clipPath><clipPath id="537c95c65d"><path d="M 0.046875 0.792969 L 548.179688 0.792969 L 548.179688 745 L 0.046875 745 Z M 0.046875 0.792969 " clip-rule="nonzero"/></clipPath><clipPath id="9da466dfe6"><path d="M 42.046875 0.792969 L 506.179688 0.792969 C 529.378906 0.792969 548.179688 19.597656 548.179688 42.792969 L 548.179688 702.949219 C 548.179688 726.144531 529.378906 744.949219 506.179688 744.949219 L 42.046875 744.949219 C 18.851562 744.949219 0.046875 726.144531 0.046875 702.949219 L 0.046875 42.792969 C 0.046875 19.597656 18.851562 0.792969 42.046875 0.792969 Z M 42.046875 0.792969 " clip-rule="nonzero"/></clipPath><clipPath id="a38c581dea"><rect x="0" width="549" y="0" height="745"/></clipPath><clipPath id="55f50f4f8e"><path d="M 33.003906 24.164062 L 594.195312 24.164062 L 594.195312 769 L 33.003906 769 Z M 33.003906 24.164062 " clip-rule="nonzero"/></clipPath><clipPath id="62ae71e5e8"><path d="M 75.003906 24.164062 L 552.195312 24.164062 C 575.390625 24.164062 594.195312 42.964844 594.195312 66.164062 L 594.195312 726.316406 C 594.195312 749.515625 575.390625 768.316406 552.195312 768.316406 L 75.003906 768.316406 C 51.804688 768.316406 33.003906 749.515625 33.003906 726.316406 L 33.003906 66.164062 C 33.003906 42.964844 51.804688 24.164062 75.003906 24.164062 Z M 75.003906 24.164062 " clip-rule="nonzero"/></clipPath><clipPath id="88a5f69afc"><path d="M 0.00390625 0.164062 L 561.195312 0.164062 L 561.195312 744 L 0.00390625 744 Z M 0.00390625 0.164062 " clip-rule="nonzero"/></clipPath><clipPath id="9f680bc7ce"><path d="M 42.003906 0.164062 L 519.195312 0.164062 C 542.390625 0.164062 561.195312 18.964844 561.195312 42.164062 L 561.195312 702.316406 C 561.195312 725.515625 542.390625 744.316406 519.195312 744.316406 L 42.003906 744.316406 C 18.804688 744.316406 0.00390625 725.515625 0.00390625 702.316406 L 0.00390625 42.164062 C 0.00390625 18.964844 18.804688 0.164062 42.003906 0.164062 Z M 42.003906 0.164062 " clip-rule="nonzero"/></clipPath><clipPath id="59bd35b204"><rect x="0" width="562" y="0" height="745"/></clipPath><clipPath id="b6ed81176c"><path d="M 33.003906 24.164062 L 593.847656 24.164062 L 593.847656 767.972656 L 33.003906 767.972656 Z M 33.003906 24.164062 " clip-rule="nonzero"/></clipPath><clipPath id="c4d26bca3e"><path d="M 75.003906 24.164062 L 552.191406 24.164062 C 575.386719 24.164062 594.191406 42.96875 594.191406 66.164062 L 594.191406 726.316406 C 594.191406 749.511719 575.386719 768.316406 552.191406 768.316406 L 75.003906 768.316406 C 51.804688 768.316406 33.003906 749.511719 33.003906 726.316406 L 33.003906 66.164062 C 33.003906 42.96875 51.804688 24.164062 75.003906 24.164062 Z M 75.003906 24.164062 " clip-rule="nonzero"/></clipPath><clipPath id="fcf03c6759"><path d="M 9.820312 10.050781 L 575.957031 10.050781 L 575.957031 755 L 9.820312 755 Z M 9.820312 10.050781 " clip-rule="nonzero"/></clipPath><clipPath id="fdda645882"><path d="M 51.820312 10.050781 L 533.957031 10.050781 C 557.152344 10.050781 575.957031 28.855469 575.957031 52.050781 L 575.957031 712.207031 C 575.957031 735.402344 557.152344 754.207031 533.957031 754.207031 L 51.820312 754.207031 C 28.621094 754.207031 9.820312 735.402344 9.820312 712.207031 L 9.820312 52.050781 C 9.820312 28.855469 28.621094 10.050781 51.820312 10.050781 Z M 51.820312 10.050781 " clip-rule="nonzero"/></clipPath><clipPath id="e33fd3e27e"><path d="M 0.820312 0.0507812 L 566.957031 0.0507812 L 566.957031 744 L 0.820312 744 Z M 0.820312 0.0507812 " clip-rule="nonzero"/></clipPath><clipPath id="c8ef825c04"><path d="M 42.820312 0.0507812 L 524.957031 0.0507812 C 548.152344 0.0507812 566.957031 18.855469 566.957031 42.050781 L 566.957031 702.207031 C 566.957031 725.402344 548.152344 744.207031 524.957031 744.207031 L 42.820312 744.207031 C 19.621094 744.207031 0.820312 725.402344 0.820312 702.207031 L 0.820312 42.050781 C 0.820312 18.855469 19.621094 0.0507812 42.820312 0.0507812 Z M 42.820312 0.0507812 " clip-rule="nonzero"/></clipPath><clipPath id="e57cff25be"><rect x="0" width="567" y="0" height="745"/></clipPath><clipPath id="ac767fb27a"><path d="M 9.820312 10.054688 L 576 10.054688 L 576 753.863281 L 9.820312 753.863281 Z M 9.820312 10.054688 " clip-rule="nonzero"/></clipPath><clipPath id="e7dacb2b19"><path d="M 51.816406 10.054688 L 533.949219 10.054688 C 557.148438 10.054688 575.949219 28.859375 575.949219 52.054688 L 575.949219 712.203125 C 575.949219 735.398438 557.148438 754.203125 533.949219 754.203125 L 51.816406 754.203125 C 28.621094 754.203125 9.820312 735.398438 9.820312 712.203125 L 9.820312 52.054688 C 9.820312 28.859375 28.621094 10.054688 51.816406 10.054688 Z M 51.816406 10.054688 " clip-rule="nonzero"/></clipPath><clipPath id="124727f2af"><rect x="0" width="284" y="0" height="337"/></clipPath><clipPath id="f8650d516b"><rect x="0" width="273" y="0" height="338"/></clipPath><clipPath id="868b716e3e"><rect x="0" width="385" y="0" height="54"/></clipPath><clipPath id="3f115331c5"><rect x="0" width="165" y="0" height="53"/></clipPath><clipPath id="6f6593e754"><rect x="0" width="611" y="0" height="786"/></clipPath></defs><g transform="matrix(1, 0, 0, 1, 141, 53)"><g clip-path="url(#6f6593e754)"><path stroke-linecap="butt" transform="matrix(0.626932, 0.672523, -0.672523, 0.626932, 379.173201, 289.769572)" fill="none" stroke-linejoin="miter" d="M 2.064353 30.509294 C 60.750263 -4.835849 119.437736 -4.835699 178.126771 30.509746 " stroke="#283c54" stroke-width="8" stroke-opacity="1" stroke-miterlimit="4"/><g clip-path="url(#c5b0a0fa57)"><g clip-path="url(#19551eb805)"><g transform="matrix(1, 0, 0, 1, 60, 39)"><g clip-path="url(#a38c581dea)"><g clip-path="url(#537c95c65d)"><g clip-path="url(#9da466dfe6)"><path fill="#8ab49c" d="M 0.046875 0.792969 L 548.179688 0.792969 L 548.179688 745.914062 L 0.046875 745.914062 Z M 0.046875 0.792969 " fill-opacity="1" fill-rule="nonzero"/></g></g></g></g></g></g><g clip-path="url(#55f50f4f8e)"><g clip-path="url(#62ae71e5e8)"><g transform="matrix(1, 0, 0, 1, 33, 24)"><g clip-path="url(#59bd35b204)"><g clip-path="url(#88a5f69afc)"><g clip-path="url(#9f680bc7ce)"><path fill="#283c54" d="M 0.00390625 0.164062 L 561.195312 0.164062 L 561.195312 743.304688 L 0.00390625 743.304688 Z M 0.00390625 0.164062 " fill-opacity="1" fill-rule="nonzero"/></g></g></g></g></g></g><g clip-path="url(#b6ed81176c)"><g clip-path="url(#c4d26bca3e)"><path stroke-linecap="butt" transform="matrix(0.919419, 0, 0, 0.919419, 33.002237, 24.162513)" fill="none" stroke-linejoin="miter" d="M 45.682851 0.00168487 L 564.692832 0.00168487 C 589.921067 0.00168487 610.373867 20.454485 610.373867 45.68272 L 610.373867 763.693261 C 610.373867 788.921497 589.921067 809.374297 564.692832 809.374297 L 45.682851 809.374297 C 20.450367 809.374297 0.00181575 788.921497 0.00181575 763.693261 L 0.00181575 45.68272 C 0.00181575 20.454485 20.450367 0.00168487 45.682851 0.00168487 Z M 45.682851 0.00168487 " stroke="#ffffff" stroke-width="6.525862" stroke-opacity="1" stroke-miterlimit="4"/></g></g><g clip-path="url(#fcf03c6759)"><g clip-path="url(#fdda645882)"><g transform="matrix(1, 0, 0, 1, 9, 10)"><g clip-path="url(#e57cff25be)"><g clip-path="url(#e33fd3e27e)"><g clip-path="url(#c8ef825c04)"><path fill="#d64466" d="M 0.820312 0.0507812 L 566.957031 0.0507812 L 566.957031 743.109375 L 0.820312 743.109375 Z M 0.820312 0.0507812 " fill-opacity="1" fill-rule="nonzero"/></g></g></g></g></g></g><g clip-path="url(#ac767fb27a)"><g clip-path="url(#e7dacb2b19)"><path stroke-linecap="butt" transform="matrix(0.919419, 0, 0, 0.919419, 9.818434, 10.051872)" fill="none" stroke-linejoin="miter" d="M 45.67883 0.0030622 L 570.067548 0.0030622 C 595.300032 0.0030622 615.748584 20.455862 615.748584 45.684098 L 615.748584 763.69039 C 615.748584 788.918626 595.300032 809.371426 570.067548 809.371426 L 45.67883 809.371426 C 20.450594 809.371426 0.00204276 788.918626 0.00204276 763.69039 L 0.00204276 45.684098 C 0.00204276 20.455862 20.450594 0.0030622 45.67883 0.0030622 Z M 45.67883 0.0030622 " stroke="#142f34" stroke-width="3.262931" stroke-opacity="1" stroke-miterlimit="4"/></g></g><g transform="matrix(1, 0, 0, 1, 85, 177)"><g clip-path="url(#124727f2af)"><g fill="#ffffff" fill-opacity="1"><g transform="translate(0.926819, 252.206179)"><g><path d="M 240.578125 -234.890625 L 272.359375 -234.890625 L 272.359375 -231.875 C 271.460938 -231.875 269.953125 -230.367188 267.828125 -227.359375 C 265.710938 -224.347656 264.65625 -217.265625 264.65625 -206.109375 L 264.65625 -28.78125 C 264.65625 -17.84375 265.710938 -10.8125 267.828125 -7.6875 C 269.953125 -4.570312 271.460938 -3.015625 272.359375 -3.015625 L 272.359375 0 L 232.875 0 L 232.875 -3.015625 C 233.988281 -3.015625 235.550781 -4.570312 237.5625 -7.6875 C 239.570312 -10.8125 240.578125 -17.84375 240.578125 -28.78125 L 240.578125 -227.859375 L 140.1875 -19.734375 L 149.5625 0 L 123.125 0 L 25.765625 -202.421875 L 25.765625 -54.875 C 25.765625 -39.257812 27.269531 -26.710938 30.28125 -17.234375 C 33.289062 -7.753906 36.023438 -3.015625 38.484375 -3.015625 L 38.484375 0 L 10.03125 0 L 10.03125 -3.015625 C 12.488281 -3.015625 15.222656 -7.753906 18.234375 -17.234375 C 21.242188 -26.710938 22.75 -39.257812 22.75 -54.875 L 22.75 -208.453125 L 10.03125 -234.890625 L 36.46875 -234.890625 L 138.515625 -23.09375 Z M 240.578125 -234.890625 "/></g></g></g></g></g><g transform="matrix(1, 0, 0, 1, 258, 323)"><g clip-path="url(#f8650d516b)"><g fill="#d64466" fill-opacity="1"><g transform="translate(8.684222, 253.666162)"><g><path d="M 1.933594 -83.75 C -2.75 -101.246094 -3.851562 -118.59375 -1.378906 -135.792969 C 1.082031 -152.882812 6.558594 -168.816406 15.054688 -183.589844 C 23.5625 -198.390625 34.59375 -211.085938 48.148438 -221.683594 C 61.761719 -232.324219 77.308594 -239.984375 94.792969 -244.664062 C 112.285156 -249.347656 129.632812 -250.449219 146.832031 -247.972656 C 163.925781 -245.515625 179.855469 -240.039062 194.632812 -231.542969 C 209.429688 -223.035156 222.128906 -212 232.726562 -198.449219 C 243.367188 -184.835938 251.027344 -169.289062 255.707031 -151.804688 C 260.390625 -134.304688 261.492188 -117.011719 259.015625 -99.917969 C 256.554688 -82.941406 251.078125 -67.070312 242.585938 -52.300781 C 234.085938 -37.523438 223.074219 -24.78125 209.542969 -14.082031 C 195.917969 -3.304688 180.351562 4.425781 162.84375 9.109375 C 145.347656 13.792969 128.050781 14.894531 110.957031 12.417969 C 93.984375 9.957031 78.113281 4.480469 63.339844 -4.011719 C 48.5625 -12.507812 35.824219 -23.523438 25.125 -37.050781 C 14.347656 -50.675781 6.617188 -66.242188 1.933594 -83.75 Z M 26.175781 -90.238281 C 29.964844 -76.070312 36.175781 -63.53125 44.808594 -52.621094 C 53.511719 -41.613281 63.859375 -32.660156 75.851562 -25.765625 C 87.847656 -18.867188 100.75 -14.417969 114.558594 -12.417969 C 128.25 -10.433594 142.179688 -11.339844 156.359375 -15.132812 C 170.523438 -18.921875 183.066406 -25.132812 193.976562 -33.765625 C 204.984375 -42.472656 213.933594 -52.820312 220.828125 -64.808594 C 227.726562 -76.804688 232.175781 -89.707031 234.179688 -103.515625 C 236.164062 -117.207031 235.257812 -131.140625 231.464844 -145.316406 C 227.667969 -159.507812 221.496094 -172.066406 212.957031 -182.992188 C 204.367188 -193.972656 194.089844 -202.90625 182.121094 -209.789062 C 170.128906 -216.683594 157.175781 -221.132812 143.261719 -223.136719 C 129.453125 -225.121094 115.460938 -224.21875 101.28125 -220.421875 C 87.089844 -216.625 74.53125 -210.457031 63.605469 -201.914062 C 52.625 -193.328125 43.691406 -183.050781 36.808594 -171.082031 C 29.914062 -159.085938 25.464844 -146.132812 23.460938 -132.21875 C 21.476562 -118.414062 22.378906 -104.417969 26.175781 -90.238281 Z M 207.667969 -139.109375 C 204.648438 -150.992188 199.695312 -162.398438 192.816406 -173.328125 C 185.949219 -184.234375 177.625 -193.71875 167.847656 -201.785156 C 158.40625 -209.570312 148.074219 -215.011719 136.859375 -218.105469 C 126.085938 -221.078125 114.539062 -220.949219 102.214844 -217.726562 C 89.960938 -214.523438 79.90625 -208.898438 72.046875 -200.855469 C 63.792969 -192.410156 57.523438 -182.484375 53.234375 -171.078125 C 48.816406 -159.328125 46.402344 -147.003906 46 -134.117188 C 45.589844 -121.019531 46.914062 -108.460938 49.96875 -96.445312 C 53.167969 -84.859375 58.230469 -73.566406 65.15625 -62.5625 C 72.035156 -51.636719 80.320312 -42.140625 90.007812 -34.066406 C 99.339844 -26.289062 109.722656 -20.800781 121.15625 -17.605469 C 132.058594 -14.554688 143.519531 -14.722656 155.535156 -18.101562 C 167.910156 -21.339844 177.96875 -26.964844 185.707031 -34.980469 C 193.875 -43.4375 200.105469 -53.382812 204.402344 -64.8125 C 208.835938 -76.59375 211.304688 -88.949219 211.808594 -101.871094 C 212.316406 -114.851562 210.957031 -127.179688 207.734375 -138.867188 Z M 231.925781 -145.539062 C 235.839844 -131.347656 237.492188 -116.46875 236.882812 -100.890625 C 236.273438 -85.265625 233.277344 -70.292969 227.894531 -55.976562 C 222.375 -41.308594 214.332031 -28.5 203.761719 -17.550781 C 192.761719 -6.160156 178.953125 1.710938 162.328125 6.054688 C 145.796875 10.707031 129.816406 10.875 114.398438 6.5625 C 99.511719 2.398438 86.027344 -4.714844 73.941406 -14.785156 C 62.21875 -24.558594 52.210938 -36.023438 43.921875 -49.191406 C 35.679688 -62.28125 29.589844 -75.96875 25.648438 -90.261719 C 22.011719 -104.5625 20.433594 -119.445312 20.917969 -134.898438 C 21.40625 -150.5625 24.351562 -165.566406 29.746094 -179.910156 C 35.269531 -194.605469 43.386719 -207.433594 54.097656 -218.390625 C 65.199219 -229.753906 79.121094 -237.625 95.867188 -242.007812 C 112.539062 -246.367188 128.425781 -246.464844 143.53125 -242.296875 C 158.191406 -238.253906 171.617188 -231.203125 183.8125 -221.144531 C 195.671875 -211.363281 205.75 -199.882812 214.050781 -186.699219 C 222.339844 -173.535156 228.320312 -159.734375 231.988281 -145.292969 Z M 231.925781 -145.539062 "/></g></g></g><g fill="#ffffff" fill-opacity="1"><g transform="translate(8.684222, 253.666162)"><g><path d="M 14.046875 -87 C 9.816406 -102.832031 8.816406 -118.5 11.046875 -134 C 13.273438 -149.507812 18.234375 -163.953125 25.921875 -177.328125 C 33.617188 -190.710938 43.601562 -202.203125 55.875 -211.796875 C 68.144531 -221.390625 82.195312 -228.304688 98.03125 -232.546875 C 113.875 -236.785156 129.546875 -237.785156 145.046875 -235.546875 C 160.546875 -233.316406 174.988281 -228.351562 188.375 -220.65625 C 201.757812 -212.96875 213.25 -202.988281 222.84375 -190.71875 C 232.4375 -178.445312 239.347656 -164.394531 243.578125 -148.5625 C 247.816406 -132.71875 248.820312 -117.097656 246.59375 -101.703125 C 244.363281 -86.316406 239.398438 -71.929688 231.703125 -58.546875 C 224.003906 -45.171875 214.019531 -33.628906 201.75 -23.921875 C 189.488281 -14.222656 175.4375 -7.253906 159.59375 -3.015625 C 143.757812 1.222656 128.144531 2.226562 112.75 0 C 97.363281 -2.226562 82.976562 -7.191406 69.59375 -14.890625 C 56.207031 -22.585938 44.660156 -32.566406 34.953125 -44.828125 C 25.253906 -57.097656 18.285156 -71.15625 14.046875 -87 Z M 219.828125 -142.203125 C 216.484375 -155.359375 211.019531 -167.957031 203.4375 -180 C 195.851562 -192.050781 186.648438 -202.535156 175.828125 -211.453125 C 165.003906 -220.378906 153.125 -226.625 140.1875 -230.1875 C 127.25 -233.757812 113.535156 -233.648438 99.046875 -229.859375 C 84.546875 -226.066406 72.550781 -219.316406 63.0625 -209.609375 C 53.582031 -199.910156 46.390625 -188.535156 41.484375 -175.484375 C 36.578125 -162.441406 33.898438 -148.78125 33.453125 -134.5 C 33.015625 -120.226562 34.46875 -106.515625 37.8125 -93.359375 C 41.375 -80.410156 46.945312 -67.914062 54.53125 -55.875 C 62.125 -43.832031 71.269531 -33.347656 81.96875 -24.421875 C 92.675781 -15.503906 104.609375 -9.203125 117.765625 -5.515625 C 130.929688 -1.835938 144.65625 -2.003906 158.9375 -6.015625 C 173.4375 -9.804688 185.367188 -16.554688 194.734375 -26.265625 C 204.097656 -35.972656 211.234375 -47.347656 216.140625 -60.390625 C 221.054688 -73.441406 223.789062 -87.101562 224.34375 -101.375 C 224.90625 -115.65625 223.398438 -129.265625 219.828125 -142.203125 Z M 219.828125 -142.203125 "/></g></g></g></g></g><g transform="matrix(1, 0, 0, 1, 99, 45)"><g clip-path="url(#868b716e3e)"><g fill="#ffffff" fill-opacity="1"><g transform="translate(2.283673, 42.62159)"><g><path d="M 12.34375 0 C 11.96875 0 11.660156 -0.117188 11.421875 -0.359375 C 11.191406 -0.609375 11.078125 -0.898438 11.078125 -1.234375 L 11.078125 -27.28125 L 13.609375 -27.28125 L 13.609375 -1.234375 C 13.609375 -0.898438 13.484375 -0.609375 13.234375 -0.359375 C 12.992188 -0.117188 12.695312 0 12.34375 0 Z M 2.609375 -26.296875 C 2.285156 -26.296875 2 -26.40625 1.75 -26.625 C 1.507812 -26.84375 1.390625 -27.128906 1.390625 -27.484375 C 1.390625 -27.804688 1.507812 -28.078125 1.75 -28.296875 C 2 -28.515625 2.285156 -28.625 2.609375 -28.625 L 22.078125 -28.625 C 22.410156 -28.625 22.695312 -28.515625 22.9375 -28.296875 C 23.1875 -28.078125 23.3125 -27.789062 23.3125 -27.4375 C 23.3125 -27.082031 23.1875 -26.800781 22.9375 -26.59375 C 22.695312 -26.394531 22.410156 -26.296875 22.078125 -26.296875 Z M 2.609375 -26.296875 "/></g></g></g><g fill="#ffffff" fill-opacity="1"><g transform="translate(25.134643, 42.62159)"><g><path d="M 5.15625 -28.625 C 5.476562 -28.625 5.769531 -28.5 6.03125 -28.25 C 6.289062 -28.007812 6.421875 -27.710938 6.421875 -27.359375 L 6.421875 -1.265625 C 6.390625 -0.910156 6.242188 -0.609375 5.984375 -0.359375 C 5.734375 -0.117188 5.441406 0 5.109375 0 C 4.722656 0 4.414062 -0.117188 4.1875 -0.359375 C 3.957031 -0.609375 3.84375 -0.910156 3.84375 -1.265625 L 3.84375 -27.359375 C 3.84375 -27.710938 3.960938 -28.007812 4.203125 -28.25 C 4.453125 -28.5 4.769531 -28.625 5.15625 -28.625 Z M 24.328125 -28.625 C 24.710938 -28.625 25.019531 -28.5 25.25 -28.25 C 25.476562 -28.007812 25.59375 -27.710938 25.59375 -27.359375 L 25.59375 -1.265625 C 25.570312 -0.910156 25.441406 -0.609375 25.203125 -0.359375 C 24.972656 -0.117188 24.671875 0 24.296875 0 C 23.929688 0 23.625 -0.117188 23.375 -0.359375 C 23.132812 -0.609375 23.015625 -0.910156 23.015625 -1.265625 L 23.015625 -27.359375 C 23.015625 -27.710938 23.144531 -28.007812 23.40625 -28.25 C 23.664062 -28.5 23.972656 -28.625 24.328125 -28.625 Z M 4.953125 -15.828125 L 24.375 -15.828125 L 24.328125 -13.453125 L 4.78125 -13.453125 Z M 4.953125 -15.828125 "/></g></g></g><g fill="#ffffff" fill-opacity="1"><g transform="translate(52.727602, 42.62159)"><g><path d="M 5.078125 -28.625 L 20.078125 -28.625 C 20.398438 -28.625 20.679688 -28.503906 20.921875 -28.265625 C 21.171875 -28.035156 21.296875 -27.742188 21.296875 -27.390625 C 21.296875 -27.035156 21.171875 -26.75 20.921875 -26.53125 C 20.679688 -26.3125 20.398438 -26.203125 20.078125 -26.203125 L 6.015625 -26.203125 L 6.421875 -26.90625 L 6.421875 -15.421875 L 5.96875 -15.953125 L 18.234375 -15.953125 C 18.566406 -15.953125 18.851562 -15.828125 19.09375 -15.578125 C 19.34375 -15.335938 19.46875 -15.050781 19.46875 -14.71875 C 19.46875 -14.363281 19.34375 -14.078125 19.09375 -13.859375 C 18.851562 -13.640625 18.566406 -13.53125 18.234375 -13.53125 L 6.046875 -13.53125 L 6.421875 -13.9375 L 6.421875 -2.171875 L 6.21875 -2.40625 L 20.078125 -2.40625 C 20.398438 -2.40625 20.679688 -2.28125 20.921875 -2.03125 C 21.171875 -1.789062 21.296875 -1.507812 21.296875 -1.1875 C 21.296875 -0.832031 21.171875 -0.546875 20.921875 -0.328125 C 20.679688 -0.109375 20.398438 0 20.078125 0 L 5.078125 0 C 4.742188 0 4.453125 -0.117188 4.203125 -0.359375 C 3.960938 -0.609375 3.84375 -0.898438 3.84375 -1.234375 L 3.84375 -27.390625 C 3.84375 -27.722656 3.960938 -28.007812 4.203125 -28.25 C 4.453125 -28.5 4.742188 -28.625 5.078125 -28.625 Z M 5.078125 -28.625 "/></g></g></g><g fill="#ffffff" fill-opacity="1"><g transform="translate(74.1069, 42.62159)"><g/></g></g><g fill="#ffffff" fill-opacity="1"><g transform="translate(83.42682, 42.62159)"><g><path d="M 5.078125 -28.625 C 5.265625 -28.625 5.457031 -28.582031 5.65625 -28.5 C 5.863281 -28.414062 6.035156 -28.28125 6.171875 -28.09375 L 17.453125 -11.15625 L 16.359375 -11.203125 L 27.6875 -28.09375 C 27.976562 -28.5 28.34375 -28.675781 28.78125 -28.625 C 29.113281 -28.625 29.394531 -28.503906 29.625 -28.265625 C 29.851562 -28.035156 29.96875 -27.742188 29.96875 -27.390625 L 29.96875 -1.234375 C 29.96875 -0.898438 29.84375 -0.609375 29.59375 -0.359375 C 29.351562 -0.117188 29.054688 0 28.703125 0 C 28.316406 0 28 -0.117188 27.75 -0.359375 C 27.507812 -0.609375 27.390625 -0.898438 27.390625 -1.234375 L 27.390625 -24.90625 L 28.125 -24.828125 L 17.78125 -9.15625 C 17.707031 -9 17.585938 -8.867188 17.421875 -8.765625 C 17.253906 -8.671875 17.0625 -8.640625 16.84375 -8.671875 C 16.65625 -8.640625 16.472656 -8.671875 16.296875 -8.765625 C 16.117188 -8.867188 15.972656 -9 15.859375 -9.15625 L 5.484375 -24.984375 L 6.25 -25.515625 L 6.25 -1.234375 C 6.25 -0.898438 6.132812 -0.609375 5.90625 -0.359375 C 5.675781 -0.117188 5.382812 0 5.03125 0 C 4.675781 0 4.390625 -0.117188 4.171875 -0.359375 C 3.953125 -0.609375 3.84375 -0.898438 3.84375 -1.234375 L 3.84375 -27.390625 C 3.84375 -27.722656 3.957031 -28.007812 4.1875 -28.25 C 4.414062 -28.5 4.710938 -28.625 5.078125 -28.625 Z M 5.078125 -28.625 "/></g></g></g><g fill="#ffffff" fill-opacity="1"><g transform="translate(115.393858, 42.62159)"><g><path d="M 13.40625 -25.46875 L 3.46875 -0.78125 C 3.363281 -0.507812 3.210938 -0.300781 3.015625 -0.15625 C 2.828125 -0.0195312 2.613281 0.046875 2.375 0.046875 C 1.988281 0.046875 1.703125 -0.0546875 1.515625 -0.265625 C 1.328125 -0.472656 1.21875 -0.722656 1.1875 -1.015625 C 1.15625 -1.160156 1.171875 -1.328125 1.234375 -1.515625 L 12.015625 -27.921875 C 12.148438 -28.222656 12.320312 -28.4375 12.53125 -28.5625 C 12.738281 -28.6875 12.976562 -28.75 13.25 -28.75 C 13.519531 -28.75 13.753906 -28.671875 13.953125 -28.515625 C 14.160156 -28.367188 14.320312 -28.171875 14.4375 -27.921875 L 25.1875 -1.640625 C 25.238281 -1.472656 25.265625 -1.304688 25.265625 -1.140625 C 25.265625 -0.765625 25.140625 -0.472656 24.890625 -0.265625 C 24.648438 -0.0546875 24.367188 0.046875 24.046875 0.046875 C 23.773438 0.046875 23.535156 -0.0234375 23.328125 -0.171875 C 23.117188 -0.328125 22.960938 -0.53125 22.859375 -0.78125 L 12.671875 -25.640625 Z M 5.84375 -8.265625 L 6.875 -10.671875 L 19.546875 -10.671875 L 20.03125 -8.265625 Z M 5.84375 -8.265625 "/></g></g></g><g fill="#ffffff" fill-opacity="1"><g transform="translate(140.002634, 42.62159)"><g><path d="M 5.15625 -28.625 C 5.476562 -28.625 5.769531 -28.5 6.03125 -28.25 C 6.289062 -28.007812 6.421875 -27.710938 6.421875 -27.359375 L 6.421875 -1.265625 C 6.390625 -0.910156 6.242188 -0.609375 5.984375 -0.359375 C 5.734375 -0.117188 5.441406 0 5.109375 0 C 4.722656 0 4.414062 -0.117188 4.1875 -0.359375 C 3.957031 -0.609375 3.84375 -0.910156 3.84375 -1.265625 L 3.84375 -27.359375 C 3.84375 -27.710938 3.960938 -28.007812 4.203125 -28.25 C 4.453125 -28.5 4.769531 -28.625 5.15625 -28.625 Z M 24.328125 -28.625 C 24.710938 -28.625 25.019531 -28.5 25.25 -28.25 C 25.476562 -28.007812 25.59375 -27.710938 25.59375 -27.359375 L 25.59375 -1.265625 C 25.570312 -0.910156 25.441406 -0.609375 25.203125 -0.359375 C 24.972656 -0.117188 24.671875 0 24.296875 0 C 23.929688 0 23.625 -0.117188 23.375 -0.359375 C 23.132812 -0.609375 23.015625 -0.910156 23.015625 -1.265625 L 23.015625 -27.359375 C 23.015625 -27.710938 23.144531 -28.007812 23.40625 -28.25 C 23.664062 -28.5 23.972656 -28.625 24.328125 -28.625 Z M 4.953125 -15.828125 L 24.375 -15.828125 L 24.328125 -13.453125 L 4.78125 -13.453125 Z M 4.953125 -15.828125 "/></g></g></g><g fill="#ffffff" fill-opacity="1"><g transform="translate(167.595592, 42.62159)"><g><path d="M 10.625 0.40625 C 8.914062 0.40625 7.378906 -0.0664062 6.015625 -1.015625 C 4.648438 -1.972656 3.613281 -3.226562 2.90625 -4.78125 C 2.769531 -5.03125 2.703125 -5.25 2.703125 -5.4375 C 2.703125 -5.789062 2.835938 -6.066406 3.109375 -6.265625 C 3.378906 -6.472656 3.648438 -6.578125 3.921875 -6.578125 C 4.191406 -6.578125 4.414062 -6.507812 4.59375 -6.375 C 4.769531 -6.238281 4.929688 -6.078125 5.078125 -5.890625 C 5.585938 -4.742188 6.332031 -3.816406 7.3125 -3.109375 C 8.300781 -2.398438 9.40625 -2.046875 10.625 -2.046875 C 11.882812 -2.046875 12.988281 -2.3125 13.9375 -2.84375 C 14.894531 -3.375 15.640625 -4.113281 16.171875 -5.0625 C 16.703125 -6.019531 16.96875 -7.113281 16.96875 -8.34375 L 16.96875 -27.390625 C 16.96875 -27.722656 17.097656 -28.007812 17.359375 -28.25 C 17.617188 -28.5 17.925781 -28.625 18.28125 -28.625 C 18.65625 -28.625 18.957031 -28.5 19.1875 -28.25 C 19.425781 -28.007812 19.546875 -27.722656 19.546875 -27.390625 L 19.546875 -8.34375 C 19.546875 -6.65625 19.160156 -5.148438 18.390625 -3.828125 C 17.628906 -2.503906 16.582031 -1.46875 15.25 -0.71875 C 13.914062 0.03125 12.375 0.40625 10.625 0.40625 Z M 10.625 0.40625 "/></g></g></g><g fill="#ffffff" fill-opacity="1"><g transform="translate(189.13841, 42.62159)"><g><path d="M 29.359375 -14.3125 C 29.359375 -12.15625 29.023438 -10.179688 28.359375 -8.390625 C 27.691406 -6.609375 26.742188 -5.054688 25.515625 -3.734375 C 24.285156 -2.421875 22.832031 -1.398438 21.15625 -0.671875 C 19.476562 0.046875 17.644531 0.40625 15.65625 0.40625 C 13.664062 0.40625 11.832031 0.046875 10.15625 -0.671875 C 8.476562 -1.398438 7.023438 -2.421875 5.796875 -3.734375 C 4.578125 -5.054688 3.632812 -6.609375 2.96875 -8.390625 C 2.300781 -10.179688 1.96875 -12.15625 1.96875 -14.3125 C 1.96875 -16.46875 2.300781 -18.4375 2.96875 -20.21875 C 3.632812 -22.007812 4.578125 -23.5625 5.796875 -24.875 C 7.023438 -26.195312 8.476562 -27.21875 10.15625 -27.9375 C 11.832031 -28.664062 13.664062 -29.03125 15.65625 -29.03125 C 17.644531 -29.03125 19.476562 -28.664062 21.15625 -27.9375 C 22.832031 -27.21875 24.285156 -26.195312 25.515625 -24.875 C 26.742188 -23.5625 27.691406 -22.007812 28.359375 -20.21875 C 29.023438 -18.4375 29.359375 -16.46875 29.359375 -14.3125 Z M 26.75 -14.3125 C 26.75 -16.738281 26.273438 -18.867188 25.328125 -20.703125 C 24.390625 -22.546875 23.085938 -23.984375 21.421875 -25.015625 C 19.765625 -26.054688 17.84375 -26.578125 15.65625 -26.578125 C 13.507812 -26.578125 11.597656 -26.054688 9.921875 -25.015625 C 8.242188 -23.984375 6.929688 -22.546875 5.984375 -20.703125 C 5.046875 -18.867188 4.578125 -16.738281 4.578125 -14.3125 C 4.578125 -11.882812 5.046875 -9.75 5.984375 -7.90625 C 6.929688 -6.070312 8.242188 -4.632812 9.921875 -3.59375 C 11.597656 -2.5625 13.507812 -2.046875 15.65625 -2.046875 C 17.84375 -2.046875 19.765625 -2.5625 21.421875 -3.59375 C 23.085938 -4.632812 24.390625 -6.070312 25.328125 -7.90625 C 26.273438 -9.75 26.75 -11.882812 26.75 -14.3125 Z M 26.75 -14.3125 "/></g></g></g><g fill="#ffffff" fill-opacity="1"><g transform="translate(218.611822, 42.62159)"><g><path d="M 24.78125 -28.625 C 25.132812 -28.625 25.410156 -28.515625 25.609375 -28.296875 C 25.816406 -28.078125 25.921875 -27.804688 25.921875 -27.484375 L 25.921875 -1.3125 C 25.921875 -0.894531 25.789062 -0.570312 25.53125 -0.34375 C 25.269531 -0.113281 24.976562 0 24.65625 0 C 24.488281 0 24.3125 -0.03125 24.125 -0.09375 C 23.9375 -0.164062 23.785156 -0.269531 23.671875 -0.40625 L 5.4375 -24.984375 L 6.140625 -25.359375 L 6.140625 -1.109375 C 6.140625 -0.804688 6.03125 -0.546875 5.8125 -0.328125 C 5.59375 -0.109375 5.316406 0 4.984375 0 C 4.628906 0 4.347656 -0.109375 4.140625 -0.328125 C 3.941406 -0.546875 3.84375 -0.804688 3.84375 -1.109375 L 3.84375 -27.390625 C 3.84375 -27.804688 3.960938 -28.113281 4.203125 -28.3125 C 4.453125 -28.519531 4.726562 -28.625 5.03125 -28.625 C 5.195312 -28.625 5.375 -28.585938 5.5625 -28.515625 C 5.75 -28.453125 5.898438 -28.335938 6.015625 -28.171875 L 24.046875 -3.890625 L 23.640625 -3.15625 L 23.640625 -27.484375 C 23.640625 -27.804688 23.753906 -28.078125 23.984375 -28.296875 C 24.210938 -28.515625 24.476562 -28.625 24.78125 -28.625 Z M 24.78125 -28.625 "/></g></g></g><g fill="#ffffff" fill-opacity="1"><g transform="translate(246.531818, 42.62159)"><g><path d="M 16.6875 0.40625 C 14.582031 0.40625 12.628906 0.0390625 10.828125 -0.6875 C 9.035156 -1.425781 7.476562 -2.457031 6.15625 -3.78125 C 4.832031 -5.101562 3.800781 -6.660156 3.0625 -8.453125 C 2.332031 -10.253906 1.96875 -12.207031 1.96875 -14.3125 C 1.96875 -16.40625 2.332031 -18.351562 3.0625 -20.15625 C 3.800781 -21.957031 4.832031 -23.519531 6.15625 -24.84375 C 7.476562 -26.164062 9.035156 -27.191406 10.828125 -27.921875 C 12.628906 -28.660156 14.582031 -29.03125 16.6875 -29.03125 C 18.125 -29.03125 19.519531 -28.859375 20.875 -28.515625 C 22.226562 -28.179688 23.4375 -27.671875 24.5 -26.984375 C 24.6875 -26.847656 24.828125 -26.691406 24.921875 -26.515625 C 25.015625 -26.335938 25.0625 -26.15625 25.0625 -25.96875 C 25.0625 -25.582031 24.9375 -25.273438 24.6875 -25.046875 C 24.445312 -24.816406 24.191406 -24.703125 23.921875 -24.703125 C 23.785156 -24.703125 23.65625 -24.722656 23.53125 -24.765625 C 23.40625 -24.804688 23.289062 -24.851562 23.1875 -24.90625 C 22.257812 -25.414062 21.25 -25.820312 20.15625 -26.125 C 19.070312 -26.425781 17.914062 -26.578125 16.6875 -26.578125 C 14.34375 -26.578125 12.253906 -26.046875 10.421875 -24.984375 C 8.597656 -23.921875 7.164062 -22.460938 6.125 -20.609375 C 5.09375 -18.753906 4.578125 -16.65625 4.578125 -14.3125 C 4.578125 -11.96875 5.09375 -9.867188 6.125 -8.015625 C 7.164062 -6.160156 8.597656 -4.703125 10.421875 -3.640625 C 12.253906 -2.578125 14.34375 -2.046875 16.6875 -2.046875 C 17.914062 -2.046875 19.148438 -2.222656 20.390625 -2.578125 C 21.628906 -2.929688 22.695312 -3.40625 23.59375 -4 L 23.390625 -3.15625 L 23.390625 -12.546875 L 24 -11.984375 L 16.921875 -11.984375 C 16.566406 -11.984375 16.265625 -12.101562 16.015625 -12.34375 C 15.773438 -12.59375 15.65625 -12.878906 15.65625 -13.203125 C 15.65625 -13.585938 15.773438 -13.890625 16.015625 -14.109375 C 16.265625 -14.328125 16.566406 -14.4375 16.921875 -14.4375 L 24.734375 -14.4375 C 25.085938 -14.4375 25.378906 -14.316406 25.609375 -14.078125 C 25.847656 -13.847656 25.96875 -13.554688 25.96875 -13.203125 L 25.96875 -3.359375 C 25.96875 -3.140625 25.910156 -2.929688 25.796875 -2.734375 C 25.691406 -2.546875 25.546875 -2.382812 25.359375 -2.25 C 24.148438 -1.425781 22.800781 -0.773438 21.3125 -0.296875 C 19.832031 0.171875 18.289062 0.40625 16.6875 0.40625 Z M 16.6875 0.40625 "/></g></g></g><g fill="#ffffff" fill-opacity="1"><g transform="translate(273.102791, 42.62159)"><g/></g></g><g fill="#ffffff" fill-opacity="1"><g transform="translate(282.422711, 42.62159)"><g><path d="M 29.359375 -14.3125 C 29.359375 -12.15625 29.023438 -10.179688 28.359375 -8.390625 C 27.691406 -6.609375 26.742188 -5.054688 25.515625 -3.734375 C 24.285156 -2.421875 22.832031 -1.398438 21.15625 -0.671875 C 19.476562 0.046875 17.644531 0.40625 15.65625 0.40625 C 13.664062 0.40625 11.832031 0.046875 10.15625 -0.671875 C 8.476562 -1.398438 7.023438 -2.421875 5.796875 -3.734375 C 4.578125 -5.054688 3.632812 -6.609375 2.96875 -8.390625 C 2.300781 -10.179688 1.96875 -12.15625 1.96875 -14.3125 C 1.96875 -16.46875 2.300781 -18.4375 2.96875 -20.21875 C 3.632812 -22.007812 4.578125 -23.5625 5.796875 -24.875 C 7.023438 -26.195312 8.476562 -27.21875 10.15625 -27.9375 C 11.832031 -28.664062 13.664062 -29.03125 15.65625 -29.03125 C 17.644531 -29.03125 19.476562 -28.664062 21.15625 -27.9375 C 22.832031 -27.21875 24.285156 -26.195312 25.515625 -24.875 C 26.742188 -23.5625 27.691406 -22.007812 28.359375 -20.21875 C 29.023438 -18.4375 29.359375 -16.46875 29.359375 -14.3125 Z M 26.75 -14.3125 C 26.75 -16.738281 26.273438 -18.867188 25.328125 -20.703125 C 24.390625 -22.546875 23.085938 -23.984375 21.421875 -25.015625 C 19.765625 -26.054688 17.84375 -26.578125 15.65625 -26.578125 C 13.507812 -26.578125 11.597656 -26.054688 9.921875 -25.015625 C 8.242188 -23.984375 6.929688 -22.546875 5.984375 -20.703125 C 5.046875 -18.867188 4.578125 -16.738281 4.578125 -14.3125 C 4.578125 -11.882812 5.046875 -9.75 5.984375 -7.90625 C 6.929688 -6.070312 8.242188 -4.632812 9.921875 -3.59375 C 11.597656 -2.5625 13.507812 -2.046875 15.65625 -2.046875 C 17.84375 -2.046875 19.765625 -2.5625 21.421875 -3.59375 C 23.085938 -4.632812 24.390625 -6.070312 25.328125 -7.90625 C 26.273438 -9.75 26.75 -11.882812 26.75 -14.3125 Z M 26.75 -14.3125 "/></g></g></g><g fill="#ffffff" fill-opacity="1"><g transform="translate(311.896123, 42.62159)"><g><path d="M 14.765625 -28.625 C 16.285156 -28.625 17.628906 -28.273438 18.796875 -27.578125 C 19.972656 -26.878906 20.898438 -25.914062 21.578125 -24.6875 C 22.265625 -23.46875 22.609375 -22.066406 22.609375 -20.484375 C 22.609375 -18.898438 22.265625 -17.472656 21.578125 -16.203125 C 20.898438 -14.941406 19.972656 -13.941406 18.796875 -13.203125 C 17.628906 -12.472656 16.285156 -12.109375 14.765625 -12.109375 L 6.09375 -12.109375 L 6.296875 -12.515625 L 6.296875 -1.234375 C 6.296875 -0.898438 6.171875 -0.609375 5.921875 -0.359375 C 5.679688 -0.117188 5.398438 0 5.078125 0 C 4.691406 0 4.390625 -0.117188 4.171875 -0.359375 C 3.953125 -0.609375 3.84375 -0.898438 3.84375 -1.234375 L 3.84375 -27.390625 C 3.84375 -27.722656 3.960938 -28.007812 4.203125 -28.25 C 4.453125 -28.5 4.742188 -28.625 5.078125 -28.625 Z M 14.765625 -14.46875 C 15.828125 -14.46875 16.753906 -14.734375 17.546875 -15.265625 C 18.335938 -15.796875 18.957031 -16.519531 19.40625 -17.4375 C 19.851562 -18.351562 20.078125 -19.367188 20.078125 -20.484375 C 20.078125 -21.597656 19.851562 -22.582031 19.40625 -23.4375 C 18.957031 -24.300781 18.335938 -24.976562 17.546875 -25.46875 C 16.753906 -25.957031 15.828125 -26.203125 14.765625 -26.203125 L 6.09375 -26.203125 L 6.296875 -26.578125 L 6.296875 -14.234375 L 6.046875 -14.46875 Z M 14.765625 -14.46875 "/></g></g></g><g fill="#ffffff" fill-opacity="1"><g transform="translate(334.420054, 42.62159)"><g><path d="M 5.078125 -28.625 L 20.078125 -28.625 C 20.398438 -28.625 20.679688 -28.503906 20.921875 -28.265625 C 21.171875 -28.035156 21.296875 -27.742188 21.296875 -27.390625 C 21.296875 -27.035156 21.171875 -26.75 20.921875 -26.53125 C 20.679688 -26.3125 20.398438 -26.203125 20.078125 -26.203125 L 6.015625 -26.203125 L 6.421875 -26.90625 L 6.421875 -15.421875 L 5.96875 -15.953125 L 18.234375 -15.953125 C 18.566406 -15.953125 18.851562 -15.828125 19.09375 -15.578125 C 19.34375 -15.335938 19.46875 -15.050781 19.46875 -14.71875 C 19.46875 -14.363281 19.34375 -14.078125 19.09375 -13.859375 C 18.851562 -13.640625 18.566406 -13.53125 18.234375 -13.53125 L 6.046875 -13.53125 L 6.421875 -13.9375 L 6.421875 -2.171875 L 6.21875 -2.40625 L 20.078125 -2.40625 C 20.398438 -2.40625 20.679688 -2.28125 20.921875 -2.03125 C 21.171875 -1.789062 21.296875 -1.507812 21.296875 -1.1875 C 21.296875 -0.832031 21.171875 -0.546875 20.921875 -0.328125 C 20.679688 -0.109375 20.398438 0 20.078125 0 L 5.078125 0 C 4.742188 0 4.453125 -0.117188 4.203125 -0.359375 C 3.960938 -0.609375 3.84375 -0.898438 3.84375 -1.234375 L 3.84375 -27.390625 C 3.84375 -27.722656 3.960938 -28.007812 4.203125 -28.25 C 4.453125 -28.5 4.742188 -28.625 5.078125 -28.625 Z M 5.078125 -28.625 "/></g></g></g><g fill="#ffffff" fill-opacity="1"><g transform="translate(355.799353, 42.62159)"><g><path d="M 24.78125 -28.625 C 25.132812 -28.625 25.410156 -28.515625 25.609375 -28.296875 C 25.816406 -28.078125 25.921875 -27.804688 25.921875 -27.484375 L 25.921875 -1.3125 C 25.921875 -0.894531 25.789062 -0.570312 25.53125 -0.34375 C 25.269531 -0.113281 24.976562 0 24.65625 0 C 24.488281 0 24.3125 -0.03125 24.125 -0.09375 C 23.9375 -0.164062 23.785156 -0.269531 23.671875 -0.40625 L 5.4375 -24.984375 L 6.140625 -25.359375 L 6.140625 -1.109375 C 6.140625 -0.804688 6.03125 -0.546875 5.8125 -0.328125 C 5.59375 -0.109375 5.316406 0 4.984375 0 C 4.628906 0 4.347656 -0.109375 4.140625 -0.328125 C 3.941406 -0.546875 3.84375 -0.804688 3.84375 -1.109375 L 3.84375 -27.390625 C 3.84375 -27.804688 3.960938 -28.113281 4.203125 -28.3125 C 4.453125 -28.519531 4.726562 -28.625 5.03125 -28.625 C 5.195312 -28.625 5.375 -28.585938 5.5625 -28.515625 C 5.75 -28.453125 5.898438 -28.335938 6.015625 -28.171875 L 24.046875 -3.890625 L 23.640625 -3.15625 L 23.640625 -27.484375 C 23.640625 -27.804688 23.753906 -28.078125 23.984375 -28.296875 C 24.210938 -28.515625 24.476562 -28.625 24.78125 -28.625 Z M 24.78125 -28.625 "/></g></g></g></g></g><g transform="matrix(1, 0, 0, 1, 216, 676)"><g clip-path="url(#3f115331c5)"><g fill="#ffffff" fill-opacity="1"><g transform="translate(1.195668, 41.894135)"><g><path d="M 5.078125 -28.625 L 20.078125 -28.625 C 20.398438 -28.625 20.679688 -28.503906 20.921875 -28.265625 C 21.171875 -28.035156 21.296875 -27.742188 21.296875 -27.390625 C 21.296875 -27.035156 21.171875 -26.75 20.921875 -26.53125 C 20.679688 -26.3125 20.398438 -26.203125 20.078125 -26.203125 L 6.015625 -26.203125 L 6.421875 -26.90625 L 6.421875 -15.421875 L 5.96875 -15.953125 L 18.234375 -15.953125 C 18.566406 -15.953125 18.851562 -15.828125 19.09375 -15.578125 C 19.34375 -15.335938 19.46875 -15.050781 19.46875 -14.71875 C 19.46875 -14.363281 19.34375 -14.078125 19.09375 -13.859375 C 18.851562 -13.640625 18.566406 -13.53125 18.234375 -13.53125 L 6.046875 -13.53125 L 6.421875 -13.9375 L 6.421875 -2.171875 L 6.21875 -2.40625 L 20.078125 -2.40625 C 20.398438 -2.40625 20.679688 -2.28125 20.921875 -2.03125 C 21.171875 -1.789062 21.296875 -1.507812 21.296875 -1.1875 C 21.296875 -0.832031 21.171875 -0.546875 20.921875 -0.328125 C 20.679688 -0.109375 20.398438 0 20.078125 0 L 5.078125 0 C 4.742188 0 4.453125 -0.117188 4.203125 -0.359375 C 3.960938 -0.609375 3.84375 -0.898438 3.84375 -1.234375 L 3.84375 -27.390625 C 3.84375 -27.722656 3.960938 -28.007812 4.203125 -28.25 C 4.453125 -28.5 4.742188 -28.625 5.078125 -28.625 Z M 5.078125 -28.625 "/></g></g></g><g fill="#ffffff" fill-opacity="1"><g transform="translate(22.574966, 41.894135)"><g><path d="M 11.734375 0.40625 C 9.660156 0.4375 7.859375 0.113281 6.328125 -0.5625 C 4.804688 -1.25 3.351562 -2.273438 1.96875 -3.640625 C 1.832031 -3.742188 1.710938 -3.878906 1.609375 -4.046875 C 1.515625 -4.210938 1.46875 -4.40625 1.46875 -4.625 C 1.46875 -4.945312 1.597656 -5.242188 1.859375 -5.515625 C 2.117188 -5.785156 2.410156 -5.921875 2.734375 -5.921875 C 3.066406 -5.921875 3.367188 -5.785156 3.640625 -5.515625 C 4.703125 -4.367188 5.90625 -3.492188 7.25 -2.890625 C 8.601562 -2.296875 10.054688 -2 11.609375 -2 C 12.921875 -2 14.085938 -2.203125 15.109375 -2.609375 C 16.128906 -3.023438 16.9375 -3.613281 17.53125 -4.375 C 18.132812 -5.132812 18.4375 -6.019531 18.4375 -7.03125 C 18.4375 -8.289062 18.09375 -9.304688 17.40625 -10.078125 C 16.726562 -10.859375 15.832031 -11.5 14.71875 -12 C 13.601562 -12.507812 12.363281 -12.96875 11 -13.375 C 9.882812 -13.695312 8.820312 -14.066406 7.8125 -14.484375 C 6.800781 -14.910156 5.898438 -15.429688 5.109375 -16.046875 C 4.316406 -16.660156 3.703125 -17.414062 3.265625 -18.3125 C 2.828125 -19.21875 2.609375 -20.3125 2.609375 -21.59375 C 2.609375 -23.03125 2.988281 -24.304688 3.75 -25.421875 C 4.519531 -26.546875 5.609375 -27.425781 7.015625 -28.0625 C 8.421875 -28.707031 10.050781 -29.03125 11.90625 -29.03125 C 13.507812 -29.03125 15.050781 -28.753906 16.53125 -28.203125 C 18.019531 -27.660156 19.203125 -26.859375 20.078125 -25.796875 C 20.484375 -25.359375 20.6875 -24.960938 20.6875 -24.609375 C 20.6875 -24.335938 20.550781 -24.066406 20.28125 -23.796875 C 20.007812 -23.523438 19.707031 -23.390625 19.375 -23.390625 C 19.101562 -23.390625 18.875 -23.484375 18.6875 -23.671875 C 18.21875 -24.242188 17.628906 -24.753906 16.921875 -25.203125 C 16.210938 -25.660156 15.429688 -26.007812 14.578125 -26.25 C 13.722656 -26.5 12.832031 -26.625 11.90625 -26.625 C 10.625 -26.625 9.46875 -26.425781 8.4375 -26.03125 C 7.414062 -25.632812 6.613281 -25.066406 6.03125 -24.328125 C 5.445312 -23.585938 5.15625 -22.703125 5.15625 -21.671875 C 5.15625 -20.523438 5.476562 -19.582031 6.125 -18.84375 C 6.78125 -18.113281 7.640625 -17.507812 8.703125 -17.03125 C 9.765625 -16.550781 10.898438 -16.109375 12.109375 -15.703125 C 13.273438 -15.378906 14.394531 -15.003906 15.46875 -14.578125 C 16.550781 -14.148438 17.507812 -13.625 18.34375 -13 C 19.175781 -12.375 19.828125 -11.582031 20.296875 -10.625 C 20.773438 -9.675781 21.015625 -8.476562 21.015625 -7.03125 C 21.015625 -5.644531 20.617188 -4.390625 19.828125 -3.265625 C 19.035156 -2.148438 17.953125 -1.265625 16.578125 -0.609375 C 15.203125 0.046875 13.585938 0.382812 11.734375 0.40625 Z M 11.734375 0.40625 "/></g></g></g><g fill="#ffffff" fill-opacity="1"><g transform="translate(43.709002, 41.894135)"><g><path d="M 12.34375 0 C 11.96875 0 11.660156 -0.117188 11.421875 -0.359375 C 11.191406 -0.609375 11.078125 -0.898438 11.078125 -1.234375 L 11.078125 -27.28125 L 13.609375 -27.28125 L 13.609375 -1.234375 C 13.609375 -0.898438 13.484375 -0.609375 13.234375 -0.359375 C 12.992188 -0.117188 12.695312 0 12.34375 0 Z M 2.609375 -26.296875 C 2.285156 -26.296875 2 -26.40625 1.75 -26.625 C 1.507812 -26.84375 1.390625 -27.128906 1.390625 -27.484375 C 1.390625 -27.804688 1.507812 -28.078125 1.75 -28.296875 C 2 -28.515625 2.285156 -28.625 2.609375 -28.625 L 22.078125 -28.625 C 22.410156 -28.625 22.695312 -28.515625 22.9375 -28.296875 C 23.1875 -28.078125 23.3125 -27.789062 23.3125 -27.4375 C 23.3125 -27.082031 23.1875 -26.800781 22.9375 -26.59375 C 22.695312 -26.394531 22.410156 -26.296875 22.078125 -26.296875 Z M 2.609375 -26.296875 "/></g></g></g><g fill="#ffffff" fill-opacity="1"><g transform="translate(62.471521, 41.894135)"><g><path d="M 3.5625 0 C 3.09375 0 2.734375 -0.148438 2.484375 -0.453125 C 2.242188 -0.753906 2.125 -1.132812 2.125 -1.59375 L 2.125 -2.453125 C 2.125 -2.941406 2.242188 -3.320312 2.484375 -3.59375 C 2.734375 -3.863281 3.09375 -4 3.5625 -4 L 3.84375 -4 C 4.300781 -4 4.65625 -3.863281 4.90625 -3.59375 C 5.15625 -3.320312 5.28125 -2.941406 5.28125 -2.453125 L 5.28125 -1.59375 C 5.28125 -1.132812 5.15625 -0.753906 4.90625 -0.453125 C 4.65625 -0.148438 4.300781 0 3.84375 0 Z M 3.5625 0 "/></g></g></g><g fill="#ffffff" fill-opacity="1"><g transform="translate(68.030534, 41.894135)"><g/></g></g><g fill="#ffffff" fill-opacity="1"><g transform="translate(77.350454, 41.894135)"><g><path d="M 19.375 -2.375 C 19.707031 -2.375 19.988281 -2.253906 20.21875 -2.015625 C 20.445312 -1.785156 20.5625 -1.507812 20.5625 -1.1875 C 20.5625 -0.832031 20.445312 -0.546875 20.21875 -0.328125 C 19.988281 -0.109375 19.707031 0 19.375 0 L 4.046875 0 C 3.691406 0 3.382812 -0.0976562 3.125 -0.296875 C 2.863281 -0.503906 2.734375 -0.816406 2.734375 -1.234375 C 2.734375 -1.523438 2.84375 -1.804688 3.0625 -2.078125 L 12.515625 -12.515625 C 14.015625 -14.148438 15.140625 -15.65625 15.890625 -17.03125 C 16.640625 -18.40625 17.015625 -19.640625 17.015625 -20.734375 C 17.015625 -22.535156 16.46875 -23.976562 15.375 -25.0625 C 14.28125 -26.15625 12.804688 -26.703125 10.953125 -26.703125 C 10.109375 -26.703125 9.269531 -26.523438 8.4375 -26.171875 C 7.613281 -25.816406 6.878906 -25.351562 6.234375 -24.78125 C 5.597656 -24.207031 5.101562 -23.550781 4.75 -22.8125 C 4.582031 -22.539062 4.410156 -22.347656 4.234375 -22.234375 C 4.054688 -22.128906 3.859375 -22.078125 3.640625 -22.078125 C 3.316406 -22.078125 3.03125 -22.175781 2.78125 -22.375 C 2.53125 -22.582031 2.40625 -22.835938 2.40625 -23.140625 C 2.40625 -23.335938 2.453125 -23.53125 2.546875 -23.71875 C 2.648438 -23.90625 2.796875 -24.125 2.984375 -24.375 C 3.472656 -25.21875 4.15625 -25.992188 5.03125 -26.703125 C 5.90625 -27.410156 6.878906 -27.972656 7.953125 -28.390625 C 9.023438 -28.816406 10.082031 -29.03125 11.125 -29.03125 C 12.863281 -29.03125 14.367188 -28.695312 15.640625 -28.03125 C 16.910156 -27.363281 17.890625 -26.421875 18.578125 -25.203125 C 19.273438 -23.992188 19.625 -22.554688 19.625 -20.890625 C 19.625 -19.472656 19.179688 -17.925781 18.296875 -16.25 C 17.410156 -14.570312 16.097656 -12.769531 14.359375 -10.84375 L 6.375 -1.875 L 5.96875 -2.375 Z M 19.375 -2.375 "/></g></g></g><g fill="#ffffff" fill-opacity="1"><g transform="translate(98.157452, 41.894135)"><g><path d="M 12.140625 0.40625 C 9.960938 0.40625 8.132812 -0.242188 6.65625 -1.546875 C 5.1875 -2.859375 4.082031 -4.625 3.34375 -6.84375 C 2.613281 -9.070312 2.25 -11.5625 2.25 -14.3125 C 2.25 -17.09375 2.613281 -19.59375 3.34375 -21.8125 C 4.082031 -24.03125 5.1875 -25.785156 6.65625 -27.078125 C 8.132812 -28.378906 9.960938 -29.03125 12.140625 -29.03125 C 14.378906 -29.03125 16.226562 -28.378906 17.6875 -27.078125 C 19.144531 -25.785156 20.238281 -24.03125 20.96875 -21.8125 C 21.707031 -19.59375 22.078125 -17.09375 22.078125 -14.3125 C 22.078125 -11.5625 21.707031 -9.070312 20.96875 -6.84375 C 20.238281 -4.625 19.144531 -2.859375 17.6875 -1.546875 C 16.226562 -0.242188 14.378906 0.40625 12.140625 0.40625 Z M 12.140625 -2.125 C 13.753906 -2.125 15.097656 -2.628906 16.171875 -3.640625 C 17.242188 -4.648438 18.0625 -6.070312 18.625 -7.90625 C 19.1875 -9.75 19.46875 -11.882812 19.46875 -14.3125 C 19.46875 -16.757812 19.1875 -18.90625 18.625 -20.75 C 18.0625 -22.59375 17.242188 -24.015625 16.171875 -25.015625 C 15.097656 -26.023438 13.753906 -26.53125 12.140625 -26.53125 C 10.554688 -26.53125 9.226562 -26.023438 8.15625 -25.015625 C 7.082031 -24.015625 6.265625 -22.59375 5.703125 -20.75 C 5.140625 -18.90625 4.859375 -16.757812 4.859375 -14.3125 C 4.859375 -11.882812 5.140625 -9.75 5.703125 -7.90625 C 6.265625 -6.070312 7.082031 -4.648438 8.15625 -3.640625 C 9.226562 -2.628906 10.554688 -2.125 12.140625 -2.125 Z M 12.140625 -2.125 "/></g></g></g><g fill="#ffffff" fill-opacity="1"><g transform="translate(120.64048, 41.894135)"><g><path d="M 19.375 -2.375 C 19.707031 -2.375 19.988281 -2.253906 20.21875 -2.015625 C 20.445312 -1.785156 20.5625 -1.507812 20.5625 -1.1875 C 20.5625 -0.832031 20.445312 -0.546875 20.21875 -0.328125 C 19.988281 -0.109375 19.707031 0 19.375 0 L 4.046875 0 C 3.691406 0 3.382812 -0.0976562 3.125 -0.296875 C 2.863281 -0.503906 2.734375 -0.816406 2.734375 -1.234375 C 2.734375 -1.523438 2.84375 -1.804688 3.0625 -2.078125 L 12.515625 -12.515625 C 14.015625 -14.148438 15.140625 -15.65625 15.890625 -17.03125 C 16.640625 -18.40625 17.015625 -19.640625 17.015625 -20.734375 C 17.015625 -22.535156 16.46875 -23.976562 15.375 -25.0625 C 14.28125 -26.15625 12.804688 -26.703125 10.953125 -26.703125 C 10.109375 -26.703125 9.269531 -26.523438 8.4375 -26.171875 C 7.613281 -25.816406 6.878906 -25.351562 6.234375 -24.78125 C 5.597656 -24.207031 5.101562 -23.550781 4.75 -22.8125 C 4.582031 -22.539062 4.410156 -22.347656 4.234375 -22.234375 C 4.054688 -22.128906 3.859375 -22.078125 3.640625 -22.078125 C 3.316406 -22.078125 3.03125 -22.175781 2.78125 -22.375 C 2.53125 -22.582031 2.40625 -22.835938 2.40625 -23.140625 C 2.40625 -23.335938 2.453125 -23.53125 2.546875 -23.71875 C 2.648438 -23.90625 2.796875 -24.125 2.984375 -24.375 C 3.472656 -25.21875 4.15625 -25.992188 5.03125 -26.703125 C 5.90625 -27.410156 6.878906 -27.972656 7.953125 -28.390625 C 9.023438 -28.816406 10.082031 -29.03125 11.125 -29.03125 C 12.863281 -29.03125 14.367188 -28.695312 15.640625 -28.03125 C 16.910156 -27.363281 17.890625 -26.421875 18.578125 -25.203125 C 19.273438 -23.992188 19.625 -22.554688 19.625 -20.890625 C 19.625 -19.472656 19.179688 -17.925781 18.296875 -16.25 C 17.410156 -14.570312 16.097656 -12.769531 14.359375 -10.84375 L 6.375 -1.875 L 5.96875 -2.375 Z M 19.375 -2.375 "/></g></g></g><g fill="#ffffff" fill-opacity="1"><g transform="translate(141.447478, 41.894135)"><g><path d="M 11.734375 0.40625 C 10.148438 0.40625 8.765625 0.117188 7.578125 -0.453125 C 6.398438 -1.023438 5.421875 -1.796875 4.640625 -2.765625 C 3.859375 -3.734375 3.285156 -4.828125 2.921875 -6.046875 C 2.554688 -7.273438 2.375 -8.53125 2.375 -9.8125 C 2.375 -11.125 2.535156 -12.535156 2.859375 -14.046875 C 3.191406 -15.554688 3.695312 -17.085938 4.375 -18.640625 C 5.050781 -20.203125 5.882812 -21.675781 6.875 -23.0625 C 7.875 -24.445312 9.035156 -25.691406 10.359375 -26.796875 C 11.679688 -27.898438 13.175781 -28.769531 14.84375 -29.40625 C 15.03125 -29.457031 15.191406 -29.484375 15.328125 -29.484375 C 15.679688 -29.484375 15.988281 -29.382812 16.25 -29.1875 C 16.507812 -29 16.640625 -28.675781 16.640625 -28.21875 C 16.640625 -27.945312 16.550781 -27.707031 16.375 -27.5 C 16.195312 -27.289062 15.957031 -27.132812 15.65625 -27.03125 C 14.507812 -26.539062 13.378906 -25.84375 12.265625 -24.9375 C 11.148438 -24.039062 10.113281 -23.003906 9.15625 -21.828125 C 8.207031 -20.660156 7.394531 -19.398438 6.71875 -18.046875 C 6.050781 -16.703125 5.582031 -15.332031 5.3125 -13.9375 L 4.421875 -13.40625 C 4.910156 -14.3125 5.539062 -15.109375 6.3125 -15.796875 C 7.09375 -16.492188 7.988281 -17.050781 9 -17.46875 C 10.007812 -17.894531 11.097656 -18.109375 12.265625 -18.109375 C 13.492188 -18.109375 14.625 -17.847656 15.65625 -17.328125 C 16.695312 -16.816406 17.59375 -16.117188 18.34375 -15.234375 C 19.09375 -14.347656 19.675781 -13.34375 20.09375 -12.21875 C 20.519531 -11.101562 20.734375 -9.945312 20.734375 -8.75 C 20.734375 -7.144531 20.34375 -5.644531 19.5625 -4.25 C 18.789062 -2.863281 17.726562 -1.738281 16.375 -0.875 C 15.03125 -0.0195312 13.484375 0.40625 11.734375 0.40625 Z M 11.6875 -1.96875 C 12.945312 -1.96875 14.066406 -2.253906 15.046875 -2.828125 C 16.023438 -3.398438 16.796875 -4.195312 17.359375 -5.21875 C 17.921875 -6.238281 18.203125 -7.414062 18.203125 -8.75 C 18.203125 -9.976562 17.960938 -11.113281 17.484375 -12.15625 C 17.003906 -13.207031 16.289062 -14.066406 15.34375 -14.734375 C 14.40625 -15.410156 13.242188 -15.75 11.859375 -15.75 C 10.410156 -15.75 9.160156 -15.421875 8.109375 -14.765625 C 7.066406 -14.109375 6.265625 -13.238281 5.703125 -12.15625 C 5.140625 -11.082031 4.859375 -9.90625 4.859375 -8.625 C 4.859375 -7.476562 5.128906 -6.394531 5.671875 -5.375 C 6.222656 -4.351562 7.007812 -3.53125 8.03125 -2.90625 C 9.050781 -2.28125 10.269531 -1.96875 11.6875 -1.96875 Z M 11.6875 -1.96875 "/></g></g></g></g></g></g></g></svg>