<svg xmlns="http://www.w3.org/2000/svg" xmlns:xlink="http://www.w3.org/1999/xlink" width="1200" zoomAndPan="magnify" viewBox="0 0 900 899.99999" height="1200" preserveAspectRatio="xMidYMid meet" version="1.0"><defs><g/><clipPath id="fb5114bacd"><path d="M 162.894531 67.910156 L 757.441406 67.910156 L 757.441406 859.867188 L 162.894531 859.867188 Z M 162.894531 67.910156 " clip-rule="nonzero"/></clipPath><clipPath id="c1de2fd185"><path d="M 204.894531 67.910156 L 715.441406 67.910156 C 726.582031 67.910156 737.265625 72.335938 745.140625 80.210938 C 753.015625 88.085938 757.441406 98.769531 757.441406 109.910156 L 757.441406 817.84375 C 757.441406 828.984375 753.015625 839.667969 745.140625 847.542969 C 737.265625 855.421875 726.582031 859.84375 715.441406 859.84375 L 204.894531 859.84375 C 193.753906 859.84375 183.070312 855.421875 175.195312 847.542969 C 167.320312 839.667969 162.894531 828.984375 162.894531 817.84375 L 162.894531 109.910156 C 162.894531 98.769531 167.320312 88.085938 175.195312 80.210938 C 183.070312 72.335938 193.753906 67.910156 204.894531 67.910156 Z M 204.894531 67.910156 " clip-rule="nonzero"/></clipPath><clipPath id="b7e06cbe30"><path d="M 0.894531 0.910156 L 595.441406 0.910156 L 595.441406 792.867188 L 0.894531 792.867188 Z M 0.894531 0.910156 " clip-rule="nonzero"/></clipPath><clipPath id="4a2145d466"><path d="M 42.894531 0.910156 L 553.441406 0.910156 C 564.582031 0.910156 575.265625 5.335938 583.140625 13.210938 C 591.015625 21.085938 595.441406 31.769531 595.441406 42.910156 L 595.441406 750.84375 C 595.441406 761.984375 591.015625 772.667969 583.140625 780.542969 C 575.265625 788.421875 564.582031 792.84375 553.441406 792.84375 L 42.894531 792.84375 C 31.753906 792.84375 21.070312 788.421875 13.195312 780.542969 C 5.320312 772.667969 0.894531 761.984375 0.894531 750.84375 L 0.894531 42.910156 C 0.894531 31.769531 5.320312 21.085938 13.195312 13.210938 C 21.070312 5.335938 31.753906 0.910156 42.894531 0.910156 Z M 42.894531 0.910156 " clip-rule="nonzero"/></clipPath><clipPath id="47578479c3"><rect x="0" width="596" y="0" height="793"/></clipPath><clipPath id="5ab2a7816f"><path d="M 149.695312 57.523438 L 748.492188 57.523438 L 748.492188 852 L 149.695312 852 Z M 149.695312 57.523438 " clip-rule="nonzero"/></clipPath><clipPath id="39da80010e"><path d="M 191.695312 57.523438 L 706.492188 57.523438 C 717.632812 57.523438 728.3125 61.949219 736.191406 69.824219 C 744.066406 77.699219 748.492188 88.382812 748.492188 99.523438 L 748.492188 809.476562 C 748.492188 820.617188 744.066406 831.300781 736.191406 839.175781 C 728.3125 847.050781 717.632812 851.476562 706.492188 851.476562 L 191.695312 851.476562 C 180.558594 851.476562 169.875 847.050781 161.996094 839.175781 C 154.121094 831.300781 149.695312 820.617188 149.695312 809.476562 L 149.695312 99.523438 C 149.695312 88.382812 154.121094 77.699219 161.996094 69.824219 C 169.875 61.949219 180.558594 57.523438 191.695312 57.523438 Z M 191.695312 57.523438 " clip-rule="nonzero"/></clipPath><clipPath id="674cccd2f9"><path d="M 0.695312 0.523438 L 599.492188 0.523438 L 599.492188 794 L 0.695312 794 Z M 0.695312 0.523438 " clip-rule="nonzero"/></clipPath><clipPath id="2cfff620f5"><path d="M 42.695312 0.523438 L 557.492188 0.523438 C 568.632812 0.523438 579.3125 4.949219 587.191406 12.824219 C 595.066406 20.699219 599.492188 31.382812 599.492188 42.523438 L 599.492188 752.476562 C 599.492188 763.617188 595.066406 774.300781 587.191406 782.175781 C 579.3125 790.050781 568.632812 794.476562 557.492188 794.476562 L 42.695312 794.476562 C 31.558594 794.476562 20.875 790.050781 12.996094 782.175781 C 5.121094 774.300781 0.695312 763.617188 0.695312 752.476562 L 0.695312 42.523438 C 0.695312 31.382812 5.121094 20.699219 12.996094 12.824219 C 20.875 4.949219 31.558594 0.523438 42.695312 0.523438 Z M 42.695312 0.523438 " clip-rule="nonzero"/></clipPath><clipPath id="a6529fd252"><rect x="0" width="600" y="0" height="795"/></clipPath><clipPath id="774b7626b4"><path d="M 149.695312 57.523438 L 748.195312 57.523438 L 748.195312 851.773438 L 149.695312 851.773438 Z M 149.695312 57.523438 " clip-rule="nonzero"/></clipPath><clipPath id="3201e31c13"><path d="M 191.699219 57.523438 L 706.488281 57.523438 C 717.625 57.523438 728.308594 61.949219 736.1875 69.824219 C 744.0625 77.699219 748.488281 88.382812 748.488281 99.523438 L 748.488281 809.46875 C 748.488281 820.609375 744.0625 831.289062 736.1875 839.167969 C 728.308594 847.042969 717.625 851.46875 706.488281 851.46875 L 191.699219 851.46875 C 180.558594 851.46875 169.875 847.042969 162 839.167969 C 154.125 831.289062 149.699219 820.609375 149.699219 809.46875 L 149.699219 99.523438 C 149.699219 88.382812 154.125 77.699219 162 69.824219 C 169.875 61.949219 180.558594 57.523438 191.699219 57.523438 Z M 191.699219 57.523438 " clip-rule="nonzero"/></clipPath><clipPath id="a77ea0a7d3"><path d="M 134.308594 50.769531 L 734.09375 50.769531 L 734.09375 840 L 134.308594 840 Z M 134.308594 50.769531 " clip-rule="nonzero"/></clipPath><clipPath id="adedc0903d"><path d="M 176.308594 50.769531 L 692.09375 50.769531 C 703.234375 50.769531 713.917969 55.191406 721.792969 63.070312 C 729.671875 70.945312 734.09375 81.628906 734.09375 92.769531 L 734.09375 797.152344 C 734.09375 808.292969 729.671875 818.976562 721.792969 826.851562 C 713.917969 834.726562 703.234375 839.152344 692.09375 839.152344 L 176.308594 839.152344 C 165.167969 839.152344 154.484375 834.726562 146.609375 826.851562 C 138.734375 818.976562 134.308594 808.292969 134.308594 797.152344 L 134.308594 92.769531 C 134.308594 81.628906 138.734375 70.945312 146.609375 63.070312 C 154.484375 55.191406 165.167969 50.769531 176.308594 50.769531 Z M 176.308594 50.769531 " clip-rule="nonzero"/></clipPath><clipPath id="fc0fdadd16"><path d="M 0.308594 0.769531 L 600.09375 0.769531 L 600.09375 788 L 0.308594 788 Z M 0.308594 0.769531 " clip-rule="nonzero"/></clipPath><clipPath id="e298ce28ff"><path d="M 42.308594 0.769531 L 558.09375 0.769531 C 569.234375 0.769531 579.917969 5.191406 587.792969 13.070312 C 595.671875 20.945312 600.09375 31.628906 600.09375 42.769531 L 600.09375 747.152344 C 600.09375 758.292969 595.671875 768.976562 587.792969 776.851562 C 579.917969 784.726562 569.234375 789.152344 558.09375 789.152344 L 42.308594 789.152344 C 31.167969 789.152344 20.484375 784.726562 12.609375 776.851562 C 4.734375 768.976562 0.308594 758.292969 0.308594 747.152344 L 0.308594 42.769531 C 0.308594 31.628906 4.734375 20.945312 12.609375 13.070312 C 20.484375 5.191406 31.167969 0.769531 42.308594 0.769531 Z M 42.308594 0.769531 " clip-rule="nonzero"/></clipPath><clipPath id="10cc0b8bda"><rect x="0" width="601" y="0" height="790"/></clipPath><clipPath id="5615d5085d"><path d="M 134.308594 50.769531 L 734.308594 50.769531 L 734.308594 839.019531 L 134.308594 839.019531 Z M 134.308594 50.769531 " clip-rule="nonzero"/></clipPath><clipPath id="8d922347c0"><path d="M 176.308594 50.769531 L 692.085938 50.769531 C 703.226562 50.769531 713.90625 55.195312 721.785156 63.070312 C 729.660156 70.949219 734.085938 81.632812 734.085938 92.769531 L 734.085938 797.144531 C 734.085938 808.285156 729.660156 818.964844 721.785156 826.84375 C 713.90625 834.71875 703.226562 839.144531 692.085938 839.144531 L 176.308594 839.144531 C 165.167969 839.144531 154.484375 834.71875 146.609375 826.84375 C 138.734375 818.964844 134.308594 808.285156 134.308594 797.144531 L 134.308594 92.769531 C 134.308594 81.632812 138.734375 70.949219 146.609375 63.070312 C 154.484375 55.195312 165.167969 50.769531 176.308594 50.769531 Z M 176.308594 50.769531 " clip-rule="nonzero"/></clipPath><clipPath id="ae47cf0e5e"><rect x="0" width="300" y="0" height="356"/></clipPath><clipPath id="b1ecd23dda"><path d="M 3 2 L 288.761719 2 L 288.761719 287 L 3 287 Z M 3 2 " clip-rule="nonzero"/></clipPath><clipPath id="a9cc7c4b40"><rect x="0" width="289" y="0" height="359"/></clipPath><clipPath id="6b8791cbab"><rect x="0" width="409" y="0" height="56"/></clipPath><clipPath id="c5bbc96851"><rect x="0" width="176" y="0" height="56"/></clipPath></defs><g clip-path="url(#fb5114bacd)"><g clip-path="url(#c1de2fd185)"><g transform="matrix(1, 0, 0, 1, 162, 67)"><g clip-path="url(#47578479c3)"><g clip-path="url(#b7e06cbe30)"><g clip-path="url(#4a2145d466)"><path fill="#283c54" d="M 0.894531 0.910156 L 595.441406 0.910156 L 595.441406 792.867188 L 0.894531 792.867188 Z M 0.894531 0.910156 " fill-opacity="1" fill-rule="nonzero"/></g></g></g></g></g></g><g clip-path="url(#5ab2a7816f)"><g clip-path="url(#39da80010e)"><g transform="matrix(1, 0, 0, 1, 149, 57)"><g clip-path="url(#a6529fd252)"><g clip-path="url(#674cccd2f9)"><g clip-path="url(#2cfff620f5)"><path fill="#ffffff" d="M 0.695312 0.523438 L 599.492188 0.523438 L 599.492188 793.457031 L 0.695312 793.457031 Z M 0.695312 0.523438 " fill-opacity="1" fill-rule="nonzero"/></g></g></g></g></g></g><g clip-path="url(#774b7626b4)"><g clip-path="url(#3201e31c13)"><path stroke-linecap="butt" transform="matrix(0.75, 0, 0, 0.75, 149.696409, 57.522672)" fill="none" stroke-linejoin="miter" d="M 56.003753 0.00102041 L 742.389249 0.00102041 C 757.238209 0.00102041 771.483003 5.902063 781.988212 16.402064 C 792.488214 26.902065 798.389256 41.146859 798.389256 56.001027 L 798.389256 1002.594887 C 798.389256 1017.443847 792.488214 1031.68864 781.988212 1042.19385 C 771.483003 1052.693851 757.238209 1058.594894 742.389249 1058.594894 L 56.003753 1058.594894 C 41.149584 1058.594894 26.904791 1052.693851 16.40479 1042.19385 C 5.904789 1031.68864 0.00374638 1017.443847 0.00374638 1002.594887 L 0.00374638 56.001027 C 0.00374638 41.146859 5.904789 26.902065 16.40479 16.402064 C 26.904791 5.902063 41.149584 0.00102041 56.003753 0.00102041 Z M 56.003753 0.00102041 " stroke="#283c54" stroke-width="8" stroke-opacity="1" stroke-miterlimit="4"/></g></g><path stroke-linecap="butt" transform="matrix(0.511409, 0.548599, -0.548599, 0.511409, 522.562249, 343.998636)" fill="none" stroke-linejoin="miter" d="M 2.578866 39.429735 C 78.801637 -6.474561 155.020766 -6.476949 231.243871 39.429673 " stroke="#283c54" stroke-width="10" stroke-opacity="1" stroke-miterlimit="4"/><g clip-path="url(#a77ea0a7d3)"><g clip-path="url(#adedc0903d)"><g transform="matrix(1, 0, 0, 1, 134, 50)"><g clip-path="url(#10cc0b8bda)"><g clip-path="url(#fc0fdadd16)"><g clip-path="url(#e298ce28ff)"><path fill="#8ab49c" d="M 0.308594 0.769531 L 600.09375 0.769531 L 600.09375 787.988281 L 0.308594 787.988281 Z M 0.308594 0.769531 " fill-opacity="1" fill-rule="nonzero"/></g></g></g></g></g></g><g clip-path="url(#5615d5085d)"><g clip-path="url(#8d922347c0)"><path stroke-linecap="butt" transform="matrix(0.75, 0, 0, 0.75, 134.308152, 50.767868)" fill="none" stroke-linejoin="miter" d="M 56.000588 0.00221801 L 743.703705 0.00221801 C 758.557872 0.00221801 772.797455 5.90326 783.302663 16.403259 C 793.802663 26.908468 799.703704 41.153259 799.703704 56.002217 L 799.703704 995.168873 C 799.703704 1010.02304 793.802663 1024.262623 783.302663 1034.767831 C 772.797455 1045.267831 758.557872 1051.168872 743.703705 1051.168872 L 56.000588 1051.168872 C 41.146422 1051.168872 26.90163 1045.267831 16.40163 1034.767831 C 5.90163 1024.262623 0.000588772 1010.02304 0.000588772 995.168873 L 0.000588772 56.002217 C 0.000588772 41.153259 5.90163 26.908468 16.40163 16.403259 C 26.90163 5.90326 41.146422 0.00221801 56.000588 0.00221801 Z M 56.000588 0.00221801 " stroke="#283c54" stroke-width="6" stroke-opacity="1" stroke-miterlimit="4"/></g></g><g transform="matrix(1, 0, 0, 1, 220, 233)"><g clip-path="url(#ae47cf0e5e)"><g fill="#ffffff" fill-opacity="1"><g transform="translate(0.165233, 266.695238)"><g><path d="M 254.875 -248.84375 L 288.546875 -248.84375 L 288.546875 -245.65625 C 287.597656 -245.65625 286 -244.0625 283.75 -240.875 C 281.507812 -237.6875 280.390625 -230.179688 280.390625 -218.359375 L 280.390625 -30.484375 C 280.390625 -18.898438 281.507812 -11.453125 283.75 -8.140625 C 286 -4.835938 287.597656 -3.1875 288.546875 -3.1875 L 288.546875 0 L 246.71875 0 L 246.71875 -3.1875 C 247.90625 -3.1875 249.5625 -4.835938 251.6875 -8.140625 C 253.8125 -11.453125 254.875 -18.898438 254.875 -30.484375 L 254.875 -241.40625 L 148.53125 -20.921875 L 158.453125 0 L 130.453125 0 L 27.296875 -214.46875 L 27.296875 -58.140625 C 27.296875 -41.597656 28.890625 -28.300781 32.078125 -18.25 C 35.265625 -8.207031 38.160156 -3.1875 40.765625 -3.1875 L 40.765625 0 L 10.640625 0 L 10.640625 -3.1875 C 13.234375 -3.1875 16.125 -8.207031 19.3125 -18.25 C 22.507812 -28.300781 24.109375 -41.597656 24.109375 -58.140625 L 24.109375 -220.84375 L 10.640625 -248.84375 L 38.640625 -248.84375 L 146.75 -24.453125 Z M 254.875 -248.84375 "/></g></g></g></g></g><g transform="matrix(1, 0, 0, 1, 395, 337)"><g clip-path="url(#a9cc7c4b40)"><g clip-path="url(#b1ecd23dda)"><g fill="#8ab49c" fill-opacity="1"><g transform="translate(9.486644, 269.062709)"><g><path d="M 2.046875 -88.730469 C -2.914062 -107.261719 -4.082031 -125.640625 -1.460938 -143.863281 C 1.144531 -161.96875 6.949219 -178.847656 15.949219 -194.5 C 24.964844 -210.179688 36.652344 -223.632812 51.011719 -234.859375 C 65.429688 -246.132812 81.902344 -254.25 100.425781 -259.207031 C 118.960938 -264.167969 137.339844 -265.335938 155.5625 -262.714844 C 173.667969 -260.109375 190.546875 -254.304688 206.199219 -245.304688 C 221.878906 -236.289062 235.332031 -224.601562 246.558594 -210.242188 C 257.832031 -195.820312 265.949219 -179.351562 270.90625 -160.828125 C 275.867188 -142.289062 277.035156 -123.964844 274.410156 -105.855469 C 271.804688 -87.871094 266 -71.054688 257.003906 -55.40625 C 248 -39.753906 236.332031 -26.253906 222 -14.917969 C 207.566406 -3.503906 191.074219 4.6875 172.523438 9.652344 C 153.984375 14.613281 135.664062 15.78125 117.554688 13.15625 C 99.570312 10.550781 82.753906 4.746094 67.105469 -4.25 C 51.449219 -13.253906 37.953125 -24.921875 26.617188 -39.253906 C 15.199219 -53.6875 7.011719 -70.179688 2.046875 -88.730469 Z M 27.730469 -95.601562 C 31.746094 -80.59375 38.328125 -67.308594 47.46875 -55.746094 C 56.691406 -44.085938 67.65625 -34.601562 80.359375 -27.296875 C 93.070312 -19.988281 106.738281 -15.277344 121.367188 -13.15625 C 135.871094 -11.054688 150.632812 -12.011719 165.652344 -16.03125 C 180.660156 -20.046875 193.945312 -26.628906 205.507812 -35.773438 C 217.167969 -44.996094 226.652344 -55.957031 233.953125 -68.660156 C 241.261719 -81.371094 245.976562 -95.039062 248.097656 -109.667969 C 250.199219 -124.171875 249.242188 -138.933594 245.222656 -153.953125 C 241.199219 -168.988281 234.660156 -182.292969 225.613281 -193.867188 C 216.515625 -205.503906 205.628906 -214.964844 192.945312 -222.257812 C 180.242188 -229.5625 166.515625 -234.277344 151.773438 -236.398438 C 137.148438 -238.503906 122.324219 -237.542969 107.300781 -233.523438 C 92.265625 -229.5 78.960938 -222.964844 67.386719 -213.914062 C 55.75 -204.816406 46.289062 -193.929688 38.996094 -181.25 C 31.691406 -168.542969 26.976562 -154.820312 24.855469 -140.078125 C 22.75 -125.449219 23.710938 -110.625 27.730469 -95.601562 Z M 220.011719 -147.378906 C 216.8125 -159.96875 211.566406 -172.050781 204.277344 -183.628906 C 197 -195.183594 188.183594 -205.230469 177.820312 -213.777344 C 167.820312 -222.027344 156.875 -227.789062 144.992188 -231.070312 C 133.582031 -234.21875 121.347656 -234.082031 108.289062 -230.667969 C 95.308594 -227.273438 84.652344 -221.316406 76.328125 -212.792969 C 67.585938 -203.84375 60.941406 -193.328125 56.398438 -181.246094 C 51.714844 -168.796875 49.160156 -155.742188 48.734375 -142.085938 C 48.300781 -128.210938 49.703125 -114.90625 52.941406 -102.175781 C 56.328125 -89.902344 61.691406 -77.9375 69.03125 -66.28125 C 76.316406 -54.707031 85.09375 -44.644531 95.359375 -36.089844 C 105.242188 -27.851562 116.242188 -22.039062 128.359375 -18.652344 C 139.90625 -15.421875 152.046875 -15.597656 164.78125 -19.175781 C 177.890625 -22.609375 188.546875 -28.570312 196.746094 -37.058594 C 205.398438 -46.019531 212 -56.554688 216.554688 -68.664062 C 221.246094 -81.148438 223.863281 -94.234375 224.398438 -107.925781 C 224.933594 -121.675781 223.496094 -134.738281 220.078125 -147.121094 Z M 245.710938 -154.191406 C 249.855469 -139.15625 251.609375 -123.390625 250.964844 -106.890625 C 250.316406 -90.332031 247.140625 -74.472656 241.4375 -59.304688 C 235.59375 -43.761719 227.070312 -30.191406 215.871094 -18.59375 C 204.21875 -6.523438 189.585938 1.8125 171.976562 6.417969 C 154.460938 11.34375 137.535156 11.523438 121.199219 6.953125 C 105.425781 2.542969 91.140625 -4.996094 78.339844 -15.664062 C 65.917969 -26.015625 55.3125 -38.167969 46.53125 -52.117188 C 37.800781 -65.984375 31.347656 -80.484375 27.171875 -95.625 C 23.320312 -110.777344 21.648438 -126.542969 22.160156 -142.917969 C 22.679688 -159.507812 25.796875 -175.40625 31.511719 -190.605469 C 37.367188 -206.171875 45.96875 -219.761719 57.3125 -231.371094 C 69.074219 -243.410156 83.824219 -251.75 101.5625 -256.390625 C 119.226562 -261.011719 136.0625 -261.113281 152.0625 -256.699219 C 167.59375 -252.414062 181.816406 -244.945312 194.738281 -234.289062 C 207.300781 -223.925781 217.980469 -211.761719 226.773438 -197.792969 C 235.554688 -183.851562 241.890625 -169.226562 245.777344 -153.929688 Z M 245.710938 -154.191406 "/></g></g></g></g><g fill="#ffffff" fill-opacity="1"><g transform="translate(9.486644, 269.062709)"><g><path d="M 14.890625 -92.171875 C 10.398438 -108.941406 9.335938 -125.539062 11.703125 -141.96875 C 14.066406 -158.394531 19.320312 -173.695312 27.46875 -187.875 C 35.625 -202.050781 46.203125 -214.21875 59.203125 -224.375 C 72.203125 -234.539062 87.085938 -241.867188 103.859375 -246.359375 C 120.640625 -250.859375 137.242188 -251.925781 153.671875 -249.5625 C 170.097656 -247.195312 185.398438 -241.9375 199.578125 -233.78125 C 213.753906 -225.625 225.921875 -215.046875 236.078125 -202.046875 C 246.242188 -189.054688 253.570312 -174.171875 258.0625 -157.390625 C 262.550781 -140.609375 263.613281 -124.0625 261.25 -107.75 C 258.882812 -91.445312 253.625 -76.207031 245.46875 -62.03125 C 237.320312 -47.851562 226.75 -35.625 213.75 -25.34375 C 200.75 -15.0625 185.863281 -7.675781 169.09375 -3.1875 C 152.3125 1.300781 135.765625 2.363281 119.453125 0 C 103.148438 -2.363281 87.910156 -7.617188 73.734375 -15.765625 C 59.554688 -23.921875 47.328125 -34.5 37.046875 -47.5 C 26.765625 -60.5 19.378906 -75.390625 14.890625 -92.171875 Z M 232.890625 -150.65625 C 229.347656 -164.601562 223.554688 -177.957031 215.515625 -190.71875 C 207.484375 -203.476562 197.738281 -214.582031 186.28125 -224.03125 C 174.820312 -233.488281 162.238281 -240.109375 148.53125 -243.890625 C 134.820312 -247.671875 120.285156 -247.550781 104.921875 -243.53125 C 89.566406 -239.507812 76.863281 -232.359375 66.8125 -222.078125 C 56.769531 -211.804688 49.148438 -199.753906 43.953125 -185.921875 C 38.753906 -172.097656 35.914062 -157.625 35.4375 -142.5 C 34.96875 -127.375 36.507812 -112.84375 40.0625 -98.90625 C 43.84375 -85.195312 49.75 -71.960938 57.78125 -59.203125 C 65.8125 -46.441406 75.5 -35.332031 86.84375 -25.875 C 98.1875 -16.425781 110.828125 -9.75 124.765625 -5.84375 C 138.710938 -1.945312 153.25 -2.125 168.375 -6.375 C 183.738281 -10.394531 196.382812 -17.546875 206.3125 -27.828125 C 216.238281 -38.109375 223.800781 -50.160156 229 -63.984375 C 234.195312 -77.804688 237.085938 -92.28125 237.671875 -107.40625 C 238.265625 -122.53125 236.671875 -136.945312 232.890625 -150.65625 Z M 232.890625 -150.65625 "/></g></g></g></g></g><g transform="matrix(1, 0, 0, 1, 225, 78)"><g clip-path="url(#6b8791cbab)"><g fill="#000000" fill-opacity="1"><g transform="translate(3.20972, 44.118997)"><g><path d="M 13.078125 0 C 12.671875 0 12.34375 -0.128906 12.09375 -0.390625 C 11.851562 -0.648438 11.734375 -0.953125 11.734375 -1.296875 L 11.734375 -28.890625 L 14.421875 -28.890625 L 14.421875 -1.296875 C 14.421875 -0.953125 14.289062 -0.648438 14.03125 -0.390625 C 13.769531 -0.128906 13.453125 0 13.078125 0 Z M 2.765625 -27.84375 C 2.421875 -27.84375 2.117188 -27.957031 1.859375 -28.1875 C 1.597656 -28.425781 1.46875 -28.734375 1.46875 -29.109375 C 1.46875 -29.453125 1.597656 -29.738281 1.859375 -29.96875 C 2.117188 -30.195312 2.421875 -30.3125 2.765625 -30.3125 L 23.390625 -30.3125 C 23.734375 -30.3125 24.035156 -30.195312 24.296875 -29.96875 C 24.554688 -29.738281 24.6875 -29.4375 24.6875 -29.0625 C 24.6875 -28.6875 24.554688 -28.390625 24.296875 -28.171875 C 24.035156 -27.953125 23.734375 -27.84375 23.390625 -27.84375 Z M 2.765625 -27.84375 "/></g></g></g><g fill="#000000" fill-opacity="1"><g transform="translate(27.418863, 44.118997)"><g><path d="M 5.453125 -30.3125 C 5.804688 -30.3125 6.117188 -30.179688 6.390625 -29.921875 C 6.660156 -29.671875 6.796875 -29.351562 6.796875 -28.96875 L 6.796875 -1.34375 C 6.765625 -0.96875 6.613281 -0.648438 6.34375 -0.390625 C 6.070312 -0.128906 5.765625 0 5.421875 0 C 5.015625 0 4.6875 -0.128906 4.4375 -0.390625 C 4.195312 -0.648438 4.078125 -0.96875 4.078125 -1.34375 L 4.078125 -28.96875 C 4.078125 -29.351562 4.203125 -29.671875 4.453125 -29.921875 C 4.710938 -30.179688 5.046875 -30.3125 5.453125 -30.3125 Z M 25.765625 -30.3125 C 26.171875 -30.3125 26.492188 -30.179688 26.734375 -29.921875 C 26.984375 -29.671875 27.109375 -29.351562 27.109375 -28.96875 L 27.109375 -1.34375 C 27.085938 -0.96875 26.953125 -0.648438 26.703125 -0.390625 C 26.453125 -0.128906 26.128906 0 25.734375 0 C 25.359375 0 25.039062 -0.128906 24.78125 -0.390625 C 24.519531 -0.648438 24.390625 -0.96875 24.390625 -1.34375 L 24.390625 -28.96875 C 24.390625 -29.351562 24.523438 -29.671875 24.796875 -29.921875 C 25.066406 -30.179688 25.390625 -30.3125 25.765625 -30.3125 Z M 5.234375 -16.765625 L 25.8125 -16.765625 L 25.765625 -14.25 L 5.0625 -14.25 Z M 5.234375 -16.765625 "/></g></g></g><g fill="#000000" fill-opacity="1"><g transform="translate(56.651842, 44.118997)"><g><path d="M 5.375 -30.3125 L 21.265625 -30.3125 C 21.609375 -30.3125 21.910156 -30.1875 22.171875 -29.9375 C 22.429688 -29.695312 22.5625 -29.390625 22.5625 -29.015625 C 22.5625 -28.640625 22.429688 -28.335938 22.171875 -28.109375 C 21.910156 -27.878906 21.609375 -27.765625 21.265625 -27.765625 L 6.359375 -27.765625 L 6.796875 -28.5 L 6.796875 -16.328125 L 6.328125 -16.890625 L 19.3125 -16.890625 C 19.664062 -16.890625 19.96875 -16.757812 20.21875 -16.5 C 20.476562 -16.238281 20.609375 -15.9375 20.609375 -15.59375 C 20.609375 -15.21875 20.476562 -14.914062 20.21875 -14.6875 C 19.96875 -14.457031 19.664062 -14.34375 19.3125 -14.34375 L 6.40625 -14.34375 L 6.796875 -14.765625 L 6.796875 -2.296875 L 6.578125 -2.5625 L 21.265625 -2.5625 C 21.609375 -2.5625 21.910156 -2.429688 22.171875 -2.171875 C 22.429688 -1.910156 22.5625 -1.601562 22.5625 -1.25 C 22.5625 -0.875 22.429688 -0.570312 22.171875 -0.34375 C 21.910156 -0.113281 21.609375 0 21.265625 0 L 5.375 0 C 5.019531 0 4.710938 -0.128906 4.453125 -0.390625 C 4.203125 -0.648438 4.078125 -0.953125 4.078125 -1.296875 L 4.078125 -29.015625 C 4.078125 -29.367188 4.203125 -29.671875 4.453125 -29.921875 C 4.710938 -30.179688 5.019531 -30.3125 5.375 -30.3125 Z M 5.375 -30.3125 "/></g></g></g><g fill="#000000" fill-opacity="1"><g transform="translate(79.301844, 44.118997)"><g/></g></g><g fill="#000000" fill-opacity="1"><g transform="translate(89.175704, 44.118997)"><g><path d="M 5.375 -30.3125 C 5.570312 -30.3125 5.78125 -30.269531 6 -30.1875 C 6.21875 -30.101562 6.398438 -29.957031 6.546875 -29.75 L 18.5 -11.828125 L 17.328125 -11.875 L 29.328125 -29.75 C 29.640625 -30.1875 30.023438 -30.375 30.484375 -30.3125 C 30.835938 -30.3125 31.132812 -30.1875 31.375 -29.9375 C 31.625 -29.695312 31.75 -29.390625 31.75 -29.015625 L 31.75 -1.296875 C 31.75 -0.953125 31.617188 -0.648438 31.359375 -0.390625 C 31.097656 -0.128906 30.78125 0 30.40625 0 C 30 0 29.664062 -0.128906 29.40625 -0.390625 C 29.144531 -0.648438 29.015625 -0.953125 29.015625 -1.296875 L 29.015625 -26.375 L 29.796875 -26.296875 L 18.84375 -9.703125 C 18.757812 -9.523438 18.628906 -9.382812 18.453125 -9.28125 C 18.273438 -9.1875 18.070312 -9.15625 17.84375 -9.1875 C 17.644531 -9.15625 17.453125 -9.1875 17.265625 -9.28125 C 17.078125 -9.382812 16.925781 -9.523438 16.8125 -9.703125 L 5.796875 -26.46875 L 6.625 -27.03125 L 6.625 -1.296875 C 6.625 -0.953125 6.5 -0.648438 6.25 -0.390625 C 6.007812 -0.128906 5.703125 0 5.328125 0 C 4.953125 0 4.648438 -0.128906 4.421875 -0.390625 C 4.191406 -0.648438 4.078125 -0.953125 4.078125 -1.296875 L 4.078125 -29.015625 C 4.078125 -29.367188 4.195312 -29.671875 4.4375 -29.921875 C 4.6875 -30.179688 5 -30.3125 5.375 -30.3125 Z M 5.375 -30.3125 "/></g></g></g><g fill="#000000" fill-opacity="1"><g transform="translate(123.04274, 44.118997)"><g><path d="M 14.203125 -26.984375 L 3.6875 -0.828125 C 3.570312 -0.535156 3.410156 -0.316406 3.203125 -0.171875 C 3.003906 -0.0234375 2.773438 0.046875 2.515625 0.046875 C 2.109375 0.046875 1.800781 -0.0625 1.59375 -0.28125 C 1.394531 -0.5 1.28125 -0.765625 1.25 -1.078125 C 1.226562 -1.222656 1.242188 -1.398438 1.296875 -1.609375 L 12.734375 -29.578125 C 12.878906 -29.898438 13.054688 -30.125 13.265625 -30.25 C 13.484375 -30.382812 13.738281 -30.453125 14.03125 -30.453125 C 14.320312 -30.453125 14.570312 -30.367188 14.78125 -30.203125 C 15 -30.046875 15.171875 -29.835938 15.296875 -29.578125 L 26.6875 -1.734375 C 26.738281 -1.554688 26.765625 -1.382812 26.765625 -1.21875 C 26.765625 -0.8125 26.632812 -0.5 26.375 -0.28125 C 26.113281 -0.0625 25.8125 0.046875 25.46875 0.046875 C 25.175781 0.046875 24.921875 -0.03125 24.703125 -0.1875 C 24.492188 -0.351562 24.332031 -0.566406 24.21875 -0.828125 L 13.421875 -27.15625 Z M 6.1875 -8.75 L 7.28125 -11.296875 L 20.703125 -11.296875 L 21.21875 -8.75 Z M 6.1875 -8.75 "/></g></g></g><g fill="#000000" fill-opacity="1"><g transform="translate(149.114166, 44.118997)"><g><path d="M 5.453125 -30.3125 C 5.804688 -30.3125 6.117188 -30.179688 6.390625 -29.921875 C 6.660156 -29.671875 6.796875 -29.351562 6.796875 -28.96875 L 6.796875 -1.34375 C 6.765625 -0.96875 6.613281 -0.648438 6.34375 -0.390625 C 6.070312 -0.128906 5.765625 0 5.421875 0 C 5.015625 0 4.6875 -0.128906 4.4375 -0.390625 C 4.195312 -0.648438 4.078125 -0.96875 4.078125 -1.34375 L 4.078125 -28.96875 C 4.078125 -29.351562 4.203125 -29.671875 4.453125 -29.921875 C 4.710938 -30.179688 5.046875 -30.3125 5.453125 -30.3125 Z M 25.765625 -30.3125 C 26.171875 -30.3125 26.492188 -30.179688 26.734375 -29.921875 C 26.984375 -29.671875 27.109375 -29.351562 27.109375 -28.96875 L 27.109375 -1.34375 C 27.085938 -0.96875 26.953125 -0.648438 26.703125 -0.390625 C 26.453125 -0.128906 26.128906 0 25.734375 0 C 25.359375 0 25.039062 -0.128906 24.78125 -0.390625 C 24.519531 -0.648438 24.390625 -0.96875 24.390625 -1.34375 L 24.390625 -28.96875 C 24.390625 -29.351562 24.523438 -29.671875 24.796875 -29.921875 C 25.066406 -30.179688 25.390625 -30.3125 25.765625 -30.3125 Z M 5.234375 -16.765625 L 25.8125 -16.765625 L 25.765625 -14.25 L 5.0625 -14.25 Z M 5.234375 -16.765625 "/></g></g></g><g fill="#000000" fill-opacity="1"><g transform="translate(178.347145, 44.118997)"><g><path d="M 11.265625 0.4375 C 9.441406 0.4375 7.804688 -0.0664062 6.359375 -1.078125 C 4.921875 -2.085938 3.828125 -3.414062 3.078125 -5.0625 C 2.929688 -5.320312 2.859375 -5.554688 2.859375 -5.765625 C 2.859375 -6.140625 3 -6.429688 3.28125 -6.640625 C 3.570312 -6.859375 3.863281 -6.96875 4.15625 -6.96875 C 4.445312 -6.96875 4.6875 -6.894531 4.875 -6.75 C 5.0625 -6.613281 5.226562 -6.441406 5.375 -6.234375 C 5.914062 -5.023438 6.707031 -4.046875 7.75 -3.296875 C 8.789062 -2.546875 9.960938 -2.171875 11.265625 -2.171875 C 12.585938 -2.171875 13.753906 -2.453125 14.765625 -3.015625 C 15.773438 -3.578125 16.5625 -4.363281 17.125 -5.375 C 17.6875 -6.382812 17.96875 -7.535156 17.96875 -8.828125 L 17.96875 -29.015625 C 17.96875 -29.367188 18.101562 -29.671875 18.375 -29.921875 C 18.65625 -30.179688 18.984375 -30.3125 19.359375 -30.3125 C 19.765625 -30.3125 20.085938 -30.179688 20.328125 -29.921875 C 20.578125 -29.671875 20.703125 -29.367188 20.703125 -29.015625 L 20.703125 -8.828125 C 20.703125 -7.046875 20.296875 -5.453125 19.484375 -4.046875 C 18.679688 -2.648438 17.570312 -1.550781 16.15625 -0.75 C 14.738281 0.0390625 13.109375 0.4375 11.265625 0.4375 Z M 11.265625 0.4375 "/></g></g></g><g fill="#000000" fill-opacity="1"><g transform="translate(201.170385, 44.118997)"><g><path d="M 31.09375 -15.15625 C 31.09375 -12.875 30.738281 -10.785156 30.03125 -8.890625 C 29.320312 -7.003906 28.316406 -5.359375 27.015625 -3.953125 C 25.722656 -2.554688 24.1875 -1.472656 22.40625 -0.703125 C 20.632812 0.0546875 18.695312 0.4375 16.59375 0.4375 C 14.476562 0.4375 12.53125 0.0546875 10.75 -0.703125 C 8.976562 -1.472656 7.441406 -2.554688 6.140625 -3.953125 C 4.847656 -5.359375 3.847656 -7.003906 3.140625 -8.890625 C 2.429688 -10.785156 2.078125 -12.875 2.078125 -15.15625 C 2.078125 -17.4375 2.429688 -19.519531 3.140625 -21.40625 C 3.847656 -23.300781 4.847656 -24.945312 6.140625 -26.34375 C 7.441406 -27.75 8.976562 -28.832031 10.75 -29.59375 C 12.53125 -30.363281 14.476562 -30.75 16.59375 -30.75 C 18.695312 -30.75 20.632812 -30.363281 22.40625 -29.59375 C 24.1875 -28.832031 25.722656 -27.75 27.015625 -26.34375 C 28.316406 -24.945312 29.320312 -23.300781 30.03125 -21.40625 C 30.738281 -19.519531 31.09375 -17.4375 31.09375 -15.15625 Z M 28.328125 -15.15625 C 28.328125 -17.726562 27.828125 -19.988281 26.828125 -21.9375 C 25.835938 -23.882812 24.457031 -25.40625 22.6875 -26.5 C 20.925781 -27.601562 18.894531 -28.15625 16.59375 -28.15625 C 14.3125 -28.15625 12.28125 -27.601562 10.5 -26.5 C 8.726562 -25.40625 7.34375 -23.882812 6.34375 -21.9375 C 5.34375 -19.988281 4.84375 -17.726562 4.84375 -15.15625 C 4.84375 -12.582031 5.34375 -10.320312 6.34375 -8.375 C 7.34375 -6.425781 8.726562 -4.90625 10.5 -3.8125 C 12.28125 -2.71875 14.3125 -2.171875 16.59375 -2.171875 C 18.894531 -2.171875 20.925781 -2.71875 22.6875 -3.8125 C 24.457031 -4.90625 25.835938 -6.425781 26.828125 -8.375 C 27.828125 -10.320312 28.328125 -12.582031 28.328125 -15.15625 Z M 28.328125 -15.15625 "/></g></g></g><g fill="#000000" fill-opacity="1"><g transform="translate(232.395583, 44.118997)"><g><path d="M 26.25 -30.3125 C 26.625 -30.3125 26.914062 -30.195312 27.125 -29.96875 C 27.34375 -29.738281 27.453125 -29.453125 27.453125 -29.109375 L 27.453125 -1.390625 C 27.453125 -0.953125 27.316406 -0.609375 27.046875 -0.359375 C 26.773438 -0.117188 26.46875 0 26.125 0 C 25.945312 0 25.753906 -0.0351562 25.546875 -0.109375 C 25.347656 -0.179688 25.191406 -0.289062 25.078125 -0.4375 L 5.765625 -26.46875 L 6.5 -26.859375 L 6.5 -1.171875 C 6.5 -0.847656 6.378906 -0.570312 6.140625 -0.34375 C 5.910156 -0.113281 5.625 0 5.28125 0 C 4.90625 0 4.609375 -0.113281 4.390625 -0.34375 C 4.179688 -0.570312 4.078125 -0.847656 4.078125 -1.171875 L 4.078125 -29.015625 C 4.078125 -29.453125 4.203125 -29.773438 4.453125 -29.984375 C 4.710938 -30.203125 5.003906 -30.3125 5.328125 -30.3125 C 5.503906 -30.3125 5.691406 -30.273438 5.890625 -30.203125 C 6.085938 -30.140625 6.242188 -30.019531 6.359375 -29.84375 L 25.46875 -4.109375 L 25.03125 -3.328125 L 25.03125 -29.109375 C 25.03125 -29.453125 25.148438 -29.738281 25.390625 -29.96875 C 25.640625 -30.195312 25.925781 -30.3125 26.25 -30.3125 Z M 26.25 -30.3125 "/></g></g></g><g fill="#000000" fill-opacity="1"><g transform="translate(261.975037, 44.118997)"><g><path d="M 17.671875 0.4375 C 15.453125 0.4375 13.390625 0.046875 11.484375 -0.734375 C 9.578125 -1.515625 7.921875 -2.601562 6.515625 -4 C 5.117188 -5.40625 4.03125 -7.0625 3.25 -8.96875 C 2.46875 -10.875 2.078125 -12.9375 2.078125 -15.15625 C 2.078125 -17.382812 2.46875 -19.453125 3.25 -21.359375 C 4.03125 -23.265625 5.117188 -24.914062 6.515625 -26.3125 C 7.921875 -27.707031 9.578125 -28.796875 11.484375 -29.578125 C 13.390625 -30.359375 15.453125 -30.75 17.671875 -30.75 C 19.203125 -30.75 20.679688 -30.566406 22.109375 -30.203125 C 23.535156 -29.847656 24.8125 -29.3125 25.9375 -28.59375 C 26.144531 -28.445312 26.296875 -28.28125 26.390625 -28.09375 C 26.492188 -27.90625 26.546875 -27.707031 26.546875 -27.5 C 26.546875 -27.09375 26.414062 -26.765625 26.15625 -26.515625 C 25.894531 -26.273438 25.625 -26.15625 25.34375 -26.15625 C 25.195312 -26.15625 25.054688 -26.175781 24.921875 -26.21875 C 24.796875 -26.269531 24.675781 -26.320312 24.5625 -26.375 C 23.570312 -26.925781 22.5 -27.359375 21.34375 -27.671875 C 20.195312 -27.992188 18.972656 -28.15625 17.671875 -28.15625 C 15.191406 -28.15625 12.984375 -27.59375 11.046875 -26.46875 C 9.109375 -25.34375 7.585938 -23.796875 6.484375 -21.828125 C 5.390625 -19.867188 4.84375 -17.644531 4.84375 -15.15625 C 4.84375 -12.675781 5.390625 -10.453125 6.484375 -8.484375 C 7.585938 -6.523438 9.109375 -4.984375 11.046875 -3.859375 C 12.984375 -2.734375 15.191406 -2.171875 17.671875 -2.171875 C 18.972656 -2.171875 20.28125 -2.359375 21.59375 -2.734375 C 22.90625 -3.109375 24.035156 -3.613281 24.984375 -4.25 L 24.78125 -3.328125 L 24.78125 -13.296875 L 25.421875 -12.6875 L 17.9375 -12.6875 C 17.5625 -12.6875 17.242188 -12.816406 16.984375 -13.078125 C 16.722656 -13.335938 16.59375 -13.640625 16.59375 -13.984375 C 16.59375 -14.390625 16.722656 -14.707031 16.984375 -14.9375 C 17.242188 -15.175781 17.5625 -15.296875 17.9375 -15.296875 L 26.203125 -15.296875 C 26.578125 -15.296875 26.882812 -15.171875 27.125 -14.921875 C 27.375 -14.671875 27.5 -14.359375 27.5 -13.984375 L 27.5 -3.546875 C 27.5 -3.316406 27.441406 -3.097656 27.328125 -2.890625 C 27.210938 -2.691406 27.054688 -2.519531 26.859375 -2.375 C 25.585938 -1.507812 24.164062 -0.820312 22.59375 -0.3125 C 21.019531 0.1875 19.378906 0.4375 17.671875 0.4375 Z M 17.671875 0.4375 "/></g></g></g><g fill="#000000" fill-opacity="1"><g transform="translate(290.125287, 44.118997)"><g/></g></g><g fill="#000000" fill-opacity="1"><g transform="translate(299.999147, 44.118997)"><g><path d="M 31.09375 -15.15625 C 31.09375 -12.875 30.738281 -10.785156 30.03125 -8.890625 C 29.320312 -7.003906 28.316406 -5.359375 27.015625 -3.953125 C 25.722656 -2.554688 24.1875 -1.472656 22.40625 -0.703125 C 20.632812 0.0546875 18.695312 0.4375 16.59375 0.4375 C 14.476562 0.4375 12.53125 0.0546875 10.75 -0.703125 C 8.976562 -1.472656 7.441406 -2.554688 6.140625 -3.953125 C 4.847656 -5.359375 3.847656 -7.003906 3.140625 -8.890625 C 2.429688 -10.785156 2.078125 -12.875 2.078125 -15.15625 C 2.078125 -17.4375 2.429688 -19.519531 3.140625 -21.40625 C 3.847656 -23.300781 4.847656 -24.945312 6.140625 -26.34375 C 7.441406 -27.75 8.976562 -28.832031 10.75 -29.59375 C 12.53125 -30.363281 14.476562 -30.75 16.59375 -30.75 C 18.695312 -30.75 20.632812 -30.363281 22.40625 -29.59375 C 24.1875 -28.832031 25.722656 -27.75 27.015625 -26.34375 C 28.316406 -24.945312 29.320312 -23.300781 30.03125 -21.40625 C 30.738281 -19.519531 31.09375 -17.4375 31.09375 -15.15625 Z M 28.328125 -15.15625 C 28.328125 -17.726562 27.828125 -19.988281 26.828125 -21.9375 C 25.835938 -23.882812 24.457031 -25.40625 22.6875 -26.5 C 20.925781 -27.601562 18.894531 -28.15625 16.59375 -28.15625 C 14.3125 -28.15625 12.28125 -27.601562 10.5 -26.5 C 8.726562 -25.40625 7.34375 -23.882812 6.34375 -21.9375 C 5.34375 -19.988281 4.84375 -17.726562 4.84375 -15.15625 C 4.84375 -12.582031 5.34375 -10.320312 6.34375 -8.375 C 7.34375 -6.425781 8.726562 -4.90625 10.5 -3.8125 C 12.28125 -2.71875 14.3125 -2.171875 16.59375 -2.171875 C 18.894531 -2.171875 20.925781 -2.71875 22.6875 -3.8125 C 24.457031 -4.90625 25.835938 -6.425781 26.828125 -8.375 C 27.828125 -10.320312 28.328125 -12.582031 28.328125 -15.15625 Z M 28.328125 -15.15625 "/></g></g></g><g fill="#000000" fill-opacity="1"><g transform="translate(331.224345, 44.118997)"><g><path d="M 15.640625 -30.3125 C 17.253906 -30.3125 18.679688 -29.941406 19.921875 -29.203125 C 21.160156 -28.472656 22.140625 -27.457031 22.859375 -26.15625 C 23.585938 -24.863281 23.953125 -23.378906 23.953125 -21.703125 C 23.953125 -20.023438 23.585938 -18.515625 22.859375 -17.171875 C 22.140625 -15.828125 21.160156 -14.765625 19.921875 -13.984375 C 18.679688 -13.210938 17.253906 -12.828125 15.640625 -12.828125 L 6.453125 -12.828125 L 6.671875 -13.25 L 6.671875 -1.296875 C 6.671875 -0.953125 6.539062 -0.648438 6.28125 -0.390625 C 6.019531 -0.128906 5.71875 0 5.375 0 C 4.96875 0 4.648438 -0.128906 4.421875 -0.390625 C 4.191406 -0.648438 4.078125 -0.953125 4.078125 -1.296875 L 4.078125 -29.015625 C 4.078125 -29.367188 4.203125 -29.671875 4.453125 -29.921875 C 4.710938 -30.179688 5.019531 -30.3125 5.375 -30.3125 Z M 15.640625 -15.328125 C 16.765625 -15.328125 17.742188 -15.609375 18.578125 -16.171875 C 19.421875 -16.734375 20.078125 -17.5 20.546875 -18.46875 C 21.023438 -19.4375 21.265625 -20.515625 21.265625 -21.703125 C 21.265625 -22.878906 21.023438 -23.921875 20.546875 -24.828125 C 20.078125 -25.742188 19.421875 -26.460938 18.578125 -26.984375 C 17.742188 -27.503906 16.765625 -27.765625 15.640625 -27.765625 L 6.453125 -27.765625 L 6.671875 -28.15625 L 6.671875 -15.078125 L 6.40625 -15.328125 Z M 15.640625 -15.328125 "/></g></g></g><g fill="#000000" fill-opacity="1"><g transform="translate(355.087013, 44.118997)"><g><path d="M 5.375 -30.3125 L 21.265625 -30.3125 C 21.609375 -30.3125 21.910156 -30.1875 22.171875 -29.9375 C 22.429688 -29.695312 22.5625 -29.390625 22.5625 -29.015625 C 22.5625 -28.640625 22.429688 -28.335938 22.171875 -28.109375 C 21.910156 -27.878906 21.609375 -27.765625 21.265625 -27.765625 L 6.359375 -27.765625 L 6.796875 -28.5 L 6.796875 -16.328125 L 6.328125 -16.890625 L 19.3125 -16.890625 C 19.664062 -16.890625 19.96875 -16.757812 20.21875 -16.5 C 20.476562 -16.238281 20.609375 -15.9375 20.609375 -15.59375 C 20.609375 -15.21875 20.476562 -14.914062 20.21875 -14.6875 C 19.96875 -14.457031 19.664062 -14.34375 19.3125 -14.34375 L 6.40625 -14.34375 L 6.796875 -14.765625 L 6.796875 -2.296875 L 6.578125 -2.5625 L 21.265625 -2.5625 C 21.609375 -2.5625 21.910156 -2.429688 22.171875 -2.171875 C 22.429688 -1.910156 22.5625 -1.601562 22.5625 -1.25 C 22.5625 -0.875 22.429688 -0.570312 22.171875 -0.34375 C 21.910156 -0.113281 21.609375 0 21.265625 0 L 5.375 0 C 5.019531 0 4.710938 -0.128906 4.453125 -0.390625 C 4.203125 -0.648438 4.078125 -0.953125 4.078125 -1.296875 L 4.078125 -29.015625 C 4.078125 -29.367188 4.203125 -29.671875 4.453125 -29.921875 C 4.710938 -30.179688 5.019531 -30.3125 5.375 -30.3125 Z M 5.375 -30.3125 "/></g></g></g><g fill="#000000" fill-opacity="1"><g transform="translate(377.737015, 44.118997)"><g><path d="M 26.25 -30.3125 C 26.625 -30.3125 26.914062 -30.195312 27.125 -29.96875 C 27.34375 -29.738281 27.453125 -29.453125 27.453125 -29.109375 L 27.453125 -1.390625 C 27.453125 -0.953125 27.316406 -0.609375 27.046875 -0.359375 C 26.773438 -0.117188 26.46875 0 26.125 0 C 25.945312 0 25.753906 -0.0351562 25.546875 -0.109375 C 25.347656 -0.179688 25.191406 -0.289062 25.078125 -0.4375 L 5.765625 -26.46875 L 6.5 -26.859375 L 6.5 -1.171875 C 6.5 -0.847656 6.378906 -0.570312 6.140625 -0.34375 C 5.910156 -0.113281 5.625 0 5.28125 0 C 4.90625 0 4.609375 -0.113281 4.390625 -0.34375 C 4.179688 -0.570312 4.078125 -0.847656 4.078125 -1.171875 L 4.078125 -29.015625 C 4.078125 -29.453125 4.203125 -29.773438 4.453125 -29.984375 C 4.710938 -30.203125 5.003906 -30.3125 5.328125 -30.3125 C 5.503906 -30.3125 5.691406 -30.273438 5.890625 -30.203125 C 6.085938 -30.140625 6.242188 -30.019531 6.359375 -29.84375 L 25.46875 -4.109375 L 25.03125 -3.328125 L 25.03125 -29.109375 C 25.03125 -29.453125 25.148438 -29.738281 25.390625 -29.96875 C 25.640625 -30.195312 25.925781 -30.3125 26.25 -30.3125 Z M 26.25 -30.3125 "/></g></g></g></g></g><g transform="matrix(1, 0, 0, 1, 349, 758)"><g clip-path="url(#c5bbc96851)"><g fill="#000000" fill-opacity="1"><g transform="translate(2.01113, 44.451359)"><g><path d="M 5.375 -30.3125 L 21.265625 -30.3125 C 21.609375 -30.3125 21.910156 -30.1875 22.171875 -29.9375 C 22.429688 -29.695312 22.5625 -29.390625 22.5625 -29.015625 C 22.5625 -28.640625 22.429688 -28.335938 22.171875 -28.109375 C 21.910156 -27.878906 21.609375 -27.765625 21.265625 -27.765625 L 6.359375 -27.765625 L 6.796875 -28.5 L 6.796875 -16.328125 L 6.328125 -16.890625 L 19.3125 -16.890625 C 19.664062 -16.890625 19.96875 -16.757812 20.21875 -16.5 C 20.476562 -16.238281 20.609375 -15.9375 20.609375 -15.59375 C 20.609375 -15.21875 20.476562 -14.914062 20.21875 -14.6875 C 19.96875 -14.457031 19.664062 -14.34375 19.3125 -14.34375 L 6.40625 -14.34375 L 6.796875 -14.765625 L 6.796875 -2.296875 L 6.578125 -2.5625 L 21.265625 -2.5625 C 21.609375 -2.5625 21.910156 -2.429688 22.171875 -2.171875 C 22.429688 -1.910156 22.5625 -1.601562 22.5625 -1.25 C 22.5625 -0.875 22.429688 -0.570312 22.171875 -0.34375 C 21.910156 -0.113281 21.609375 0 21.265625 0 L 5.375 0 C 5.019531 0 4.710938 -0.128906 4.453125 -0.390625 C 4.203125 -0.648438 4.078125 -0.953125 4.078125 -1.296875 L 4.078125 -29.015625 C 4.078125 -29.367188 4.203125 -29.671875 4.453125 -29.921875 C 4.710938 -30.179688 5.019531 -30.3125 5.375 -30.3125 Z M 5.375 -30.3125 "/></g></g></g><g fill="#000000" fill-opacity="1"><g transform="translate(24.661132, 44.451359)"><g><path d="M 12.4375 0.4375 C 10.238281 0.457031 8.328125 0.109375 6.703125 -0.609375 C 5.085938 -1.328125 3.546875 -2.410156 2.078125 -3.859375 C 1.929688 -3.972656 1.804688 -4.113281 1.703125 -4.28125 C 1.609375 -4.457031 1.5625 -4.660156 1.5625 -4.890625 C 1.5625 -5.242188 1.695312 -5.5625 1.96875 -5.84375 C 2.238281 -6.132812 2.550781 -6.28125 2.90625 -6.28125 C 3.25 -6.28125 3.566406 -6.132812 3.859375 -5.84375 C 4.984375 -4.632812 6.257812 -3.710938 7.6875 -3.078125 C 9.113281 -2.441406 10.648438 -2.125 12.296875 -2.125 C 13.679688 -2.125 14.914062 -2.335938 16 -2.765625 C 17.082031 -3.203125 17.941406 -3.820312 18.578125 -4.625 C 19.210938 -5.4375 19.53125 -6.378906 19.53125 -7.453125 C 19.53125 -8.773438 19.171875 -9.847656 18.453125 -10.671875 C 17.734375 -11.492188 16.78125 -12.171875 15.59375 -12.703125 C 14.40625 -13.242188 13.09375 -13.726562 11.65625 -14.15625 C 10.46875 -14.507812 9.335938 -14.910156 8.265625 -15.359375 C 7.203125 -15.804688 6.25 -16.351562 5.40625 -17 C 4.570312 -17.644531 3.921875 -18.441406 3.453125 -19.390625 C 2.992188 -20.347656 2.765625 -21.507812 2.765625 -22.875 C 2.765625 -24.40625 3.171875 -25.757812 3.984375 -26.9375 C 4.796875 -28.125 5.941406 -29.054688 7.421875 -29.734375 C 8.910156 -30.410156 10.640625 -30.75 12.609375 -30.75 C 14.304688 -30.75 15.941406 -30.457031 17.515625 -29.875 C 19.085938 -29.300781 20.335938 -28.453125 21.265625 -27.328125 C 21.703125 -26.867188 21.921875 -26.453125 21.921875 -26.078125 C 21.921875 -25.785156 21.773438 -25.492188 21.484375 -25.203125 C 21.191406 -24.921875 20.875 -24.78125 20.53125 -24.78125 C 20.238281 -24.78125 19.992188 -24.878906 19.796875 -25.078125 C 19.304688 -25.679688 18.6875 -26.222656 17.9375 -26.703125 C 17.1875 -27.179688 16.351562 -27.550781 15.4375 -27.8125 C 14.53125 -28.070312 13.585938 -28.203125 12.609375 -28.203125 C 11.242188 -28.203125 10.019531 -27.988281 8.9375 -27.5625 C 7.851562 -27.144531 7 -26.546875 6.375 -25.765625 C 5.757812 -24.984375 5.453125 -24.046875 5.453125 -22.953125 C 5.453125 -21.742188 5.796875 -20.75 6.484375 -19.96875 C 7.179688 -19.1875 8.09375 -18.539062 9.21875 -18.03125 C 10.351562 -17.53125 11.554688 -17.0625 12.828125 -16.625 C 14.066406 -16.28125 15.253906 -15.882812 16.390625 -15.4375 C 17.535156 -14.988281 18.546875 -14.429688 19.421875 -13.765625 C 20.304688 -13.109375 21 -12.273438 21.5 -11.265625 C 22.007812 -10.253906 22.265625 -8.984375 22.265625 -7.453125 C 22.265625 -5.972656 21.84375 -4.640625 21 -3.453125 C 20.164062 -2.273438 19.019531 -1.335938 17.5625 -0.640625 C 16.101562 0.046875 14.394531 0.40625 12.4375 0.4375 Z M 12.4375 0.4375 "/></g></g></g><g fill="#000000" fill-opacity="1"><g transform="translate(47.051293, 44.451359)"><g><path d="M 13.078125 0 C 12.671875 0 12.34375 -0.128906 12.09375 -0.390625 C 11.851562 -0.648438 11.734375 -0.953125 11.734375 -1.296875 L 11.734375 -28.890625 L 14.421875 -28.890625 L 14.421875 -1.296875 C 14.421875 -0.953125 14.289062 -0.648438 14.03125 -0.390625 C 13.769531 -0.128906 13.453125 0 13.078125 0 Z M 2.765625 -27.84375 C 2.421875 -27.84375 2.117188 -27.957031 1.859375 -28.1875 C 1.597656 -28.425781 1.46875 -28.734375 1.46875 -29.109375 C 1.46875 -29.453125 1.597656 -29.738281 1.859375 -29.96875 C 2.117188 -30.195312 2.421875 -30.3125 2.765625 -30.3125 L 23.390625 -30.3125 C 23.734375 -30.3125 24.035156 -30.195312 24.296875 -29.96875 C 24.554688 -29.738281 24.6875 -29.4375 24.6875 -29.0625 C 24.6875 -28.6875 24.554688 -28.390625 24.296875 -28.171875 C 24.035156 -27.953125 23.734375 -27.84375 23.390625 -27.84375 Z M 2.765625 -27.84375 "/></g></g></g><g fill="#000000" fill-opacity="1"><g transform="translate(66.928984, 44.451359)"><g><path d="M 3.765625 0 C 3.273438 0 2.898438 -0.15625 2.640625 -0.46875 C 2.378906 -0.789062 2.25 -1.195312 2.25 -1.6875 L 2.25 -2.59375 C 2.25 -3.113281 2.378906 -3.519531 2.640625 -3.8125 C 2.898438 -4.101562 3.273438 -4.25 3.765625 -4.25 L 4.078125 -4.25 C 4.566406 -4.25 4.941406 -4.101562 5.203125 -3.8125 C 5.460938 -3.519531 5.59375 -3.113281 5.59375 -2.59375 L 5.59375 -1.6875 C 5.59375 -1.195312 5.460938 -0.789062 5.203125 -0.46875 C 4.941406 -0.15625 4.566406 0 4.078125 0 Z M 3.765625 0 "/></g></g></g><g fill="#000000" fill-opacity="1"><g transform="translate(72.818404, 44.451359)"><g/></g></g><g fill="#000000" fill-opacity="1"><g transform="translate(82.692264, 44.451359)"><g><path d="M 20.53125 -2.515625 C 20.875 -2.515625 21.164062 -2.390625 21.40625 -2.140625 C 21.65625 -1.898438 21.78125 -1.601562 21.78125 -1.25 C 21.78125 -0.875 21.65625 -0.570312 21.40625 -0.34375 C 21.164062 -0.113281 20.875 0 20.53125 0 L 4.28125 0 C 3.90625 0 3.582031 -0.109375 3.3125 -0.328125 C 3.039062 -0.546875 2.90625 -0.867188 2.90625 -1.296875 C 2.90625 -1.617188 3.019531 -1.921875 3.25 -2.203125 L 13.25 -13.25 C 14.84375 -14.988281 16.035156 -16.585938 16.828125 -18.046875 C 17.617188 -19.503906 18.015625 -20.804688 18.015625 -21.953125 C 18.015625 -23.859375 17.4375 -25.390625 16.28125 -26.546875 C 15.125 -27.703125 13.566406 -28.28125 11.609375 -28.28125 C 10.710938 -28.28125 9.820312 -28.09375 8.9375 -27.71875 C 8.0625 -27.34375 7.285156 -26.851562 6.609375 -26.25 C 5.929688 -25.644531 5.40625 -24.953125 5.03125 -24.171875 C 4.851562 -23.878906 4.671875 -23.675781 4.484375 -23.5625 C 4.296875 -23.445312 4.085938 -23.390625 3.859375 -23.390625 C 3.503906 -23.390625 3.195312 -23.492188 2.9375 -23.703125 C 2.6875 -23.921875 2.5625 -24.191406 2.5625 -24.515625 C 2.5625 -24.710938 2.609375 -24.910156 2.703125 -25.109375 C 2.804688 -25.316406 2.957031 -25.550781 3.15625 -25.8125 C 3.675781 -26.707031 4.398438 -27.53125 5.328125 -28.28125 C 6.253906 -29.03125 7.285156 -29.628906 8.421875 -30.078125 C 9.566406 -30.523438 10.6875 -30.75 11.78125 -30.75 C 13.625 -30.75 15.21875 -30.394531 16.5625 -29.6875 C 17.90625 -28.976562 18.945312 -27.984375 19.6875 -26.703125 C 20.425781 -25.421875 20.796875 -23.894531 20.796875 -22.125 C 20.796875 -20.625 20.320312 -18.984375 19.375 -17.203125 C 18.4375 -15.429688 17.046875 -13.523438 15.203125 -11.484375 L 6.75 -2 L 6.328125 -2.515625 Z M 20.53125 -2.515625 "/></g></g></g><g fill="#000000" fill-opacity="1"><g transform="translate(104.73595, 44.451359)"><g><path d="M 12.859375 0.4375 C 10.554688 0.4375 8.625 -0.253906 7.0625 -1.640625 C 5.5 -3.023438 4.328125 -4.894531 3.546875 -7.25 C 2.765625 -9.601562 2.375 -12.238281 2.375 -15.15625 C 2.375 -18.101562 2.765625 -20.753906 3.546875 -23.109375 C 4.328125 -25.460938 5.5 -27.320312 7.0625 -28.6875 C 8.625 -30.0625 10.554688 -30.75 12.859375 -30.75 C 15.234375 -30.75 17.191406 -30.0625 18.734375 -28.6875 C 20.273438 -27.320312 21.4375 -25.460938 22.21875 -23.109375 C 23 -20.753906 23.390625 -18.101562 23.390625 -15.15625 C 23.390625 -12.238281 23 -9.601562 22.21875 -7.25 C 21.4375 -4.894531 20.273438 -3.023438 18.734375 -1.640625 C 17.191406 -0.253906 15.234375 0.4375 12.859375 0.4375 Z M 12.859375 -2.25 C 14.566406 -2.25 15.988281 -2.78125 17.125 -3.84375 C 18.269531 -4.914062 19.132812 -6.425781 19.71875 -8.375 C 20.3125 -10.320312 20.609375 -12.582031 20.609375 -15.15625 C 20.609375 -17.757812 20.3125 -20.035156 19.71875 -21.984375 C 19.132812 -23.929688 18.269531 -25.4375 17.125 -26.5 C 15.988281 -27.570312 14.566406 -28.109375 12.859375 -28.109375 C 11.191406 -28.109375 9.785156 -27.570312 8.640625 -26.5 C 7.503906 -25.4375 6.640625 -23.929688 6.046875 -21.984375 C 5.453125 -20.035156 5.15625 -17.757812 5.15625 -15.15625 C 5.15625 -12.582031 5.453125 -10.320312 6.046875 -8.375 C 6.640625 -6.425781 7.503906 -4.914062 8.640625 -3.84375 C 9.785156 -2.78125 11.191406 -2.25 12.859375 -2.25 Z M 12.859375 -2.25 "/></g></g></g><g fill="#000000" fill-opacity="1"><g transform="translate(128.555284, 44.451359)"><g><path d="M 20.53125 -2.515625 C 20.875 -2.515625 21.164062 -2.390625 21.40625 -2.140625 C 21.65625 -1.898438 21.78125 -1.601562 21.78125 -1.25 C 21.78125 -0.875 21.65625 -0.570312 21.40625 -0.34375 C 21.164062 -0.113281 20.875 0 20.53125 0 L 4.28125 0 C 3.90625 0 3.582031 -0.109375 3.3125 -0.328125 C 3.039062 -0.546875 2.90625 -0.867188 2.90625 -1.296875 C 2.90625 -1.617188 3.019531 -1.921875 3.25 -2.203125 L 13.25 -13.25 C 14.84375 -14.988281 16.035156 -16.585938 16.828125 -18.046875 C 17.617188 -19.503906 18.015625 -20.804688 18.015625 -21.953125 C 18.015625 -23.859375 17.4375 -25.390625 16.28125 -26.546875 C 15.125 -27.703125 13.566406 -28.28125 11.609375 -28.28125 C 10.710938 -28.28125 9.820312 -28.09375 8.9375 -27.71875 C 8.0625 -27.34375 7.285156 -26.851562 6.609375 -26.25 C 5.929688 -25.644531 5.40625 -24.953125 5.03125 -24.171875 C 4.851562 -23.878906 4.671875 -23.675781 4.484375 -23.5625 C 4.296875 -23.445312 4.085938 -23.390625 3.859375 -23.390625 C 3.503906 -23.390625 3.195312 -23.492188 2.9375 -23.703125 C 2.6875 -23.921875 2.5625 -24.191406 2.5625 -24.515625 C 2.5625 -24.710938 2.609375 -24.910156 2.703125 -25.109375 C 2.804688 -25.316406 2.957031 -25.550781 3.15625 -25.8125 C 3.675781 -26.707031 4.398438 -27.53125 5.328125 -28.28125 C 6.253906 -29.03125 7.285156 -29.628906 8.421875 -30.078125 C 9.566406 -30.523438 10.6875 -30.75 11.78125 -30.75 C 13.625 -30.75 15.21875 -30.394531 16.5625 -29.6875 C 17.90625 -28.976562 18.945312 -27.984375 19.6875 -26.703125 C 20.425781 -25.421875 20.796875 -23.894531 20.796875 -22.125 C 20.796875 -20.625 20.320312 -18.984375 19.375 -17.203125 C 18.4375 -15.429688 17.046875 -13.523438 15.203125 -11.484375 L 6.75 -2 L 6.328125 -2.515625 Z M 20.53125 -2.515625 "/></g></g></g><g fill="#000000" fill-opacity="1"><g transform="translate(150.598969, 44.451359)"><g><path d="M 12.4375 0.4375 C 10.757812 0.4375 9.289062 0.132812 8.03125 -0.46875 C 6.78125 -1.082031 5.742188 -1.898438 4.921875 -2.921875 C 4.097656 -3.953125 3.488281 -5.113281 3.09375 -6.40625 C 2.707031 -7.707031 2.515625 -9.035156 2.515625 -10.390625 C 2.515625 -11.773438 2.6875 -13.269531 3.03125 -14.875 C 3.375 -16.476562 3.90625 -18.101562 4.625 -19.75 C 5.351562 -21.394531 6.242188 -22.953125 7.296875 -24.421875 C 8.347656 -25.898438 9.570312 -27.222656 10.96875 -28.390625 C 12.375 -29.554688 13.957031 -30.472656 15.71875 -31.140625 C 15.925781 -31.203125 16.101562 -31.234375 16.25 -31.234375 C 16.625 -31.234375 16.945312 -31.128906 17.21875 -30.921875 C 17.488281 -30.722656 17.625 -30.378906 17.625 -29.890625 C 17.625 -29.597656 17.53125 -29.34375 17.34375 -29.125 C 17.15625 -28.90625 16.90625 -28.738281 16.59375 -28.625 C 15.375 -28.101562 14.171875 -27.363281 12.984375 -26.40625 C 11.804688 -25.457031 10.710938 -24.363281 9.703125 -23.125 C 8.691406 -21.882812 7.832031 -20.550781 7.125 -19.125 C 6.414062 -17.695312 5.914062 -16.242188 5.625 -14.765625 L 4.671875 -14.203125 C 5.191406 -15.160156 5.863281 -16.003906 6.6875 -16.734375 C 7.507812 -17.472656 8.453125 -18.066406 9.515625 -18.515625 C 10.585938 -18.960938 11.75 -19.1875 13 -19.1875 C 14.289062 -19.1875 15.484375 -18.910156 16.578125 -18.359375 C 17.679688 -17.816406 18.628906 -17.070312 19.421875 -16.125 C 20.210938 -15.1875 20.832031 -14.125 21.28125 -12.9375 C 21.726562 -11.757812 21.953125 -10.535156 21.953125 -9.265625 C 21.953125 -7.566406 21.539062 -5.976562 20.71875 -4.5 C 19.894531 -3.03125 18.769531 -1.835938 17.34375 -0.921875 C 15.914062 -0.015625 14.28125 0.4375 12.4375 0.4375 Z M 12.390625 -2.078125 C 13.710938 -2.078125 14.894531 -2.378906 15.9375 -2.984375 C 16.976562 -3.585938 17.796875 -4.429688 18.390625 -5.515625 C 18.984375 -6.597656 19.28125 -7.847656 19.28125 -9.265625 C 19.28125 -10.566406 19.023438 -11.769531 18.515625 -12.875 C 18.015625 -13.988281 17.265625 -14.898438 16.265625 -15.609375 C 15.265625 -16.316406 14.03125 -16.671875 12.5625 -16.671875 C 11.03125 -16.671875 9.707031 -16.320312 8.59375 -15.625 C 7.488281 -14.9375 6.640625 -14.019531 6.046875 -12.875 C 5.453125 -11.738281 5.15625 -10.492188 5.15625 -9.140625 C 5.15625 -7.921875 5.441406 -6.769531 6.015625 -5.6875 C 6.597656 -4.613281 7.429688 -3.742188 8.515625 -3.078125 C 9.597656 -2.410156 10.890625 -2.078125 12.390625 -2.078125 Z M 12.390625 -2.078125 "/></g></g></g></g></g></svg>