<svg xmlns="http://www.w3.org/2000/svg" xmlns:xlink="http://www.w3.org/1999/xlink" width="1200" zoomAndPan="magnify" viewBox="0 0 900 899.99999" height="1200" preserveAspectRatio="xMidYMid meet" version="1.0"><defs><g/><clipPath id="0428abc248"><path d="M 155.339844 71.984375 L 785.230469 71.984375 L 785.230469 864 L 155.339844 864 Z M 155.339844 71.984375 " clip-rule="nonzero"/></clipPath><clipPath id="8a777a10cf"><path d="M 197.339844 71.984375 L 743.230469 71.984375 C 766.425781 71.984375 785.230469 90.789062 785.230469 113.984375 L 785.230469 821.527344 C 785.230469 844.722656 766.425781 863.527344 743.230469 863.527344 L 197.339844 863.527344 C 174.144531 863.527344 155.339844 844.722656 155.339844 821.527344 L 155.339844 113.984375 C 155.339844 90.789062 174.144531 71.984375 197.339844 71.984375 Z M 197.339844 71.984375 " clip-rule="nonzero"/></clipPath><clipPath id="a5185f5649"><path d="M 0.339844 0.984375 L 630.230469 0.984375 L 630.230469 792.761719 L 0.339844 792.761719 Z M 0.339844 0.984375 " clip-rule="nonzero"/></clipPath><clipPath id="85530f1021"><path d="M 42.339844 0.984375 L 588.230469 0.984375 C 611.425781 0.984375 630.230469 19.789062 630.230469 42.984375 L 630.230469 750.527344 C 630.230469 773.722656 611.425781 792.527344 588.230469 792.527344 L 42.339844 792.527344 C 19.144531 792.527344 0.339844 773.722656 0.339844 750.527344 L 0.339844 42.984375 C 0.339844 19.789062 19.144531 0.984375 42.339844 0.984375 Z M 42.339844 0.984375 " clip-rule="nonzero"/></clipPath><clipPath id="a99eea869f"><rect x="0" width="631" y="0" height="793"/></clipPath><clipPath id="84a12f203e"><path d="M 141.164062 58.125 L 762.410156 58.125 L 762.410156 854 L 141.164062 854 Z M 141.164062 58.125 " clip-rule="nonzero"/></clipPath><clipPath id="4a6210a7f2"><path d="M 183.164062 58.125 L 720.410156 58.125 C 743.605469 58.125 762.410156 76.929688 762.410156 100.125 L 762.410156 811.5 C 762.410156 834.695312 743.605469 853.5 720.410156 853.5 L 183.164062 853.5 C 159.96875 853.5 141.164062 834.695312 141.164062 811.5 L 141.164062 100.125 C 141.164062 76.929688 159.96875 58.125 183.164062 58.125 Z M 183.164062 58.125 " clip-rule="nonzero"/></clipPath><clipPath id="013d70709d"><path d="M 0.164062 0.125 L 621.410156 0.125 L 621.410156 795.679688 L 0.164062 795.679688 Z M 0.164062 0.125 " clip-rule="nonzero"/></clipPath><clipPath id="b183f10bf3"><path d="M 42.164062 0.125 L 579.410156 0.125 C 602.605469 0.125 621.410156 18.929688 621.410156 42.125 L 621.410156 753.5 C 621.410156 776.695312 602.605469 795.5 579.410156 795.5 L 42.164062 795.5 C 18.96875 795.5 0.164062 776.695312 0.164062 753.5 L 0.164062 42.125 C 0.164062 18.929688 18.96875 0.125 42.164062 0.125 Z M 42.164062 0.125 " clip-rule="nonzero"/></clipPath><clipPath id="6a7f046167"><rect x="0" width="622" y="0" height="796"/></clipPath><clipPath id="5b47943cae"><path d="M 141.164062 58.132812 L 762.164062 58.132812 L 762.164062 853.875 L 141.164062 853.875 Z M 141.164062 58.132812 " clip-rule="nonzero"/></clipPath><clipPath id="2c1a06d117"><path d="M 183.164062 58.132812 L 720.398438 58.132812 C 743.597656 58.132812 762.398438 76.933594 762.398438 100.128906 L 762.398438 811.492188 C 762.398438 834.6875 743.597656 853.492188 720.398438 853.492188 L 183.164062 853.492188 C 159.96875 853.492188 141.164062 834.6875 141.164062 811.492188 L 141.164062 100.128906 C 141.164062 76.933594 159.96875 58.132812 183.164062 58.132812 Z M 183.164062 58.132812 " clip-rule="nonzero"/></clipPath><clipPath id="09c8c34825"><path d="M 132.769531 49.210938 L 734.957031 49.210938 L 734.957031 841 L 132.769531 841 Z M 132.769531 49.210938 " clip-rule="nonzero"/></clipPath><clipPath id="e49792f2ad"><path d="M 174.769531 49.210938 L 692.957031 49.210938 C 716.152344 49.210938 734.957031 68.011719 734.957031 91.210938 L 734.957031 798.75 C 734.957031 821.945312 716.152344 840.75 692.957031 840.75 L 174.769531 840.75 C 151.574219 840.75 132.769531 821.945312 132.769531 798.75 L 132.769531 91.210938 C 132.769531 68.011719 151.574219 49.210938 174.769531 49.210938 Z M 174.769531 49.210938 " clip-rule="nonzero"/></clipPath><clipPath id="64060a7a9a"><path d="M 0.769531 0.210938 L 602.957031 0.210938 L 602.957031 791 L 0.769531 791 Z M 0.769531 0.210938 " clip-rule="nonzero"/></clipPath><clipPath id="d791883962"><path d="M 42.769531 0.210938 L 560.957031 0.210938 C 584.152344 0.210938 602.957031 19.011719 602.957031 42.210938 L 602.957031 749.75 C 602.957031 772.945312 584.152344 791.75 560.957031 791.75 L 42.769531 791.75 C 19.574219 791.75 0.769531 772.945312 0.769531 749.75 L 0.769531 42.210938 C 0.769531 19.011719 19.574219 0.210938 42.769531 0.210938 Z M 42.769531 0.210938 " clip-rule="nonzero"/></clipPath><clipPath id="e5c0844b75"><rect x="0" width="603" y="0" height="792"/></clipPath><clipPath id="a9cad78c20"><path d="M 132.769531 49.210938 L 735 49.210938 L 735 840.460938 L 132.769531 840.460938 Z M 132.769531 49.210938 " clip-rule="nonzero"/></clipPath><clipPath id="b8d4c6416c"><path d="M 174.769531 49.210938 L 692.949219 49.210938 C 716.144531 49.210938 734.949219 68.011719 734.949219 91.207031 L 734.949219 798.742188 C 734.949219 821.9375 716.144531 840.738281 692.949219 840.738281 L 174.769531 840.738281 C 151.574219 840.738281 132.769531 821.9375 132.769531 798.742188 L 132.769531 91.207031 C 132.769531 68.011719 151.574219 49.210938 174.769531 49.210938 Z M 174.769531 49.210938 " clip-rule="nonzero"/></clipPath><clipPath id="f4d0788be5"><rect x="0" width="302" y="0" height="358"/></clipPath><clipPath id="357e6d74b5"><rect x="0" width="290" y="0" height="360"/></clipPath><clipPath id="a36fdcfe0e"><rect x="0" width="410" y="0" height="57"/></clipPath><clipPath id="bf64d95b81"><rect x="0" width="176" y="0" height="57"/></clipPath></defs><g clip-path="url(#0428abc248)"><g clip-path="url(#8a777a10cf)"><g transform="matrix(1, 0, 0, 1, 155, 71)"><g clip-path="url(#a99eea869f)"><g clip-path="url(#a5185f5649)"><g clip-path="url(#85530f1021)"><path fill="#d64466" d="M 0.339844 0.984375 L 630.230469 0.984375 L 630.230469 793.269531 L 0.339844 793.269531 Z M 0.339844 0.984375 " fill-opacity="1" fill-rule="nonzero"/></g></g></g></g></g></g><g clip-path="url(#84a12f203e)"><g clip-path="url(#4a6210a7f2)"><g transform="matrix(1, 0, 0, 1, 141, 58)"><g clip-path="url(#6a7f046167)"><g clip-path="url(#013d70709d)"><g clip-path="url(#b183f10bf3)"><path fill="#283c54" d="M 0.164062 0.125 L 621.410156 0.125 L 621.410156 796.09375 L 0.164062 796.09375 Z M 0.164062 0.125 " fill-opacity="1" fill-rule="nonzero"/></g></g></g></g></g></g><g clip-path="url(#5b47943cae)"><g clip-path="url(#2c1a06d117)"><path stroke-linecap="butt" transform="matrix(0.75, 0, 0, 0.75, 141.165187, 58.124405)" fill="none" stroke-linejoin="miter" d="M 55.9985 0.0112101 L 772.310992 0.0112101 C 803.243283 0.0112101 828.310991 25.078918 828.310991 56.006001 L 828.310991 1004.490365 C 828.310991 1035.417448 803.243283 1060.490364 772.310992 1060.490364 L 55.9985 1060.490364 C 25.071417 1060.490364 -0.00149935 1035.417448 -0.00149935 1004.490365 L -0.00149935 56.006001 C -0.00149935 25.078918 25.071417 0.0112101 55.9985 0.0112101 Z M 55.9985 0.0112101 " stroke="#ffffff" stroke-width="4" stroke-opacity="1" stroke-miterlimit="4"/></g></g><path stroke-linecap="butt" transform="matrix(0.511409, 0.548599, -0.548599, 0.511409, 633.759476, 36.474547)" fill="none" stroke-linejoin="miter" d="M 2.578858 39.568505 C 79.1046 -6.523306 155.633415 -6.521819 232.157681 39.565862 " stroke="#283c54" stroke-width="10" stroke-opacity="1" stroke-miterlimit="4"/><g clip-path="url(#09c8c34825)"><g clip-path="url(#e49792f2ad)"><g transform="matrix(1, 0, 0, 1, 132, 49)"><g clip-path="url(#e5c0844b75)"><g clip-path="url(#64060a7a9a)"><g clip-path="url(#d791883962)"><path fill="#ffffff" d="M 0.769531 0.210938 L 602.957031 0.210938 L 602.957031 790.582031 L 0.769531 790.582031 Z M 0.769531 0.210938 " fill-opacity="1" fill-rule="nonzero"/></g></g></g></g></g></g><g clip-path="url(#a9cad78c20)"><g clip-path="url(#b8d4c6416c)"><path stroke-linecap="butt" transform="matrix(0.75, 0, 0, 0.75, 132.768543, 49.209265)" fill="none" stroke-linejoin="miter" d="M 56.001325 0.0022305 L 746.907655 0.0022305 C 777.834742 0.0022305 802.907662 25.069942 802.907662 55.997029 L 802.907662 999.377347 C 802.907662 1030.304434 777.834742 1055.372145 746.907655 1055.372145 L 56.001325 1055.372145 C 25.074238 1055.372145 0.00131813 1030.304434 0.00131813 999.377347 L 0.00131813 55.997029 C 0.00131813 25.069942 25.074238 0.0022305 56.001325 0.0022305 Z M 56.001325 0.0022305 " stroke="#283c54" stroke-width="6" stroke-opacity="1" stroke-miterlimit="4"/></g></g><g transform="matrix(1, 0, 0, 1, 214, 228)"><g clip-path="url(#f4d0788be5)"><g fill="#d64466" fill-opacity="1"><g transform="translate(0.631873, 268.364992)"><g><path d="M 255.890625 -249.84375 L 289.703125 -249.84375 L 289.703125 -246.640625 C 288.753906 -246.640625 287.148438 -245.035156 284.890625 -241.828125 C 282.640625 -238.628906 281.515625 -231.097656 281.515625 -219.234375 L 281.515625 -30.609375 C 281.515625 -18.984375 282.640625 -11.507812 284.890625 -8.1875 C 287.148438 -4.863281 288.753906 -3.203125 289.703125 -3.203125 L 289.703125 0 L 247.703125 0 L 247.703125 -3.203125 C 248.890625 -3.203125 250.550781 -4.863281 252.6875 -8.1875 C 254.820312 -11.507812 255.890625 -18.984375 255.890625 -30.609375 L 255.890625 -242.375 L 149.125 -21 L 159.09375 0 L 130.96875 0 L 27.40625 -215.328125 L 27.40625 -58.375 C 27.40625 -41.757812 29.003906 -28.410156 32.203125 -18.328125 C 35.410156 -8.242188 38.316406 -3.203125 40.921875 -3.203125 L 40.921875 0 L 10.671875 0 L 10.671875 -3.203125 C 13.285156 -3.203125 16.191406 -8.242188 19.390625 -18.328125 C 22.597656 -28.410156 24.203125 -41.757812 24.203125 -58.375 L 24.203125 -221.734375 L 10.671875 -249.84375 L 38.796875 -249.84375 L 147.34375 -24.5625 Z M 255.890625 -249.84375 "/></g></g></g></g></g><g transform="matrix(1, 0, 0, 1, 396, 383)"><g clip-path="url(#357e6d74b5)"><g fill="#ffffff" fill-opacity="1"><g transform="translate(8.986302, 270.220334)"><g><path d="M 2.054688 -89.085938 C -2.925781 -107.691406 -4.097656 -126.144531 -1.464844 -144.4375 C 1.148438 -162.617188 6.976562 -179.566406 16.011719 -195.28125 C 25.0625 -211.023438 36.796875 -224.527344 51.214844 -235.800781 C 65.691406 -247.121094 82.230469 -255.265625 100.828125 -260.246094 C 119.4375 -265.222656 137.886719 -266.398438 156.183594 -263.765625 C 174.363281 -261.148438 191.308594 -255.324219 207.023438 -246.285156 C 222.765625 -237.234375 236.273438 -225.5 247.542969 -211.085938 C 258.863281 -196.605469 267.011719 -180.066406 271.988281 -161.46875 C 276.96875 -142.859375 278.144531 -124.460938 275.507812 -106.28125 C 272.890625 -88.222656 267.066406 -71.339844 258.03125 -55.628906 C 248.992188 -39.910156 237.277344 -26.359375 222.886719 -14.980469 C 208.394531 -3.515625 191.835938 4.707031 173.214844 9.691406 C 154.601562 14.671875 136.207031 15.84375 118.023438 13.207031 C 99.96875 10.59375 83.085938 4.765625 67.375 -4.265625 C 51.65625 -13.304688 38.105469 -25.019531 26.722656 -39.410156 C 15.261719 -53.902344 7.039062 -70.460938 2.054688 -89.085938 Z M 27.839844 -95.984375 C 31.875 -80.914062 38.480469 -67.578125 47.660156 -55.96875 C 56.921875 -44.261719 67.925781 -34.742188 80.679688 -27.40625 C 93.441406 -20.070312 107.164062 -15.335938 121.851562 -13.207031 C 136.414062 -11.097656 151.234375 -12.0625 166.316406 -16.097656 C 181.382812 -20.128906 194.722656 -26.734375 206.328125 -35.914062 C 218.039062 -45.175781 227.558594 -56.183594 234.890625 -68.9375 C 242.230469 -81.695312 246.960938 -95.421875 249.089844 -110.109375 C 251.199219 -124.667969 250.238281 -139.492188 246.203125 -154.570312 C 242.164062 -169.664062 235.601562 -183.023438 226.515625 -194.644531 C 217.382812 -206.324219 206.449219 -215.828125 193.71875 -223.148438 C 180.960938 -230.480469 167.183594 -235.214844 152.382812 -237.34375 C 137.699219 -239.457031 122.8125 -238.496094 107.730469 -234.457031 C 92.636719 -230.417969 79.277344 -223.855469 67.65625 -214.769531 C 55.972656 -205.636719 46.472656 -194.707031 39.152344 -181.976562 C 31.816406 -169.21875 27.085938 -155.4375 24.957031 -140.636719 C 22.84375 -125.953125 23.804688 -111.070312 27.839844 -95.984375 Z M 220.890625 -147.96875 C 217.679688 -160.609375 212.414062 -172.738281 205.09375 -184.363281 C 197.789062 -195.964844 188.9375 -206.054688 178.535156 -214.632812 C 168.492188 -222.914062 157.503906 -228.703125 145.574219 -231.992188 C 134.117188 -235.15625 121.832031 -235.019531 108.722656 -231.59375 C 95.6875 -228.183594 84.992188 -222.199219 76.632812 -213.644531 C 67.855469 -204.660156 61.1875 -194.101562 56.625 -181.972656 C 51.921875 -169.472656 49.359375 -156.367188 48.929688 -142.65625 C 48.496094 -128.722656 49.902344 -115.367188 53.152344 -102.585938 C 56.554688 -90.261719 61.9375 -78.25 69.304688 -66.546875 C 76.621094 -54.925781 85.433594 -44.824219 95.738281 -36.234375 C 105.664062 -27.964844 116.707031 -22.128906 128.871094 -18.726562 C 140.46875 -15.484375 152.65625 -15.660156 165.441406 -19.253906 C 178.605469 -22.699219 189.300781 -28.683594 197.53125 -37.207031 C 206.21875 -46.203125 212.847656 -56.78125 217.417969 -68.9375 C 222.132812 -81.472656 224.757812 -94.613281 225.296875 -108.359375 C 225.835938 -122.164062 224.390625 -135.28125 220.960938 -147.707031 Z M 246.691406 -154.808594 C 250.855469 -139.714844 252.613281 -123.882812 251.96875 -107.316406 C 251.320312 -90.695312 248.132812 -74.769531 242.40625 -59.542969 C 236.535156 -43.9375 227.980469 -30.3125 216.734375 -18.667969 C 205.035156 -6.550781 190.347656 1.820312 172.667969 6.441406 C 155.078125 11.386719 138.085938 11.566406 121.683594 6.980469 C 105.847656 2.554688 91.503906 -5.015625 78.652344 -15.726562 C 66.179688 -26.121094 55.535156 -38.320312 46.71875 -52.324219 C 37.953125 -66.246094 31.472656 -80.808594 27.28125 -96.007812 C 23.414062 -111.222656 21.738281 -127.050781 22.25 -143.488281 C 22.769531 -160.148438 25.902344 -176.109375 31.640625 -191.367188 C 37.515625 -206.996094 46.152344 -220.640625 57.539062 -232.300781 C 69.351562 -244.386719 84.160156 -252.757812 101.96875 -257.417969 C 119.703125 -262.054688 136.605469 -262.15625 152.671875 -257.726562 C 168.261719 -253.425781 182.546875 -245.925781 195.519531 -235.226562 C 208.128906 -224.824219 218.851562 -212.609375 227.683594 -198.585938 C 236.496094 -184.585938 242.855469 -169.90625 246.761719 -154.546875 Z M 246.691406 -154.808594 "/></g></g></g><g fill="#d64466" fill-opacity="1"><g transform="translate(8.986302, 270.220334)"><g><path d="M 14.953125 -92.53125 C 10.441406 -109.382812 9.367188 -126.054688 11.734375 -142.546875 C 14.109375 -159.035156 19.390625 -174.394531 27.578125 -188.625 C 35.765625 -202.863281 46.382812 -215.082031 59.4375 -225.28125 C 72.488281 -235.488281 87.4375 -242.847656 104.28125 -247.359375 C 121.125 -251.859375 137.789062 -252.921875 154.28125 -250.546875 C 170.769531 -248.179688 186.132812 -242.90625 200.375 -234.71875 C 214.613281 -226.53125 226.832031 -215.910156 237.03125 -202.859375 C 247.238281 -189.816406 254.59375 -174.867188 259.09375 -158.015625 C 263.601562 -141.171875 264.671875 -124.5625 262.296875 -108.1875 C 259.929688 -91.820312 254.65625 -76.519531 246.46875 -62.28125 C 238.28125 -48.039062 227.660156 -35.757812 214.609375 -25.4375 C 201.554688 -15.125 186.609375 -7.710938 169.765625 -3.203125 C 152.921875 1.304688 136.3125 2.375 119.9375 0 C 103.570312 -2.375 88.269531 -7.648438 74.03125 -15.828125 C 59.789062 -24.015625 47.507812 -34.632812 37.1875 -47.6875 C 26.863281 -60.738281 19.453125 -75.6875 14.953125 -92.53125 Z M 233.828125 -151.265625 C 230.265625 -165.265625 224.453125 -178.671875 216.390625 -191.484375 C 208.328125 -204.296875 198.539062 -215.445312 187.03125 -224.9375 C 175.519531 -234.425781 162.882812 -241.066406 149.125 -244.859375 C 135.363281 -248.660156 120.769531 -248.539062 105.34375 -244.5 C 89.925781 -240.46875 77.175781 -233.289062 67.09375 -222.96875 C 57.007812 -212.65625 49.351562 -200.554688 44.125 -186.671875 C 38.90625 -172.796875 36.054688 -158.265625 35.578125 -143.078125 C 35.109375 -127.890625 36.65625 -113.296875 40.21875 -99.296875 C 44.007812 -85.535156 49.9375 -72.25 58 -59.4375 C 66.070312 -46.625 75.800781 -35.472656 87.1875 -25.984375 C 98.582031 -16.492188 111.28125 -9.789062 125.28125 -5.875 C 139.28125 -1.957031 153.875 -2.132812 169.0625 -6.40625 C 184.476562 -10.4375 197.164062 -17.613281 207.125 -27.9375 C 217.09375 -38.257812 224.6875 -50.359375 229.90625 -64.234375 C 235.132812 -78.117188 238.046875 -92.65625 238.640625 -107.84375 C 239.234375 -123.03125 237.628906 -137.503906 233.828125 -151.265625 Z M 233.828125 -151.265625 "/></g></g></g></g></g><g transform="matrix(1, 0, 0, 1, 227, 80)"><g clip-path="url(#a36fdcfe0e)"><g fill="#1f3843" fill-opacity="1"><g transform="translate(2.99921, 44.927522)"><g><path d="M 13.125 0 C 12.726562 0 12.40625 -0.128906 12.15625 -0.390625 C 11.90625 -0.648438 11.78125 -0.953125 11.78125 -1.296875 L 11.78125 -29 L 14.484375 -29 L 14.484375 -1.296875 C 14.484375 -0.953125 14.351562 -0.648438 14.09375 -0.390625 C 13.832031 -0.128906 13.507812 0 13.125 0 Z M 2.78125 -27.953125 C 2.4375 -27.953125 2.132812 -28.066406 1.875 -28.296875 C 1.613281 -28.535156 1.484375 -28.84375 1.484375 -29.21875 C 1.484375 -29.570312 1.613281 -29.863281 1.875 -30.09375 C 2.132812 -30.320312 2.4375 -30.4375 2.78125 -30.4375 L 23.484375 -30.4375 C 23.828125 -30.4375 24.128906 -30.320312 24.390625 -30.09375 C 24.648438 -29.863281 24.78125 -29.554688 24.78125 -29.171875 C 24.78125 -28.796875 24.648438 -28.5 24.390625 -28.28125 C 24.128906 -28.0625 23.828125 -27.953125 23.484375 -27.953125 Z M 2.78125 -27.953125 "/></g></g></g><g fill="#1f3843" fill-opacity="1"><g transform="translate(27.305275, 44.927522)"><g><path d="M 5.484375 -30.4375 C 5.828125 -30.4375 6.132812 -30.304688 6.40625 -30.046875 C 6.6875 -29.785156 6.828125 -29.46875 6.828125 -29.09375 L 6.828125 -1.34375 C 6.796875 -0.96875 6.640625 -0.648438 6.359375 -0.390625 C 6.085938 -0.128906 5.78125 0 5.4375 0 C 5.03125 0 4.703125 -0.128906 4.453125 -0.390625 C 4.210938 -0.648438 4.09375 -0.96875 4.09375 -1.34375 L 4.09375 -29.09375 C 4.09375 -29.46875 4.222656 -29.785156 4.484375 -30.046875 C 4.742188 -30.304688 5.078125 -30.4375 5.484375 -30.4375 Z M 25.875 -30.4375 C 26.28125 -30.4375 26.601562 -30.304688 26.84375 -30.046875 C 27.09375 -29.785156 27.21875 -29.46875 27.21875 -29.09375 L 27.21875 -1.34375 C 27.1875 -0.96875 27.046875 -0.648438 26.796875 -0.390625 C 26.554688 -0.128906 26.234375 0 25.828125 0 C 25.453125 0 25.132812 -0.128906 24.875 -0.390625 C 24.613281 -0.648438 24.484375 -0.96875 24.484375 -1.34375 L 24.484375 -29.09375 C 24.484375 -29.46875 24.617188 -29.785156 24.890625 -30.046875 C 25.171875 -30.304688 25.5 -30.4375 25.875 -30.4375 Z M 5.265625 -16.828125 L 25.921875 -16.828125 L 25.875 -14.3125 L 5.09375 -14.3125 Z M 5.265625 -16.828125 "/></g></g></g><g fill="#1f3843" fill-opacity="1"><g transform="translate(56.655286, 44.927522)"><g><path d="M 5.390625 -30.4375 L 21.34375 -30.4375 C 21.695312 -30.4375 22.003906 -30.3125 22.265625 -30.0625 C 22.523438 -29.820312 22.65625 -29.515625 22.65625 -29.140625 C 22.65625 -28.753906 22.523438 -28.445312 22.265625 -28.21875 C 22.003906 -27.988281 21.695312 -27.875 21.34375 -27.875 L 6.390625 -27.875 L 6.828125 -28.609375 L 6.828125 -16.390625 L 6.34375 -16.953125 L 19.390625 -16.953125 C 19.742188 -16.953125 20.050781 -16.820312 20.3125 -16.5625 C 20.570312 -16.300781 20.703125 -16 20.703125 -15.65625 C 20.703125 -15.28125 20.570312 -14.972656 20.3125 -14.734375 C 20.050781 -14.503906 19.742188 -14.390625 19.390625 -14.390625 L 6.4375 -14.390625 L 6.828125 -14.828125 L 6.828125 -2.296875 L 6.609375 -2.5625 L 21.34375 -2.5625 C 21.695312 -2.5625 22.003906 -2.429688 22.265625 -2.171875 C 22.523438 -1.910156 22.65625 -1.609375 22.65625 -1.265625 C 22.65625 -0.890625 22.523438 -0.582031 22.265625 -0.34375 C 22.003906 -0.113281 21.695312 0 21.34375 0 L 5.390625 0 C 5.046875 0 4.742188 -0.128906 4.484375 -0.390625 C 4.222656 -0.648438 4.09375 -0.953125 4.09375 -1.296875 L 4.09375 -29.140625 C 4.09375 -29.484375 4.222656 -29.785156 4.484375 -30.046875 C 4.742188 -30.304688 5.046875 -30.4375 5.390625 -30.4375 Z M 5.390625 -30.4375 "/></g></g></g><g fill="#1f3843" fill-opacity="1"><g transform="translate(79.395966, 44.927522)"><g/></g></g><g fill="#1f3843" fill-opacity="1"><g transform="translate(89.309356, 44.927522)"><g><path d="M 5.390625 -30.4375 C 5.597656 -30.4375 5.804688 -30.390625 6.015625 -30.296875 C 6.234375 -30.210938 6.414062 -30.070312 6.5625 -29.875 L 18.5625 -11.875 L 17.390625 -11.921875 L 29.4375 -29.875 C 29.757812 -30.3125 30.148438 -30.5 30.609375 -30.4375 C 30.960938 -30.4375 31.257812 -30.3125 31.5 -30.0625 C 31.75 -29.820312 31.875 -29.515625 31.875 -29.140625 L 31.875 -1.296875 C 31.875 -0.953125 31.742188 -0.648438 31.484375 -0.390625 C 31.222656 -0.128906 30.90625 0 30.53125 0 C 30.125 0 29.789062 -0.128906 29.53125 -0.390625 C 29.269531 -0.648438 29.140625 -0.953125 29.140625 -1.296875 L 29.140625 -26.484375 L 29.921875 -26.390625 L 18.921875 -9.734375 C 18.828125 -9.566406 18.691406 -9.429688 18.515625 -9.328125 C 18.347656 -9.222656 18.148438 -9.1875 17.921875 -9.21875 C 17.710938 -9.1875 17.515625 -9.222656 17.328125 -9.328125 C 17.140625 -9.429688 16.988281 -9.566406 16.875 -9.734375 L 5.828125 -26.5625 L 6.65625 -27.140625 L 6.65625 -1.296875 C 6.65625 -0.953125 6.53125 -0.648438 6.28125 -0.390625 C 6.03125 -0.128906 5.71875 0 5.34375 0 C 4.96875 0 4.664062 -0.128906 4.4375 -0.390625 C 4.207031 -0.648438 4.09375 -0.953125 4.09375 -1.296875 L 4.09375 -29.140625 C 4.09375 -29.484375 4.210938 -29.785156 4.453125 -30.046875 C 4.703125 -30.304688 5.015625 -30.4375 5.390625 -30.4375 Z M 5.390625 -30.4375 "/></g></g></g><g fill="#1f3843" fill-opacity="1"><g transform="translate(123.311976, 44.927522)"><g><path d="M 14.265625 -27.09375 L 3.703125 -0.828125 C 3.578125 -0.535156 3.410156 -0.316406 3.203125 -0.171875 C 3.003906 -0.0234375 2.773438 0.046875 2.515625 0.046875 C 2.109375 0.046875 1.800781 -0.0625 1.59375 -0.28125 C 1.394531 -0.5 1.285156 -0.769531 1.265625 -1.09375 C 1.234375 -1.226562 1.242188 -1.398438 1.296875 -1.609375 L 12.78125 -29.703125 C 12.925781 -30.015625 13.109375 -30.234375 13.328125 -30.359375 C 13.546875 -30.492188 13.800781 -30.5625 14.09375 -30.5625 C 14.382812 -30.5625 14.632812 -30.484375 14.84375 -30.328125 C 15.0625 -30.171875 15.226562 -29.960938 15.34375 -29.703125 L 26.78125 -1.734375 C 26.84375 -1.566406 26.875 -1.394531 26.875 -1.21875 C 26.875 -0.8125 26.742188 -0.5 26.484375 -0.28125 C 26.222656 -0.0625 25.914062 0.046875 25.5625 0.046875 C 25.28125 0.046875 25.03125 -0.03125 24.8125 -0.1875 C 24.59375 -0.351562 24.425781 -0.566406 24.3125 -0.828125 L 13.484375 -27.265625 Z M 6.21875 -8.78125 L 7.3125 -11.34375 L 20.78125 -11.34375 L 21.3125 -8.78125 Z M 6.21875 -8.78125 "/></g></g></g><g fill="#1f3843" fill-opacity="1"><g transform="translate(149.487779, 44.927522)"><g><path d="M 5.484375 -30.4375 C 5.828125 -30.4375 6.132812 -30.304688 6.40625 -30.046875 C 6.6875 -29.785156 6.828125 -29.46875 6.828125 -29.09375 L 6.828125 -1.34375 C 6.796875 -0.96875 6.640625 -0.648438 6.359375 -0.390625 C 6.085938 -0.128906 5.78125 0 5.4375 0 C 5.03125 0 4.703125 -0.128906 4.453125 -0.390625 C 4.210938 -0.648438 4.09375 -0.96875 4.09375 -1.34375 L 4.09375 -29.09375 C 4.09375 -29.46875 4.222656 -29.785156 4.484375 -30.046875 C 4.742188 -30.304688 5.078125 -30.4375 5.484375 -30.4375 Z M 25.875 -30.4375 C 26.28125 -30.4375 26.601562 -30.304688 26.84375 -30.046875 C 27.09375 -29.785156 27.21875 -29.46875 27.21875 -29.09375 L 27.21875 -1.34375 C 27.1875 -0.96875 27.046875 -0.648438 26.796875 -0.390625 C 26.554688 -0.128906 26.234375 0 25.828125 0 C 25.453125 0 25.132812 -0.128906 24.875 -0.390625 C 24.613281 -0.648438 24.484375 -0.96875 24.484375 -1.34375 L 24.484375 -29.09375 C 24.484375 -29.46875 24.617188 -29.785156 24.890625 -30.046875 C 25.171875 -30.304688 25.5 -30.4375 25.875 -30.4375 Z M 5.265625 -16.828125 L 25.921875 -16.828125 L 25.875 -14.3125 L 5.09375 -14.3125 Z M 5.265625 -16.828125 "/></g></g></g><g fill="#1f3843" fill-opacity="1"><g transform="translate(178.83779, 44.927522)"><g><path d="M 11.3125 0.4375 C 9.476562 0.4375 7.835938 -0.0664062 6.390625 -1.078125 C 4.941406 -2.097656 3.84375 -3.4375 3.09375 -5.09375 C 2.945312 -5.351562 2.875 -5.582031 2.875 -5.78125 C 2.875 -6.15625 3.015625 -6.453125 3.296875 -6.671875 C 3.585938 -6.890625 3.878906 -7 4.171875 -7 C 4.460938 -7 4.703125 -6.925781 4.890625 -6.78125 C 5.078125 -6.632812 5.242188 -6.460938 5.390625 -6.265625 C 5.941406 -5.046875 6.738281 -4.054688 7.78125 -3.296875 C 8.820312 -2.546875 10 -2.171875 11.3125 -2.171875 C 12.644531 -2.171875 13.816406 -2.453125 14.828125 -3.015625 C 15.835938 -3.585938 16.625 -4.378906 17.1875 -5.390625 C 17.757812 -6.398438 18.046875 -7.5625 18.046875 -8.875 L 18.046875 -29.140625 C 18.046875 -29.484375 18.179688 -29.785156 18.453125 -30.046875 C 18.734375 -30.304688 19.0625 -30.4375 19.4375 -30.4375 C 19.84375 -30.4375 20.164062 -30.304688 20.40625 -30.046875 C 20.65625 -29.785156 20.78125 -29.484375 20.78125 -29.140625 L 20.78125 -8.875 C 20.78125 -7.070312 20.375 -5.46875 19.5625 -4.0625 C 18.75 -2.65625 17.632812 -1.550781 16.21875 -0.75 C 14.800781 0.0390625 13.164062 0.4375 11.3125 0.4375 Z M 11.3125 0.4375 "/></g></g></g><g fill="#1f3843" fill-opacity="1"><g transform="translate(201.752402, 44.927522)"><g><path d="M 31.21875 -15.21875 C 31.21875 -12.925781 30.863281 -10.832031 30.15625 -8.9375 C 29.445312 -7.039062 28.4375 -5.390625 27.125 -3.984375 C 25.820312 -2.578125 24.28125 -1.488281 22.5 -0.71875 C 20.71875 0.0507812 18.769531 0.4375 16.65625 0.4375 C 14.539062 0.4375 12.585938 0.0507812 10.796875 -0.71875 C 9.015625 -1.488281 7.472656 -2.578125 6.171875 -3.984375 C 4.867188 -5.390625 3.863281 -7.039062 3.15625 -8.9375 C 2.445312 -10.832031 2.09375 -12.925781 2.09375 -15.21875 C 2.09375 -17.507812 2.445312 -19.601562 3.15625 -21.5 C 3.863281 -23.394531 4.867188 -25.046875 6.171875 -26.453125 C 7.472656 -27.859375 9.015625 -28.945312 10.796875 -29.71875 C 12.585938 -30.488281 14.539062 -30.875 16.65625 -30.875 C 18.769531 -30.875 20.71875 -30.488281 22.5 -29.71875 C 24.28125 -28.945312 25.820312 -27.859375 27.125 -26.453125 C 28.4375 -25.046875 29.445312 -23.394531 30.15625 -21.5 C 30.863281 -19.601562 31.21875 -17.507812 31.21875 -15.21875 Z M 28.4375 -15.21875 C 28.4375 -17.800781 27.9375 -20.066406 26.9375 -22.015625 C 25.9375 -23.972656 24.550781 -25.503906 22.78125 -26.609375 C 21.019531 -27.710938 18.976562 -28.265625 16.65625 -28.265625 C 14.363281 -28.265625 12.328125 -27.710938 10.546875 -26.609375 C 8.765625 -25.503906 7.375 -23.972656 6.375 -22.015625 C 5.375 -20.066406 4.875 -17.800781 4.875 -15.21875 C 4.875 -12.632812 5.375 -10.363281 6.375 -8.40625 C 7.375 -6.457031 8.765625 -4.929688 10.546875 -3.828125 C 12.328125 -2.722656 14.363281 -2.171875 16.65625 -2.171875 C 18.976562 -2.171875 21.019531 -2.722656 22.78125 -3.828125 C 24.550781 -4.929688 25.9375 -6.457031 26.9375 -8.40625 C 27.9375 -10.363281 28.4375 -12.632812 28.4375 -15.21875 Z M 28.4375 -15.21875 "/></g></g></g><g fill="#1f3843" fill-opacity="1"><g transform="translate(233.102609, 44.927522)"><g><path d="M 26.359375 -30.4375 C 26.734375 -30.4375 27.023438 -30.320312 27.234375 -30.09375 C 27.453125 -29.863281 27.5625 -29.570312 27.5625 -29.21875 L 27.5625 -1.390625 C 27.5625 -0.953125 27.425781 -0.609375 27.15625 -0.359375 C 26.882812 -0.117188 26.570312 0 26.21875 0 C 26.039062 0 25.847656 -0.0351562 25.640625 -0.109375 C 25.441406 -0.179688 25.285156 -0.289062 25.171875 -0.4375 L 5.78125 -26.5625 L 6.515625 -26.953125 L 6.515625 -1.171875 C 6.515625 -0.859375 6.398438 -0.582031 6.171875 -0.34375 C 5.941406 -0.113281 5.65625 0 5.3125 0 C 4.925781 0 4.625 -0.113281 4.40625 -0.34375 C 4.195312 -0.582031 4.09375 -0.859375 4.09375 -1.171875 L 4.09375 -29.140625 C 4.09375 -29.566406 4.222656 -29.890625 4.484375 -30.109375 C 4.742188 -30.328125 5.03125 -30.4375 5.34375 -30.4375 C 5.519531 -30.4375 5.707031 -30.398438 5.90625 -30.328125 C 6.113281 -30.253906 6.273438 -30.128906 6.390625 -29.953125 L 25.5625 -4.125 L 25.140625 -3.34375 L 25.140625 -29.21875 C 25.140625 -29.570312 25.257812 -29.863281 25.5 -30.09375 C 25.75 -30.320312 26.035156 -30.4375 26.359375 -30.4375 Z M 26.359375 -30.4375 "/></g></g></g><g fill="#1f3843" fill-opacity="1"><g transform="translate(262.800483, 44.927522)"><g><path d="M 17.734375 0.4375 C 15.503906 0.4375 13.429688 0.0429688 11.515625 -0.734375 C 9.609375 -1.515625 7.953125 -2.609375 6.546875 -4.015625 C 5.140625 -5.421875 4.046875 -7.082031 3.265625 -9 C 2.484375 -10.914062 2.09375 -12.988281 2.09375 -15.21875 C 2.09375 -17.445312 2.484375 -19.519531 3.265625 -21.4375 C 4.046875 -23.351562 5.140625 -25.015625 6.546875 -26.421875 C 7.953125 -27.828125 9.609375 -28.921875 11.515625 -29.703125 C 13.429688 -30.484375 15.503906 -30.875 17.734375 -30.875 C 19.273438 -30.875 20.757812 -30.691406 22.1875 -30.328125 C 23.625 -29.960938 24.910156 -29.421875 26.046875 -28.703125 C 26.253906 -28.554688 26.40625 -28.390625 26.5 -28.203125 C 26.601562 -28.015625 26.65625 -27.816406 26.65625 -27.609375 C 26.65625 -27.203125 26.523438 -26.875 26.265625 -26.625 C 26.003906 -26.382812 25.726562 -26.265625 25.4375 -26.265625 C 25.289062 -26.265625 25.148438 -26.285156 25.015625 -26.328125 C 24.890625 -26.367188 24.769531 -26.421875 24.65625 -26.484375 C 23.664062 -27.035156 22.59375 -27.46875 21.4375 -27.78125 C 20.28125 -28.101562 19.046875 -28.265625 17.734375 -28.265625 C 15.242188 -28.265625 13.023438 -27.695312 11.078125 -26.5625 C 9.140625 -25.4375 7.617188 -23.882812 6.515625 -21.90625 C 5.421875 -19.9375 4.875 -17.707031 4.875 -15.21875 C 4.875 -12.726562 5.421875 -10.492188 6.515625 -8.515625 C 7.617188 -6.546875 9.140625 -4.992188 11.078125 -3.859375 C 13.023438 -2.734375 15.242188 -2.171875 17.734375 -2.171875 C 19.046875 -2.171875 20.359375 -2.359375 21.671875 -2.734375 C 22.992188 -3.117188 24.132812 -3.628906 25.09375 -4.265625 L 24.875 -3.34375 L 24.875 -13.34375 L 25.53125 -12.734375 L 18 -12.734375 C 17.625 -12.734375 17.304688 -12.863281 17.046875 -13.125 C 16.785156 -13.394531 16.65625 -13.703125 16.65625 -14.046875 C 16.65625 -14.453125 16.785156 -14.769531 17.046875 -15 C 17.304688 -15.226562 17.625 -15.34375 18 -15.34375 L 26.3125 -15.34375 C 26.6875 -15.34375 26.992188 -15.21875 27.234375 -14.96875 C 27.484375 -14.726562 27.609375 -14.421875 27.609375 -14.046875 L 27.609375 -3.5625 C 27.609375 -3.332031 27.550781 -3.113281 27.4375 -2.90625 C 27.320312 -2.707031 27.160156 -2.535156 26.953125 -2.390625 C 25.679688 -1.523438 24.253906 -0.835938 22.671875 -0.328125 C 21.097656 0.179688 19.453125 0.4375 17.734375 0.4375 Z M 17.734375 0.4375 "/></g></g></g><g fill="#1f3843" fill-opacity="1"><g transform="translate(291.063431, 44.927522)"><g/></g></g><g fill="#1f3843" fill-opacity="1"><g transform="translate(300.97682, 44.927522)"><g><path d="M 31.21875 -15.21875 C 31.21875 -12.925781 30.863281 -10.832031 30.15625 -8.9375 C 29.445312 -7.039062 28.4375 -5.390625 27.125 -3.984375 C 25.820312 -2.578125 24.28125 -1.488281 22.5 -0.71875 C 20.71875 0.0507812 18.769531 0.4375 16.65625 0.4375 C 14.539062 0.4375 12.585938 0.0507812 10.796875 -0.71875 C 9.015625 -1.488281 7.472656 -2.578125 6.171875 -3.984375 C 4.867188 -5.390625 3.863281 -7.039062 3.15625 -8.9375 C 2.445312 -10.832031 2.09375 -12.925781 2.09375 -15.21875 C 2.09375 -17.507812 2.445312 -19.601562 3.15625 -21.5 C 3.863281 -23.394531 4.867188 -25.046875 6.171875 -26.453125 C 7.472656 -27.859375 9.015625 -28.945312 10.796875 -29.71875 C 12.585938 -30.488281 14.539062 -30.875 16.65625 -30.875 C 18.769531 -30.875 20.71875 -30.488281 22.5 -29.71875 C 24.28125 -28.945312 25.820312 -27.859375 27.125 -26.453125 C 28.4375 -25.046875 29.445312 -23.394531 30.15625 -21.5 C 30.863281 -19.601562 31.21875 -17.507812 31.21875 -15.21875 Z M 28.4375 -15.21875 C 28.4375 -17.800781 27.9375 -20.066406 26.9375 -22.015625 C 25.9375 -23.972656 24.550781 -25.503906 22.78125 -26.609375 C 21.019531 -27.710938 18.976562 -28.265625 16.65625 -28.265625 C 14.363281 -28.265625 12.328125 -27.710938 10.546875 -26.609375 C 8.765625 -25.503906 7.375 -23.972656 6.375 -22.015625 C 5.375 -20.066406 4.875 -17.800781 4.875 -15.21875 C 4.875 -12.632812 5.375 -10.363281 6.375 -8.40625 C 7.375 -6.457031 8.765625 -4.929688 10.546875 -3.828125 C 12.328125 -2.722656 14.363281 -2.171875 16.65625 -2.171875 C 18.976562 -2.171875 21.019531 -2.722656 22.78125 -3.828125 C 24.550781 -4.929688 25.9375 -6.457031 26.9375 -8.40625 C 27.9375 -10.363281 28.4375 -12.632812 28.4375 -15.21875 Z M 28.4375 -15.21875 "/></g></g></g><g fill="#1f3843" fill-opacity="1"><g transform="translate(332.327027, 44.927522)"><g><path d="M 15.703125 -30.4375 C 17.328125 -30.4375 18.757812 -30.066406 20 -29.328125 C 21.25 -28.585938 22.234375 -27.566406 22.953125 -26.265625 C 23.679688 -24.960938 24.046875 -23.46875 24.046875 -21.78125 C 24.046875 -20.101562 23.679688 -18.585938 22.953125 -17.234375 C 22.234375 -15.890625 21.25 -14.828125 20 -14.046875 C 18.757812 -13.265625 17.328125 -12.875 15.703125 -12.875 L 6.484375 -12.875 L 6.703125 -13.3125 L 6.703125 -1.296875 C 6.703125 -0.953125 6.566406 -0.648438 6.296875 -0.390625 C 6.035156 -0.128906 5.734375 0 5.390625 0 C 4.984375 0 4.664062 -0.128906 4.4375 -0.390625 C 4.207031 -0.648438 4.09375 -0.953125 4.09375 -1.296875 L 4.09375 -29.140625 C 4.09375 -29.484375 4.222656 -29.785156 4.484375 -30.046875 C 4.742188 -30.304688 5.046875 -30.4375 5.390625 -30.4375 Z M 15.703125 -15.390625 C 16.828125 -15.390625 17.8125 -15.671875 18.65625 -16.234375 C 19.5 -16.804688 20.15625 -17.578125 20.625 -18.546875 C 21.101562 -19.515625 21.34375 -20.59375 21.34375 -21.78125 C 21.34375 -22.96875 21.101562 -24.019531 20.625 -24.9375 C 20.15625 -25.851562 19.5 -26.570312 18.65625 -27.09375 C 17.8125 -27.613281 16.828125 -27.875 15.703125 -27.875 L 6.484375 -27.875 L 6.703125 -28.265625 L 6.703125 -15.125 L 6.4375 -15.390625 Z M 15.703125 -15.390625 "/></g></g></g><g fill="#1f3843" fill-opacity="1"><g transform="translate(356.285228, 44.927522)"><g><path d="M 5.390625 -30.4375 L 21.34375 -30.4375 C 21.695312 -30.4375 22.003906 -30.3125 22.265625 -30.0625 C 22.523438 -29.820312 22.65625 -29.515625 22.65625 -29.140625 C 22.65625 -28.753906 22.523438 -28.445312 22.265625 -28.21875 C 22.003906 -27.988281 21.695312 -27.875 21.34375 -27.875 L 6.390625 -27.875 L 6.828125 -28.609375 L 6.828125 -16.390625 L 6.34375 -16.953125 L 19.390625 -16.953125 C 19.742188 -16.953125 20.050781 -16.820312 20.3125 -16.5625 C 20.570312 -16.300781 20.703125 -16 20.703125 -15.65625 C 20.703125 -15.28125 20.570312 -14.972656 20.3125 -14.734375 C 20.050781 -14.503906 19.742188 -14.390625 19.390625 -14.390625 L 6.4375 -14.390625 L 6.828125 -14.828125 L 6.828125 -2.296875 L 6.609375 -2.5625 L 21.34375 -2.5625 C 21.695312 -2.5625 22.003906 -2.429688 22.265625 -2.171875 C 22.523438 -1.910156 22.65625 -1.609375 22.65625 -1.265625 C 22.65625 -0.890625 22.523438 -0.582031 22.265625 -0.34375 C 22.003906 -0.113281 21.695312 0 21.34375 0 L 5.390625 0 C 5.046875 0 4.742188 -0.128906 4.484375 -0.390625 C 4.222656 -0.648438 4.09375 -0.953125 4.09375 -1.296875 L 4.09375 -29.140625 C 4.09375 -29.484375 4.222656 -29.785156 4.484375 -30.046875 C 4.742188 -30.304688 5.046875 -30.4375 5.390625 -30.4375 Z M 5.390625 -30.4375 "/></g></g></g><g fill="#1f3843" fill-opacity="1"><g transform="translate(379.025909, 44.927522)"><g><path d="M 26.359375 -30.4375 C 26.734375 -30.4375 27.023438 -30.320312 27.234375 -30.09375 C 27.453125 -29.863281 27.5625 -29.570312 27.5625 -29.21875 L 27.5625 -1.390625 C 27.5625 -0.953125 27.425781 -0.609375 27.15625 -0.359375 C 26.882812 -0.117188 26.570312 0 26.21875 0 C 26.039062 0 25.847656 -0.0351562 25.640625 -0.109375 C 25.441406 -0.179688 25.285156 -0.289062 25.171875 -0.4375 L 5.78125 -26.5625 L 6.515625 -26.953125 L 6.515625 -1.171875 C 6.515625 -0.859375 6.398438 -0.582031 6.171875 -0.34375 C 5.941406 -0.113281 5.65625 0 5.3125 0 C 4.925781 0 4.625 -0.113281 4.40625 -0.34375 C 4.195312 -0.582031 4.09375 -0.859375 4.09375 -1.171875 L 4.09375 -29.140625 C 4.09375 -29.566406 4.222656 -29.890625 4.484375 -30.109375 C 4.742188 -30.328125 5.03125 -30.4375 5.34375 -30.4375 C 5.519531 -30.4375 5.707031 -30.398438 5.90625 -30.328125 C 6.113281 -30.253906 6.273438 -30.128906 6.390625 -29.953125 L 25.5625 -4.125 L 25.140625 -3.34375 L 25.140625 -29.21875 C 25.140625 -29.570312 25.257812 -29.863281 25.5 -30.09375 C 25.75 -30.320312 26.035156 -30.4375 26.359375 -30.4375 Z M 26.359375 -30.4375 "/></g></g></g></g></g><g transform="matrix(1, 0, 0, 1, 351, 763)"><g clip-path="url(#bf64d95b81)"><g fill="#000000" fill-opacity="1"><g transform="translate(1.414159, 44.873707)"><g><path d="M 5.390625 -30.4375 L 21.34375 -30.4375 C 21.695312 -30.4375 22.003906 -30.3125 22.265625 -30.0625 C 22.523438 -29.820312 22.65625 -29.515625 22.65625 -29.140625 C 22.65625 -28.753906 22.523438 -28.445312 22.265625 -28.21875 C 22.003906 -27.988281 21.695312 -27.875 21.34375 -27.875 L 6.390625 -27.875 L 6.828125 -28.609375 L 6.828125 -16.390625 L 6.34375 -16.953125 L 19.390625 -16.953125 C 19.742188 -16.953125 20.050781 -16.820312 20.3125 -16.5625 C 20.570312 -16.300781 20.703125 -16 20.703125 -15.65625 C 20.703125 -15.28125 20.570312 -14.972656 20.3125 -14.734375 C 20.050781 -14.503906 19.742188 -14.390625 19.390625 -14.390625 L 6.4375 -14.390625 L 6.828125 -14.828125 L 6.828125 -2.296875 L 6.609375 -2.5625 L 21.34375 -2.5625 C 21.695312 -2.5625 22.003906 -2.429688 22.265625 -2.171875 C 22.523438 -1.910156 22.65625 -1.609375 22.65625 -1.265625 C 22.65625 -0.890625 22.523438 -0.582031 22.265625 -0.34375 C 22.003906 -0.113281 21.695312 0 21.34375 0 L 5.390625 0 C 5.046875 0 4.742188 -0.128906 4.484375 -0.390625 C 4.222656 -0.648438 4.09375 -0.953125 4.09375 -1.296875 L 4.09375 -29.140625 C 4.09375 -29.484375 4.222656 -29.785156 4.484375 -30.046875 C 4.742188 -30.304688 5.046875 -30.4375 5.390625 -30.4375 Z M 5.390625 -30.4375 "/></g></g></g><g fill="#000000" fill-opacity="1"><g transform="translate(24.15484, 44.873707)"><g><path d="M 12.484375 0.4375 C 10.273438 0.46875 8.359375 0.117188 6.734375 -0.609375 C 5.117188 -1.335938 3.570312 -2.425781 2.09375 -3.875 C 1.945312 -3.988281 1.820312 -4.128906 1.71875 -4.296875 C 1.613281 -4.472656 1.5625 -4.675781 1.5625 -4.90625 C 1.5625 -5.257812 1.695312 -5.582031 1.96875 -5.875 C 2.25 -6.164062 2.5625 -6.3125 2.90625 -6.3125 C 3.257812 -6.3125 3.582031 -6.164062 3.875 -5.875 C 5 -4.65625 6.28125 -3.722656 7.71875 -3.078125 C 9.15625 -2.441406 10.695312 -2.125 12.34375 -2.125 C 13.738281 -2.125 14.976562 -2.34375 16.0625 -2.78125 C 17.15625 -3.21875 18.019531 -3.84375 18.65625 -4.65625 C 19.289062 -5.46875 19.609375 -6.410156 19.609375 -7.484375 C 19.609375 -8.816406 19.242188 -9.894531 18.515625 -10.71875 C 17.796875 -11.539062 16.84375 -12.21875 15.65625 -12.75 C 14.46875 -13.289062 13.148438 -13.78125 11.703125 -14.21875 C 10.515625 -14.5625 9.382812 -14.957031 8.3125 -15.40625 C 7.238281 -15.863281 6.28125 -16.414062 5.4375 -17.0625 C 4.59375 -17.71875 3.9375 -18.523438 3.46875 -19.484375 C 3.007812 -20.441406 2.78125 -21.597656 2.78125 -22.953125 C 2.78125 -24.492188 3.1875 -25.859375 4 -27.046875 C 4.8125 -28.234375 5.960938 -29.164062 7.453125 -29.84375 C 8.953125 -30.53125 10.6875 -30.875 12.65625 -30.875 C 14.363281 -30.875 16.003906 -30.582031 17.578125 -30 C 19.160156 -29.425781 20.414062 -28.570312 21.34375 -27.4375 C 21.78125 -26.976562 22 -26.554688 22 -26.171875 C 22 -25.890625 21.851562 -25.601562 21.5625 -25.3125 C 21.28125 -25.019531 20.960938 -24.875 20.609375 -24.875 C 20.316406 -24.875 20.070312 -24.972656 19.875 -25.171875 C 19.382812 -25.785156 18.757812 -26.332031 18 -26.8125 C 17.25 -27.289062 16.414062 -27.660156 15.5 -27.921875 C 14.582031 -28.179688 13.632812 -28.3125 12.65625 -28.3125 C 11.289062 -28.3125 10.0625 -28.097656 8.96875 -27.671875 C 7.882812 -27.253906 7.03125 -26.65625 6.40625 -25.875 C 5.789062 -25.09375 5.484375 -24.148438 5.484375 -23.046875 C 5.484375 -21.828125 5.828125 -20.828125 6.515625 -20.046875 C 7.210938 -19.265625 8.125 -18.617188 9.25 -18.109375 C 10.382812 -17.597656 11.59375 -17.128906 12.875 -16.703125 C 14.113281 -16.347656 15.304688 -15.945312 16.453125 -15.5 C 17.597656 -15.050781 18.613281 -14.492188 19.5 -13.828125 C 20.382812 -13.160156 21.078125 -12.316406 21.578125 -11.296875 C 22.085938 -10.285156 22.34375 -9.015625 22.34375 -7.484375 C 22.34375 -6.003906 21.921875 -4.671875 21.078125 -3.484375 C 20.242188 -2.296875 19.09375 -1.351562 17.625 -0.65625 C 16.164062 0.0390625 14.453125 0.40625 12.484375 0.4375 Z M 12.484375 0.4375 "/></g></g></g><g fill="#000000" fill-opacity="1"><g transform="translate(46.634639, 44.873707)"><g><path d="M 13.125 0 C 12.726562 0 12.40625 -0.128906 12.15625 -0.390625 C 11.90625 -0.648438 11.78125 -0.953125 11.78125 -1.296875 L 11.78125 -29 L 14.484375 -29 L 14.484375 -1.296875 C 14.484375 -0.953125 14.351562 -0.648438 14.09375 -0.390625 C 13.832031 -0.128906 13.507812 0 13.125 0 Z M 2.78125 -27.953125 C 2.4375 -27.953125 2.132812 -28.066406 1.875 -28.296875 C 1.613281 -28.535156 1.484375 -28.84375 1.484375 -29.21875 C 1.484375 -29.570312 1.613281 -29.863281 1.875 -30.09375 C 2.132812 -30.320312 2.4375 -30.4375 2.78125 -30.4375 L 23.484375 -30.4375 C 23.828125 -30.4375 24.128906 -30.320312 24.390625 -30.09375 C 24.648438 -29.863281 24.78125 -29.554688 24.78125 -29.171875 C 24.78125 -28.796875 24.648438 -28.5 24.390625 -28.28125 C 24.128906 -28.0625 23.828125 -27.953125 23.484375 -27.953125 Z M 2.78125 -27.953125 "/></g></g></g><g fill="#000000" fill-opacity="1"><g transform="translate(66.591909, 44.873707)"><g><path d="M 3.78125 0 C 3.289062 0 2.914062 -0.15625 2.65625 -0.46875 C 2.394531 -0.789062 2.265625 -1.203125 2.265625 -1.703125 L 2.265625 -2.609375 C 2.265625 -3.128906 2.394531 -3.535156 2.65625 -3.828125 C 2.914062 -4.117188 3.289062 -4.265625 3.78125 -4.265625 L 4.09375 -4.265625 C 4.582031 -4.265625 4.957031 -4.117188 5.21875 -3.828125 C 5.476562 -3.535156 5.609375 -3.128906 5.609375 -2.609375 L 5.609375 -1.703125 C 5.609375 -1.203125 5.476562 -0.789062 5.21875 -0.46875 C 4.957031 -0.15625 4.582031 0 4.09375 0 Z M 3.78125 0 "/></g></g></g><g fill="#000000" fill-opacity="1"><g transform="translate(72.504908, 44.873707)"><g/></g></g><g fill="#000000" fill-opacity="1"><g transform="translate(82.418297, 44.873707)"><g><path d="M 20.609375 -2.515625 C 20.960938 -2.515625 21.257812 -2.390625 21.5 -2.140625 C 21.75 -1.898438 21.875 -1.609375 21.875 -1.265625 C 21.875 -0.890625 21.75 -0.582031 21.5 -0.34375 C 21.257812 -0.113281 20.960938 0 20.609375 0 L 4.3125 0 C 3.925781 0 3.59375 -0.109375 3.3125 -0.328125 C 3.039062 -0.546875 2.90625 -0.867188 2.90625 -1.296875 C 2.90625 -1.617188 3.023438 -1.925781 3.265625 -2.21875 L 13.3125 -13.3125 C 14.90625 -15.050781 16.097656 -16.648438 16.890625 -18.109375 C 17.691406 -19.578125 18.09375 -20.890625 18.09375 -22.046875 C 18.09375 -23.960938 17.507812 -25.5 16.34375 -26.65625 C 15.1875 -27.8125 13.625 -28.390625 11.65625 -28.390625 C 10.757812 -28.390625 9.867188 -28.203125 8.984375 -27.828125 C 8.097656 -27.453125 7.3125 -26.957031 6.625 -26.34375 C 5.945312 -25.738281 5.421875 -25.046875 5.046875 -24.265625 C 4.867188 -23.972656 4.6875 -23.769531 4.5 -23.65625 C 4.3125 -23.539062 4.101562 -23.484375 3.875 -23.484375 C 3.519531 -23.484375 3.210938 -23.59375 2.953125 -23.8125 C 2.691406 -24.03125 2.5625 -24.296875 2.5625 -24.609375 C 2.5625 -24.816406 2.613281 -25.019531 2.71875 -25.21875 C 2.820312 -25.425781 2.972656 -25.660156 3.171875 -25.921875 C 3.691406 -26.816406 4.414062 -27.640625 5.34375 -28.390625 C 6.269531 -29.148438 7.304688 -29.753906 8.453125 -30.203125 C 9.597656 -30.648438 10.722656 -30.875 11.828125 -30.875 C 13.679688 -30.875 15.28125 -30.519531 16.625 -29.8125 C 17.976562 -29.101562 19.023438 -28.101562 19.765625 -26.8125 C 20.503906 -25.519531 20.875 -23.988281 20.875 -22.21875 C 20.875 -20.707031 20.398438 -19.0625 19.453125 -17.28125 C 18.515625 -15.5 17.117188 -13.578125 15.265625 -11.515625 L 6.78125 -2 L 6.34375 -2.515625 Z M 20.609375 -2.515625 "/></g></g></g><g fill="#000000" fill-opacity="1"><g transform="translate(104.550234, 44.873707)"><g><path d="M 12.921875 0.4375 C 10.597656 0.4375 8.648438 -0.253906 7.078125 -1.640625 C 5.515625 -3.035156 4.34375 -4.914062 3.5625 -7.28125 C 2.78125 -9.644531 2.390625 -12.289062 2.390625 -15.21875 C 2.390625 -18.175781 2.78125 -20.835938 3.5625 -23.203125 C 4.34375 -25.566406 5.515625 -27.4375 7.078125 -28.8125 C 8.648438 -30.1875 10.597656 -30.875 12.921875 -30.875 C 15.296875 -30.875 17.257812 -30.1875 18.8125 -28.8125 C 20.363281 -27.4375 21.53125 -25.566406 22.3125 -23.203125 C 23.09375 -20.835938 23.484375 -18.175781 23.484375 -15.21875 C 23.484375 -12.289062 23.09375 -9.644531 22.3125 -7.28125 C 21.53125 -4.914062 20.363281 -3.035156 18.8125 -1.640625 C 17.257812 -0.253906 15.296875 0.4375 12.921875 0.4375 Z M 12.921875 -2.265625 C 14.628906 -2.265625 16.054688 -2.800781 17.203125 -3.875 C 18.347656 -4.945312 19.21875 -6.457031 19.8125 -8.40625 C 20.40625 -10.363281 20.703125 -12.632812 20.703125 -15.21875 C 20.703125 -17.832031 20.40625 -20.113281 19.8125 -22.0625 C 19.21875 -24.019531 18.347656 -25.535156 17.203125 -26.609375 C 16.054688 -27.679688 14.628906 -28.21875 12.921875 -28.21875 C 11.234375 -28.21875 9.816406 -27.679688 8.671875 -26.609375 C 7.523438 -25.535156 6.65625 -24.019531 6.0625 -22.0625 C 5.46875 -20.113281 5.171875 -17.832031 5.171875 -15.21875 C 5.171875 -12.632812 5.46875 -10.363281 6.0625 -8.40625 C 6.65625 -6.457031 7.523438 -4.945312 8.671875 -3.875 C 9.816406 -2.800781 11.234375 -2.265625 12.921875 -2.265625 Z M 12.921875 -2.265625 "/></g></g></g><g fill="#000000" fill-opacity="1"><g transform="translate(128.464927, 44.873707)"><g><path d="M 20.609375 -2.515625 C 20.960938 -2.515625 21.257812 -2.390625 21.5 -2.140625 C 21.75 -1.898438 21.875 -1.609375 21.875 -1.265625 C 21.875 -0.890625 21.75 -0.582031 21.5 -0.34375 C 21.257812 -0.113281 20.960938 0 20.609375 0 L 4.3125 0 C 3.925781 0 3.59375 -0.109375 3.3125 -0.328125 C 3.039062 -0.546875 2.90625 -0.867188 2.90625 -1.296875 C 2.90625 -1.617188 3.023438 -1.925781 3.265625 -2.21875 L 13.3125 -13.3125 C 14.90625 -15.050781 16.097656 -16.648438 16.890625 -18.109375 C 17.691406 -19.578125 18.09375 -20.890625 18.09375 -22.046875 C 18.09375 -23.960938 17.507812 -25.5 16.34375 -26.65625 C 15.1875 -27.8125 13.625 -28.390625 11.65625 -28.390625 C 10.757812 -28.390625 9.867188 -28.203125 8.984375 -27.828125 C 8.097656 -27.453125 7.3125 -26.957031 6.625 -26.34375 C 5.945312 -25.738281 5.421875 -25.046875 5.046875 -24.265625 C 4.867188 -23.972656 4.6875 -23.769531 4.5 -23.65625 C 4.3125 -23.539062 4.101562 -23.484375 3.875 -23.484375 C 3.519531 -23.484375 3.210938 -23.59375 2.953125 -23.8125 C 2.691406 -24.03125 2.5625 -24.296875 2.5625 -24.609375 C 2.5625 -24.816406 2.613281 -25.019531 2.71875 -25.21875 C 2.820312 -25.425781 2.972656 -25.660156 3.171875 -25.921875 C 3.691406 -26.816406 4.414062 -27.640625 5.34375 -28.390625 C 6.269531 -29.148438 7.304688 -29.753906 8.453125 -30.203125 C 9.597656 -30.648438 10.722656 -30.875 11.828125 -30.875 C 13.679688 -30.875 15.28125 -30.519531 16.625 -29.8125 C 17.976562 -29.101562 19.023438 -28.101562 19.765625 -26.8125 C 20.503906 -25.519531 20.875 -23.988281 20.875 -22.21875 C 20.875 -20.707031 20.398438 -19.0625 19.453125 -17.28125 C 18.515625 -15.5 17.117188 -13.578125 15.265625 -11.515625 L 6.78125 -2 L 6.34375 -2.515625 Z M 20.609375 -2.515625 "/></g></g></g><g fill="#000000" fill-opacity="1"><g transform="translate(150.596864, 44.873707)"><g><path d="M 12.484375 0.4375 C 10.796875 0.4375 9.320312 0.132812 8.0625 -0.46875 C 6.800781 -1.082031 5.757812 -1.90625 4.9375 -2.9375 C 4.113281 -3.96875 3.503906 -5.132812 3.109375 -6.4375 C 2.710938 -7.738281 2.515625 -9.070312 2.515625 -10.4375 C 2.515625 -11.832031 2.6875 -13.332031 3.03125 -14.9375 C 3.382812 -16.539062 3.921875 -18.171875 4.640625 -19.828125 C 5.367188 -21.484375 6.265625 -23.050781 7.328125 -24.53125 C 8.390625 -26.007812 9.617188 -27.332031 11.015625 -28.5 C 12.421875 -29.675781 14.007812 -30.597656 15.78125 -31.265625 C 15.988281 -31.328125 16.164062 -31.359375 16.3125 -31.359375 C 16.6875 -31.359375 17.007812 -31.253906 17.28125 -31.046875 C 17.5625 -30.847656 17.703125 -30.5 17.703125 -30 C 17.703125 -29.707031 17.609375 -29.453125 17.421875 -29.234375 C 17.234375 -29.023438 16.976562 -28.863281 16.65625 -28.75 C 15.4375 -28.21875 14.234375 -27.472656 13.046875 -26.515625 C 11.859375 -25.566406 10.753906 -24.46875 9.734375 -23.21875 C 8.722656 -21.96875 7.863281 -20.625 7.15625 -19.1875 C 6.445312 -17.757812 5.945312 -16.304688 5.65625 -14.828125 L 4.703125 -14.265625 C 5.222656 -15.222656 5.894531 -16.070312 6.71875 -16.8125 C 7.539062 -17.550781 8.488281 -18.144531 9.5625 -18.59375 C 10.632812 -19.039062 11.796875 -19.265625 13.046875 -19.265625 C 14.347656 -19.265625 15.550781 -18.988281 16.65625 -18.4375 C 17.757812 -17.882812 18.707031 -17.132812 19.5 -16.1875 C 20.300781 -15.25 20.925781 -14.1875 21.375 -13 C 21.820312 -11.8125 22.046875 -10.582031 22.046875 -9.3125 C 22.046875 -7.59375 21.628906 -5.992188 20.796875 -4.515625 C 19.972656 -3.035156 18.84375 -1.835938 17.40625 -0.921875 C 15.976562 -0.015625 14.335938 0.4375 12.484375 0.4375 Z M 12.4375 -2.09375 C 13.769531 -2.09375 14.957031 -2.394531 16 -3 C 17.039062 -3.601562 17.859375 -4.445312 18.453125 -5.53125 C 19.046875 -6.625 19.34375 -7.882812 19.34375 -9.3125 C 19.34375 -10.613281 19.085938 -11.820312 18.578125 -12.9375 C 18.078125 -14.050781 17.328125 -14.960938 16.328125 -15.671875 C 15.328125 -16.378906 14.085938 -16.734375 12.609375 -16.734375 C 11.078125 -16.734375 9.75 -16.382812 8.625 -15.6875 C 7.507812 -15 6.65625 -14.082031 6.0625 -12.9375 C 5.46875 -11.789062 5.171875 -10.535156 5.171875 -9.171875 C 5.171875 -7.953125 5.457031 -6.800781 6.03125 -5.71875 C 6.613281 -4.632812 7.445312 -3.757812 8.53125 -3.09375 C 9.625 -2.425781 10.925781 -2.09375 12.4375 -2.09375 Z M 12.4375 -2.09375 "/></g></g></g></g></g></svg>